<svg viewBox="0 0 181 152" xmlns="http://www.w3.org/2000/svg"><circle cx="87.56" cy="73.34" r="50.5" fill="#fff" stroke="#0f1f2d" stroke-width="3"/><circle cx="87.56" cy="73.34" r="43.5" fill="none" stroke="#0f1f2d" stroke-width="3"/><path d="M91.66 69.85a32.7 32.7 0 0 1-.42 4.89 229.943 229.943 0 0 1-.93 5.81c-.34 2-.66 4.12-.93 6.24a47.004 47.004 0 0 0-.38 6.15c-.047.772.134 1.54.52 2.21.395.532 1.04.821 1.7.76a2.7 2.7 0 0 0 1.26-.36 4.763 4.763 0 0 0 1.36-1.18c.533-.65.986-1.362 1.35-2.12a18.293 18.293 0 0 0 1.18-3.18l2 .41a21.441 21.441 0 0 1-1 3.24A15.21 15.21 0 0 1 95.6 96a9.734 9.734 0 0 1-2.6 2.47 6.095 6.095 0 0 1-3.47 1c-4.26 0-6.39-2.22-6.39-6.66-.004-2.008.14-4.013.43-6 .29-2 .6-3.9 1-5.82.4-1.92.66-3.85.95-5.8a40.17 40.17 0 0 0 .43-5.92 6.207 6.207 0 0 0-.09-1 3.915 3.915 0 0 0-.29-1 2.183 2.183 0 0 0-.59-.81 1.453 1.453 0 0 0-1-.33 2.7 2.7 0 0 0-1.26.36 5.05 5.05 0 0 0-1.38 1.17 9.997 9.997 0 0 0-1.37 2.12 16.963 16.963 0 0 0-1.17 3.16l-2-.41c.214-1.021.505-2.023.87-3a14.048 14.048 0 0 1 1.71-3.28A10.796 10.796 0 0 1 82 63.57a6.333 6.333 0 0 1 3.7-1.08 5.999 5.999 0 0 1 2.61.53 5.181 5.181 0 0 1 1.87 1.5 6.67 6.67 0 0 1 1.11 2.32c.254.983.378 1.995.37 3.01zm1.83-18.6a4.083 4.083 0 0 1-.31 1.63 3.994 3.994 0 0 1-.83 1.24 3.682 3.682 0 0 1-1.21.81 3.726 3.726 0 0 1-4.14-.81 3.778 3.778 0 0 1-.82-1.24 4.446 4.446 0 0 1-.29-1.63 4.135 4.135 0 0 1 .31-1.64 3.91 3.91 0 0 1 .85-1.28c.352-.354.77-.636 1.23-.83a3.857 3.857 0 0 1 4.14.79 4.104 4.104 0 0 1 1.07 2.96z" fill="#0f1f2d" fill-rule="nonzero"/></svg>
