<svg viewBox="0 0 181 152" xmlns="http://www.w3.org/2000/svg" fill-rule="evenodd" clip-rule="evenodd" stroke-linejoin="round" stroke-miterlimit="1.414"><path d="M120.637 28.948a1.558 1.558 0 0 0-1.17-.472 1.612 1.612 0 0 0-1.148.514l-5.985 6.444a1.625 1.625 0 0 0 .024 2.225l.454.467-2.376 2.376-3.754-.937a9.832 9.832 0 0 0-9.295 2.593l-8.86 9.31-9.225-9.224a8.469 8.469 0 0 0-8.685-2.051 1.66 1.66 0 0 0-.501.272l-.404.322-1.034-1.093 2.023-2.024a1.626 1.626 0 0 0 0-2.278l-6.444-6.444a1.627 1.627 0 0 0-2.278 0L41.036 49.891a1.627 1.627 0 0 0 0 2.278l6.444 6.444a1.626 1.626 0 0 0 2.278 0l.728-.728 3.817 3.818-.938 3.754a9.793 9.793 0 0 0 2.52 9.218l12.437 13.542a7.877 7.877 0 0 0 2.846 1.704v11.565a7.43 7.43 0 0 0 4.113 6.655 4.2 4.2 0 0 1 2.331 3.772v.335h-1.611c-.884 0-1.611.727-1.611 1.611v8.055c0 .883.727 1.611 1.611 1.611h30.609c.884 0 1.611-.728 1.611-1.611v-8.055c0-.884-.727-1.611-1.611-1.611h-1.611v-1.652l1.878-1.859a9.824 9.824 0 0 0 4.566-8.261V81.449a7.398 7.398 0 0 0 6.65-2.312l8.516-9.247a7.414 7.414 0 0 0 1.796-7.614c-.258-.776 1.128-3.318 2.784-5.267.295.291.691.458 1.106.465h.017a1.612 1.612 0 0 0 1.127-.465l6.518-6.444a1.617 1.617 0 0 0 0-2.285l-19.32-19.332z" fill="#0f1f2d" /><path d="M49.249 54.375a1.581 1.581 0 0 0-.356.542l-.279.279-4.166-4.166 18.665-18.665 4.166 4.166L65.71 38.1c-.19.074-.365.183-.514.323L49.249 54.375zM71.168 85.758v.628a2.992 2.992 0 0 1-.525-.399L58.205 72.445a6.586 6.586 0 0 1-1.719-6.209l1.158-4.636a1.617 1.617 0 0 0-.422-1.531l-4.463-4.462 13.634-13.634 1.993 2.109c.574.607 1.53.672 2.181.148l1.323-1.065a5.25 5.25 0 0 1 5.129 1.352l9.28 9.281-1.508 1.583a5.701 5.701 0 0 0-1.503-.219 6.455 6.455 0 0 0-.943.015c-2.859.384-4.95 2.964-4.733 5.841v16.846c-3.699.771-6.386 4.033-6.444 7.894zM77.612 115.47h27.387v4.833H77.612z" fill="#fff"/><path d="M108.221 79.411v21.065a6.584 6.584 0 0 1-3.174 5.605c-.11.066-.212.145-.303.235l-2.484 2.462a1.598 1.598 0 0 0-.483 1.145v2.325H80.834v-.335a7.418 7.418 0 0 0-4.113-6.654 4.2 4.2 0 0 1-2.331-3.773V85.758a4.85 4.85 0 0 1 3.222-4.536v10.083h3.222V61.018a2.595 2.595 0 0 1 2.131-2.627 2.989 2.989 0 0 1 1.905.746c.487.414.779 1.014.805 1.653v24.071h3.222V57.564a2.44 2.44 0 0 1 2.671-2.403 2.596 2.596 0 0 1 2.154 2.635v27.065h3.222V62.397a2.44 2.44 0 0 1 2.671-2.403 2.595 2.595 0 0 1 2.162 2.635v22.232h3.222V71.556a4.85 4.85 0 0 1 3.222 4.536v3.319z" fill="#fff"/><path d="M125.351 63.301a4.238 4.238 0 0 1-1.065 4.363l-8.516 9.248a4.825 4.825 0 0 1-4.327 1.318v-2.138a8.12 8.12 0 0 0-6.444-7.894v-5.569a5.86 5.86 0 0 0-5.063-5.84 5.643 5.643 0 0 0-3.011.527 6.218 6.218 0 0 0-.161-.986c-.028-.103-.07-.199-.1-.301a6.25 6.25 0 0 0-.219-.625c-.05-.116-.115-.222-.173-.335-.09-.176-.177-.351-.283-.516-.073-.112-.161-.215-.236-.322-.111-.15-.22-.298-.344-.436-.092-.102-.19-.195-.289-.29a5.964 5.964 0 0 0-.401-.361c-.108-.087-.221-.161-.335-.243a5.383 5.383 0 0 0-.449-.284 5.997 5.997 0 0 0-.859-.383 5.834 5.834 0 0 0-.409-.124c-.079-.02-.153-.054-.234-.07l7.271-7.634a6.593 6.593 0 0 1 6.208-1.721l4.637 1.16a1.615 1.615 0 0 0 1.53-.424l2.782-2.782 14.077 14.077c-1.501 1.735-4.536 5.735-3.587 8.58v.005zM132.334 53.58l-.391-.402-.049-.047-16.158-16.626 3.804-4.098 17.005 17.012-4.211 4.161z" fill="#fff"/></svg>
