<svg viewBox="0 0 64 64" xmlns="http://www.w3.org/2000/svg"><path fill="#b2b2b2" fill-rule="nonzero" d="M17.067 0h12.8v4.267h-12.8zM34.133 0h12.8v4.267h-12.8zM12.8 4.267H4.267V12.8H0V0h12.8v4.267zM64 29.867h-4.267v-12.8H64v12.8zM64 46.933h-4.267v-12.8H64v12.8zM64 0v12.8h-4.267V4.267H51.2V0H64zM34.133 59.733h12.8V64h-12.8zM17.067 59.733h12.8V64h-12.8zM64 64H51.2v-4.267h8.533V51.2H64V64zM4.267 46.933H0v-12.8h4.267v12.8zM4.267 29.867H0v-12.8h4.267v12.8zM4.267 59.733H12.8V64H0V51.2h4.267v8.533z"/><g fill="#b2b2b3" fill-rule="nonzero"><path d="M12.8 24.87v14.28h3.14v-5.9h5.98v-2.44h-5.98v-3.3h6.9v-2.64H12.8zM27.8 31.59v-4.28h2.44c.36 0 .707.027 1.04.08.333.053.627.157.88.31s.457.37.61.65c.153.28.23.647.23 1.1 0 .453-.077.82-.23 1.1-.153.28-.357.497-.61.65a2.42 2.42 0 0 1-.88.31c-.333.053-.68.08-1.04.08H27.8zm-3.14-6.72v14.28h3.14v-5.12h3.3c.893 0 1.653-.13 2.28-.39.627-.26 1.137-.603 1.53-1.03.393-.427.68-.917.86-1.47a5.43 5.43 0 0 0 0-3.39 3.961 3.961 0 0 0-.86-1.46c-.393-.427-.903-.77-1.53-1.03s-1.387-.39-2.28-.39h-6.44zM40.52 32.07c0-.627.07-1.233.21-1.82a4.81 4.81 0 0 1 .67-1.57c.307-.46.707-.827 1.2-1.1.493-.273 1.093-.41 1.8-.41.707 0 1.307.137 1.8.41.493.273.893.64 1.2 1.1.307.46.53.983.67 1.57.14.587.21 1.193.21 1.82 0 .6-.07 1.183-.21 1.75a4.716 4.716 0 0 1-.67 1.53 3.44 3.44 0 0 1-1.2 1.09c-.493.273-1.093.41-1.8.41-.707 0-1.307-.137-1.8-.41a3.44 3.44 0 0 1-1.2-1.09 4.716 4.716 0 0 1-.67-1.53 7.271 7.271 0 0 1-.21-1.75zm-3.14 0c0 1.04.16 2.01.48 2.91.32.9.78 1.683 1.38 2.35a6.32 6.32 0 0 0 2.21 1.57c.873.38 1.857.57 2.95.57 1.107 0 2.093-.19 2.96-.57.867-.38 1.6-.903 2.2-1.57.6-.667 1.06-1.45 1.38-2.35.32-.9.48-1.87.48-2.91 0-1.067-.16-2.057-.48-2.97a7.138 7.138 0 0 0-1.38-2.39 6.334 6.334 0 0 0-2.2-1.6c-.867-.387-1.853-.58-2.96-.58-1.093 0-2.077.193-2.95.58-.873.387-1.61.92-2.21 1.6-.6.68-1.06 1.477-1.38 2.39-.32.913-.48 1.903-.48 2.97z"/></g></svg>
