<svg viewBox="0 0 181 152" xmlns="http://www.w3.org/2000/svg" fill-rule="evenodd" clip-rule="evenodd" stroke-linecap="round" stroke-miterlimit="10"><path d="M127.07 116.26h-73.4V20.29h49.16l24.24 21.92v74.05z" fill="#fff" fill-rule="nonzero" stroke="#0f1f2d" stroke-width="3"/><path d="M65.89 92.24h48.96-48.96zM65.89 101.33h48.96-48.96zM102.64 20.29v21.92h24.25" fill="none" stroke="#0f1f2d" stroke-width="3"/><path d="M99.39 65.06c.126-.82.163-1.652.11-2.48l3.23-2.8-.73-2.52-4.43-.14a10.911 10.911 0 0 0-2-2.22l.43-5.19-2.14-.93-3.55 3.71a10.733 10.733 0 0 0-3.25-.06l-3.23-3.72-2 .77-.12 5.18a10.378 10.378 0 0 0-1.71 1.7l-5.41-.54-.94 2.18 4 3.67a10.736 10.736 0 0 0-.06 3.1l-3.73 3 1.25 2.57 4.69-.22a10.194 10.194 0 0 0 1.81 1.85l-.42 5.14 2.14.93 3.57-3.75c.774.118 1.559.151 2.34.1l3.57 3.91 2-.78-.07-5A10.838 10.838 0 0 0 97 70.33l5.41.55.94-2.14-3.96-3.68zm-4.52-1c-.325 3.255-3.097 5.764-6.368 5.764-3.511 0-6.4-2.889-6.4-6.4 0-3.511 2.889-6.4 6.4-6.4.226 0 .453.012.678.036 3.474.365 6.037 3.514 5.69 6.99v.01z" fill="#fff" fill-rule="nonzero" stroke="#0f1f2d" stroke-width="2.38" stroke-linecap="butt"/></svg>