<svg xmlns="http://www.w3.org/2000/svg" viewBox="0 0 181 152"><circle cx="81.91" cy="75.15" r="52.42" fill="#fff" stroke="#0f1f2d" stroke-linecap="round" stroke-miterlimit="10" stroke-width="3"/><circle cx="81.91" cy="75.15" r="45.16" fill="#fff" stroke="#0f1f2d" stroke-linecap="round" stroke-miterlimit="10" stroke-width="3"/><path d="M88.49 85.68H75.42v-6.45a12 12 0 0 1 .9-5.29 23.06 23.06 0 0 1 3.83-4.78l5.85-6a6 6 0 0 0 1.29-4 6.11 6.11 0 0 0-1.38-4.08 4.48 4.48 0 0 0-3.61-1.64 4.57 4.57 0 0 0-3.74 1.94 10 10 0 0 0-1.85 5.12H63q1-8.63 6.31-13.5a19 19 0 0 1 13.38-4.9q8 0 13.07 4.39t5 12.12a11.58 11.58 0 0 1-.86 5.12c-.57 1.12-1 1.92-1.2 2.41a11.53 11.53 0 0 1-1.59 2.19c-.83 1-1.39 1.61-1.68 1.9-1.37 1.37-2.68 2.66-3.91 3.87a12.89 12.89 0 0 0-2.45 3 7.74 7.74 0 0 0-.61 3.49zM76.75 106a7.7 7.7 0 1 1 5.38 2.19 7.32 7.32 0 0 1-5.38-2.19z" fill="none" stroke="#0f1f2d" stroke-miterlimit="10" stroke-width="3"/></svg>
