<svg viewBox="0 0 509 96" xmlns="http://www.w3.org/2000/svg" fill-rule="evenodd" clip-rule="evenodd" stroke-linejoin="round" stroke-miterlimit="1.414"><path d="M.375.375h142.866l47.622 47.622-47.622 47.622H.375l47.622-47.622L.375.375z" fill="#ead1dc" stroke="#000" stroke-width=".75"/><path d="M62.974 41.421l1.324.34c-.282 1.086-.781 1.918-1.5 2.496-.719.571-1.602.856-2.649.856-1.077 0-1.956-.219-2.636-.657-.672-.445-1.188-1.082-1.547-1.91a6.871 6.871 0 0 1-.527-2.695c0-1.039.199-1.945.597-2.719.399-.781.965-1.371 1.699-1.769a4.99 4.99 0 0 1 2.438-.61c1 0 1.84.254 2.52.762.687.507 1.164 1.227 1.429 2.156l-1.3.304c-.235-.725-.575-1.253-1.02-1.581-.438-.336-.988-.504-1.653-.504-.773 0-1.417.183-1.933.551a2.926 2.926 0 0 0-1.09 1.488 5.9 5.9 0 0 0-.316 1.922c0 .852.125 1.593.375 2.226.249.633.636 1.11 1.16 1.43.512.309 1.1.472 1.699.469.742 0 1.371-.215 1.887-.645.516-.43.863-1.066 1.043-1.91zm2.803 3.516v-10.02h1.231v3.598c.57-.664 1.293-.996 2.168-.996.539 0 1.004.105 1.395.316.398.211.683.504.855.879.172.375.258.918.258 1.629v4.594h-1.23v-4.594c0-.617-.133-1.066-.399-1.348-.266-.281-.645-.422-1.137-.422-.359 0-.699.098-1.019.293a1.625 1.625 0 0 0-.691.762c-.133.321-.2.765-.2 1.336v3.973h-1.231zm12.751-2.333l1.266.153c-.203.742-.575 1.32-1.114 1.734-.539.407-1.23.609-2.073.609-1.063 0-1.907-.324-2.532-.971-.617-.657-.926-1.575-.926-2.754 0-1.227.313-2.176.938-2.848.632-.672 1.449-1.008 2.449-1.008.969 0 1.758.332 2.367.996.617.656.926 1.582.926 2.777v.328h-5.414c.047.797.273 1.41.679 1.84.407.422.911.633 1.512.633.454 0 .84-.118 1.16-.352.321-.242.575-.621.762-1.137zm-4.043-1.992h4.055c-.055-.609-.211-1.066-.469-1.371-.391-.476-.898-.714-1.524-.714-.562 0-1.038.191-1.429.573-.383.375-.594.879-.633 1.512zm11.59 1.665l1.208.164c-.133.828-.473 1.48-1.02 1.957-.539.468-1.207.702-2.004.702-.992 0-1.789-.324-2.391-.972-.601-.648-.902-1.578-.902-2.789 0-.789.129-1.477.386-2.062.259-.586.653-1.024 1.185-1.313a3.494 3.494 0 0 1 1.734-.445c.789 0 1.434.199 1.933.597.5.399.821.965.961 1.7l-1.195.175c-.118-.484-.32-.847-.609-1.089a1.541 1.541 0 0 0-1.043-.375c-.617 0-1.121.222-1.512.667-.391.446-.586 1.149-.586 2.11 0 .976.188 1.687.563 2.133.375.437.863.656 1.464.656.485 0 .887-.148 1.207-.445.329-.297.536-.754.621-1.371zm2.262 2.66v-10.02h1.231v5.719l2.918-2.953h1.582l-2.766 2.695 3.047 4.559h-1.512l-2.402-3.715-.867.844v2.871h-1.231zm10.427-3.633c0-1.344.371-2.336 1.113-2.977.625-.539 1.387-.808 2.285-.808 1.001 0 1.817.328 2.45.984.633.648.949 1.551.949 2.707 0 .93-.141 1.664-.422 2.203-.277.528-.706.96-1.231 1.243a3.517 3.517 0 0 1-1.746.444c-1.015 0-1.836-.324-2.461-.972-.624-.656-.937-1.598-.937-2.824zm1.266 0c0 .93.198 1.629.597 2.098.381.449.946.703 1.535.691a1.95 1.95 0 0 0 1.524-.691c.406-.469.609-1.18.609-2.133 0-.899-.203-1.578-.609-2.04a1.95 1.95 0 0 0-1.524-.691c-.617 0-1.129.231-1.535.691-.398.454-.597 1.145-.597 2.075zm11.719 3.633V43.87c-.563.821-1.329 1.23-2.297 1.23a2.947 2.947 0 0 1-1.207-.246c-.367-.163-.641-.37-.82-.621a2.283 2.283 0 0 1-.375-.914c-.055-.234-.083-.616-.083-1.148v-4.488h1.231v4.019c0 .641.027 1.075.082 1.301.078.321.242.574.492.762.25.187.558.281.926.281a2.01 2.01 0 0 0 1.031-.281c.328-.195.559-.453.692-.774.132-.328.199-.801.199-1.418v-3.89h1.23v7.254h-1.101zm5.719-1.102l.176 1.09c-.344.07-.653.106-.926.106-.446 0-.793-.071-1.043-.212a1.193 1.193 0 0 1-.515-.55c-.102-.234-.153-.719-.153-1.453v-4.184h-.902v-.949h.902V35.89l1.219-.738v2.531h1.242v.949h-1.242v4.254c0 .344.02.567.058.668.046.1.119.186.211.246.102.055.246.082.434.082.132 0 .312-.015.539-.047zM60.407 58.777l1.207.164c-.133.828-.472 1.48-1.019 1.957-.539.468-1.207.702-2.004.702-.992 0-1.789-.324-2.391-.972-.602-.648-.902-1.578-.902-2.789 0-.789.129-1.477.387-2.062.258-.586.652-1.024 1.183-1.313a3.5 3.5 0 0 1 1.735-.445c.789 0 1.433.199 1.933.597.5.399.821.965.961 1.7l-1.196.175c-.117-.484-.32-.847-.609-1.089a1.54 1.54 0 0 0-1.043-.375c-.617 0-1.121.223-1.511.667-.391.446-.587 1.149-.587 2.11 0 .977.188 1.687.563 2.133.375.437.863.656 1.465.656.484 0 .887-.148 1.207-.445.328-.297.535-.754.621-1.371zm1.805-.973c0-1.344.371-2.336 1.114-2.977.624-.539 1.386-.808 2.284-.808 1.001 0 1.817.328 2.45.984.633.648.949 1.551.949 2.707 0 .93-.141 1.664-.422 2.203-.277.527-.706.96-1.23 1.243a3.523 3.523 0 0 1-1.747.444c-1.015 0-1.835-.324-2.461-.972-.624-.656-.937-1.598-.937-2.824zm1.266 0c0 .93.199 1.629.598 2.098a1.96 1.96 0 0 0 1.534.691 1.95 1.95 0 0 0 1.524-.691c.406-.469.609-1.18.609-2.133 0-.899-.203-1.578-.609-2.04a1.95 1.95 0 0 0-1.524-.691 1.96 1.96 0 0 0-1.534.691c-.399.454-.598 1.145-.598 2.075zm11.672 3.633v-.914c-.453.718-1.129 1.077-2.027 1.077a2.818 2.818 0 0 1-1.594-.48 3.16 3.16 0 0 1-1.125-1.335c-.265-.571-.398-1.227-.398-1.969 0-.727.121-1.383.363-1.969.242-.594.601-1.047 1.078-1.36a2.944 2.944 0 0 1 1.629-.468c.438 0 .824.093 1.16.281.343.18.621.418.832.715v-3.598h1.23v10.02H75.15zm-3.879-3.621c0 .929.195 1.624.586 2.086.39.46.852.691 1.383.691.539 0 .996-.219 1.371-.656.375-.446.562-1.118.562-2.016 0-.992-.191-1.718-.574-2.18-.383-.468-.855-.703-1.418-.703-.539 0-.992.223-1.36.668-.366.446-.55 1.149-.55 2.11zm11.93 1.288l1.266.153c-.203.742-.574 1.32-1.114 1.734-.539.407-1.23.609-2.074.609-1.062 0-1.906-.324-2.531-.972-.617-.656-.926-1.574-.926-2.754 0-1.227.313-2.175.938-2.847.633-.672 1.449-1.008 2.449-1.008.969 0 1.758.332 2.367.996.617.656.926 1.582.926 2.777v.328h-5.414c.047.797.273 1.41.68 1.84.406.422.91.633 1.511.633.454 0 .84-.118 1.16-.352.321-.242.575-.621.762-1.137zm-4.043-1.992h4.055c-.055-.609-.211-1.066-.469-1.371-.39-.476-.898-.714-1.524-.714-.562 0-1.038.191-1.429.574-.383.375-.594.879-.633 1.512z" fill-rule="nonzero"/><path d="M158.739.375h142.866l47.622 47.622-47.622 47.622H158.739l47.622-47.622L158.739.375z" fill="#ead1dc" stroke="#000" stroke-width=".75"/><path d="M214.131 53.187v-10.02h3.761c.766 0 1.38.102 1.84.305.461.203.821.516 1.078.938.266.421.399.863.399 1.323 0 .43-.117.837-.352 1.219-.227.375-.574.676-1.043.902.602.18 1.067.485 1.395.915.328.429.492.933.492 1.512 0 .468-.102.906-.305 1.312-.195.398-.441.707-.738.926-.289.219-.652.387-1.09.504-.438.109-.976.164-1.617.164h-3.82zm1.336-5.812h2.156c.594 0 1.016-.036 1.265-.106.336-.101.59-.269.762-.504.172-.234.258-.527.258-.879 0-.328-.082-.617-.246-.867a1.185 1.185 0 0 0-.68-.528c-.296-.093-.804-.141-1.523-.141h-1.992v3.024zm0 4.629h2.484c.429 0 .73-.015.903-.047.304-.055.558-.145.761-.269.218-.14.395-.334.516-.563.133-.242.199-.523.199-.843 0-.375-.098-.7-.293-.973a1.473 1.473 0 0 0-.797-.575c-.336-.117-.824-.175-1.465-.175h-2.308v3.445zm12.648 1.184v-1.067c-.562.821-1.327 1.23-2.296 1.23a2.97 2.97 0 0 1-1.208-.245c-.366-.164-.64-.371-.819-.621a2.28 2.28 0 0 1-.375-.915c-.055-.234-.083-.616-.083-1.148v-4.488h1.231v4.019c0 .641.027 1.075.082 1.302.078.32.242.573.492.761.25.187.558.281.926.281s.711-.094 1.031-.281a1.61 1.61 0 0 0 .692-.773c.133-.329.199-.801.199-1.419v-3.89h1.23v7.254h-1.102zm3.036-8.602v-1.418h1.231v1.418h-1.231zm0 8.602v-7.254h1.231v7.254h-1.231zm3.074 0v-10.02h1.231v10.02h-1.231zm7.843 0v-.914c-.453.718-1.129 1.078-2.028 1.078a2.832 2.832 0 0 1-1.593-.48 3.154 3.154 0 0 1-1.125-1.336c-.266-.571-.399-1.227-.399-1.969 0-.727.121-1.383.364-1.969.242-.594.601-1.047 1.078-1.36a2.946 2.946 0 0 1 1.629-.468c.437 0 .824.093 1.16.281.344.18.621.418.832.715v-3.598h1.23v10.02h-1.148zm-3.879-3.621c0 .929.195 1.624.586 2.086.39.46.851.691 1.382.691.54 0 .996-.219 1.371-.656.375-.446.563-1.118.563-2.016 0-.992-.191-1.718-.574-2.18-.383-.468-.856-.703-1.418-.703-.539 0-.992.223-1.359.668-.368.446-.551 1.148-.551 2.11zm15.583 2.73c-.46.383-.902.656-1.324.82a3.8 3.8 0 0 1-1.347.235c-.798 0-1.411-.195-1.841-.586-.429-.391-.644-.887-.644-1.488 0-.36.082-.684.246-.973.164-.297.375-.531.633-.703.273-.183.574-.321.89-.41a8.9 8.9 0 0 1 1.091-.187c.992-.118 1.722-.258 2.19-.423.009-.172.012-.277.012-.316 0-.5-.116-.855-.351-1.067-.312-.273-.781-.41-1.407-.41-.577 0-1.003.102-1.277.305-.273.204-.476.559-.609 1.067l-1.207-.164c.109-.508.289-.918.539-1.231.25-.32.613-.566 1.09-.738.477-.172 1.023-.258 1.641-.258.624 0 1.128.074 1.511.223.391.14.676.324.856.55.187.219.316.497.387.833.039.21.058.589.058 1.136v1.641c0 1.141.027 1.863.082 2.167.055.297.156.587.304.868h-1.277a2.427 2.427 0 0 1-.246-.891zm-.106-2.754c-.444.187-1.112.344-2.003.469-.508.07-.868.152-1.078.246a1.136 1.136 0 0 0-.492.399 1.053 1.053 0 0 0-.164.585c0 .328.125.602.375.821.249.218.613.328 1.089.328.469 0 .887-.102 1.254-.305.375-.211.649-.496.821-.856.133-.281.198-.691.198-1.23v-.457zm3.153 6.422V45.934h1.114v.937c.266-.367.563-.64.891-.82.336-.188.742-.281 1.218-.281.618 0 1.161.16 1.629.48.477.312.836.762 1.079 1.348.242.578.363 1.214.363 1.91 0 .742-.133 1.41-.398 2.004-.266.594-.653 1.05-1.161 1.371a3.013 3.013 0 0 1-1.606.468 2.328 2.328 0 0 1-1.101-.257 2.354 2.354 0 0 1-.797-.656v3.527h-1.23zm1.113-6.364c0 .93.188 1.622.563 2.075.382.445.84.668 1.371.668.546 0 1.015-.231 1.406-.691.391-.469.586-1.188.586-2.157 0-.921-.192-1.613-.575-2.074-.375-.461-.828-.692-1.359-.692-.523 0-.988.246-1.394.739-.399.485-.598 1.195-.598 2.132zm6.668 6.364V45.934h1.113v.937c.267-.367.563-.64.891-.82.336-.188.743-.281 1.219-.281.617 0 1.16.16 1.629.48.476.312.836.762 1.078 1.348.242.578.364 1.214.364 1.91 0 .742-.133 1.41-.399 2.004-.266.594-.652 1.05-1.16 1.371a3.013 3.013 0 0 1-1.606.468 2.328 2.328 0 0 1-1.101-.257 2.354 2.354 0 0 1-.797-.656v3.527H264.6zm1.114-6.364c0 .93.187 1.622.562 2.075.383.445.84.668 1.372.668.547 0 1.015-.231 1.406-.691.39-.469.586-1.188.586-2.157 0-.921-.192-1.613-.575-2.074-.375-.461-.828-.692-1.359-.692-.523 0-.988.246-1.395.739-.398.485-.598 1.195-.598 2.132z" fill-rule="nonzero"/><path d="M317.168.375h142.866l47.622 47.622-47.622 47.622H317.168l47.622-47.622L317.168.375z" fill="#ead1dc" stroke="#000" stroke-width=".75"/><path d="M372.56 44.937v-10.02h3.762c.765 0 1.379.102 1.839.305.461.203.821.516 1.079.938.265.421.398.863.398 1.323 0 .43-.117.837-.352 1.219-.226.375-.574.676-1.042.902.601.18 1.066.485 1.394.915.328.429.492.933.492 1.512 0 .468-.101.906-.305 1.312-.195.398-.441.707-.738.926-.289.219-.652.387-1.089.504-.438.109-.978.164-1.618.164h-3.82zm1.336-5.812h2.156c.593 0 1.016-.036 1.265-.106.336-.101.591-.269.762-.504.172-.234.258-.527.258-.879 0-.328-.082-.617-.246-.867a1.185 1.185 0 0 0-.68-.528c-.297-.093-.805-.141-1.523-.141h-1.992v3.024zm0 4.629h2.484c.43 0 .73-.015.902-.047.305-.055.559-.145.762-.269.211-.133.383-.32.516-.563.133-.242.199-.523.199-.843 0-.375-.098-.7-.293-.973a1.473 1.473 0 0 0-.797-.575c-.336-.117-.824-.175-1.465-.175h-2.308v3.445zm12.649 1.184v-1.067c-.563.821-1.329 1.23-2.297 1.23a2.95 2.95 0 0 1-1.207-.246c-.367-.163-.641-.37-.82-.621a2.283 2.283 0 0 1-.375-.914c-.055-.234-.083-.616-.083-1.148v-4.488h1.231v4.019c0 .641.027 1.075.082 1.301.078.321.242.574.492.762.25.187.559.281.926.281a2.01 2.01 0 0 0 1.031-.281c.328-.195.559-.453.692-.774.133-.328.199-.801.199-1.418v-3.89h1.23v7.254h-1.101zm3.036-8.602v-1.418h1.23v1.418h-1.23zm0 8.602v-7.254h1.23v7.254h-1.23zm3.073 0v-10.02h1.23v10.02h-1.23zm7.843 0v-.914c-.453.718-1.129 1.078-2.027 1.078a2.833 2.833 0 0 1-1.594-.48 3.154 3.154 0 0 1-1.125-1.336c-.266-.571-.398-1.227-.398-1.969 0-.727.12-1.383.363-1.969.242-.594.601-1.047 1.078-1.36a2.946 2.946 0 0 1 1.629-.468c.437 0 .824.093 1.16.281.344.18.621.418.832.715v-3.598h1.23v10.02h-1.148zm-3.879-3.621c0 .929.196 1.624.586 2.086.39.46.852.691 1.383.691.539 0 .996-.219 1.371-.656.375-.446.562-1.118.562-2.016 0-.992-.191-1.718-.574-2.18-.383-.468-.855-.703-1.418-.703-.539 0-.992.223-1.359.668-.367.446-.551 1.148-.551 2.11zm11.002 3.621v-10.02h3.456c.774 0 1.368.051 1.782.152.57.125 1.058.364 1.464.716a3.993 3.993 0 0 1 1.184 1.71c.265.696.398 1.488.398 2.379 0 .758-.089 1.434-.269 2.028-.179.585-.41 1.07-.692 1.452-.245.356-.55.665-.902.915a3.796 3.796 0 0 1-1.195.504 7.121 7.121 0 0 1-1.605.164h-3.621zm1.323-1.184h2.145c.657 0 1.172-.059 1.547-.176.375-.124.676-.301.902-.527.313-.313.555-.734.727-1.265.18-.532.269-1.176.269-1.935 0-1.046-.172-1.851-.515-2.413-.344-.563-.762-.938-1.254-1.125-.352-.141-.922-.212-1.711-.212h-2.11v7.653zm8.172-2.449c0-1.344.371-2.336 1.113-2.977.625-.539 1.386-.808 2.285-.808 1 0 1.816.328 2.449.984.633.648.949 1.551.949 2.707 0 .93-.14 1.664-.421 2.203-.277.528-.706.96-1.231 1.243a3.517 3.517 0 0 1-1.746.444c-1.016 0-1.836-.323-2.461-.971-.625-.657-.937-1.599-.937-2.825zm1.265 0c0 .93.199 1.629.598 2.098.381.449.946.703 1.535.691.61 0 1.117-.231 1.523-.691.407-.469.61-1.18.61-2.133 0-.899-.203-1.578-.61-2.04a1.947 1.947 0 0 0-1.523-.691c-.617 0-1.129.231-1.535.691-.399.454-.598 1.145-.598 2.075zm11.708.973l1.207.164c-.133.828-.473 1.48-1.019 1.957-.54.468-1.208.702-2.004.702-.993 0-1.79-.323-2.391-.971-.602-.649-.903-1.579-.903-2.79 0-.789.129-1.477.387-2.062.258-.586.653-1.024 1.184-1.313a3.494 3.494 0 0 1 1.734-.445c.789 0 1.434.199 1.933.598.501.398.821.964.962 1.699l-1.196.176c-.117-.485-.32-.848-.609-1.09a1.54 1.54 0 0 0-1.043-.375c-.617 0-1.121.222-1.512.667-.391.446-.586 1.149-.586 2.11 0 .976.188 1.687.563 2.133.375.437.863.656 1.465.656.484 0 .886-.148 1.207-.445.328-.297.535-.754.621-1.371zm2.261 2.66v-10.02h1.231v5.719l2.918-2.953h1.582l-2.766 2.695 3.047 4.559h-1.512l-2.402-3.715-.867.844v2.871h-1.23zm11.964-2.333l1.266.153c-.203.742-.574 1.32-1.114 1.734-.538.407-1.23.609-2.073.609-1.063 0-1.907-.324-2.532-.972-.617-.656-.926-1.574-.926-2.754 0-1.227.313-2.175.938-2.847.633-.672 1.449-1.008 2.449-1.008.969 0 1.758.332 2.367.996.617.656.926 1.582.926 2.777v.328H440.2c.047.797.274 1.41.68 1.84.406.422.91.633 1.512.633.453 0 .84-.118 1.16-.352.32-.242.574-.621.761-1.137zm-4.042-1.992h4.054c-.055-.609-.211-1.066-.469-1.371-.39-.476-.898-.714-1.523-.714a1.97 1.97 0 0 0-1.43.573c-.383.375-.593.879-.632 1.512zm6.843 4.325v-7.254h1.102v1.102c.281-.516.539-.856.773-1.02.235-.162.513-.248.798-.246.414 0 .836.132 1.265.398l-.422 1.137a1.76 1.76 0 0 0-.902-.269c-.274 0-.516.081-.727.246a1.363 1.363 0 0 0-.456.667 4.669 4.669 0 0 0-.212 1.442v3.797h-1.219zm-74.649 7.898v-1.418h1.23v1.418h-1.23zm0 8.602v-7.254h1.23v7.254h-1.23zm3.108 0v-7.254h1.102v1.019a2.557 2.557 0 0 1 2.192-1.183c.539 0 .98.113 1.324.339.344.219.586.528.726.927.578-.844 1.325-1.266 2.239-1.266.726 0 1.281.199 1.663.597.391.399.587 1.012.587 1.84v4.981h-1.231v-4.571c0-.492-.039-.843-.117-1.054a1.013 1.013 0 0 0-.433-.527 1.365 1.365 0 0 0-.739-.2c-.508 0-.929.172-1.265.515-.336.336-.504.876-.504 1.618v4.219h-1.231v-4.712c0-.546-.101-.957-.304-1.23-.204-.273-.531-.41-.984-.41-.345 0-.665.09-.962.269a1.53 1.53 0 0 0-.644.798c-.126.351-.188.859-.188 1.523v3.762h-1.231zm16.391-.891c-.461.383-.903.656-1.325.82-.431.16-.888.239-1.347.234-.797 0-1.41-.195-1.84-.585-.43-.391-.644-.887-.644-1.488 0-.36.081-.684.246-.973a1.98 1.98 0 0 1 .632-.704c.266-.179.562-.315.891-.409a9.032 9.032 0 0 1 1.09-.188c.992-.117 1.722-.258 2.191-.422.008-.172.012-.277.012-.316 0-.5-.118-.855-.352-1.067-.312-.273-.781-.41-1.406-.41-.578 0-1.004.102-1.277.305-.274.203-.477.559-.61 1.067l-1.207-.165c.11-.507.289-.918.54-1.23.249-.321.612-.567 1.089-.738.477-.172 1.023-.258 1.641-.258.625 0 1.128.074 1.512.222.39.141.675.324.855.551.187.219.316.496.387.832.039.211.058.59.058 1.137v1.641c0 1.14.028 1.863.083 2.167.054.297.156.587.304.868h-1.277a2.408 2.408 0 0 1-.246-.891zm-.106-2.754c-.445.187-1.113.344-2.004.469-.508.07-.867.152-1.078.246a1.131 1.131 0 0 0-.492.399c-.11.175-.167.379-.164.585 0 .328.125.602.375.821.25.218.613.328 1.09.328a2.55 2.55 0 0 0 1.254-.305c.375-.211.648-.496.82-.856.132-.281.199-.691.199-1.23v-.457zm2.918 4.243l1.196.175c.055.375.196.644.422.809.305.226.722.339 1.253.339.571 0 1.008-.113 1.313-.339.313-.227.523-.543.633-.95.063-.25.09-.777.082-1.582-.531.633-1.199.95-2.004.95-1 0-1.773-.359-2.32-1.079-.547-.718-.821-1.581-.821-2.589 0-.696.126-1.336.375-1.922.258-.586.621-1.036 1.09-1.348.477-.32 1.04-.48 1.688-.48.852 0 1.554.343 2.109 1.031v-.867h1.137v6.269c0 1.133-.117 1.934-.351 2.402-.227.469-.591.84-1.09 1.114-.493.273-1.106.41-1.841.41-.858 0-1.558-.195-2.097-.586-.531-.383-.789-.968-.774-1.757zm1.02-4.36c0 .953.188 1.648.563 2.086.382.438.859.656 1.429.656.563 0 1.035-.215 1.419-.644.382-.438.573-1.122.573-2.051 0-.891-.198-1.559-.597-2.004-.39-.453-.864-.68-1.418-.68-.547 0-1.012.223-1.395.668-.382.437-.574 1.094-.574 1.969zm11.966 1.429l1.265.153c-.203.742-.574 1.32-1.113 1.734-.539.407-1.231.609-2.074.609-1.063 0-1.907-.324-2.532-.972-.617-.656-.925-1.574-.925-2.754 0-1.227.312-2.175.937-2.847.633-.672 1.449-1.008 2.449-1.008.969 0 1.758.332 2.368.996.616.656.925 1.582.925 2.777v.328h-5.414c.047.797.274 1.41.68 1.84.406.422.91.633 1.512.633.453 0 .84-.118 1.16-.352.32-.242.574-.621.762-1.137zm-4.043-1.992h4.054c-.055-.609-.211-1.066-.469-1.371-.39-.476-.898-.714-1.523-.714-.562 0-1.039.191-1.429.573-.384.375-.594.879-.633 1.512z" fill-rule="nonzero"/></svg>