<svg viewBox="0 0 504 356" xmlns="http://www.w3.org/2000/svg" fill-rule="evenodd" clip-rule="evenodd" stroke-linejoin="round" stroke-miterlimit="1.414"><path fill="#fff2cc" stroke="#000" stroke-width="3" d="M1.5 1.5h416.913v203.654H1.5z"/><path d="M12.639 112.923h41.339v11.22h67.669V195.6H12.639v-82.677z" fill="#cfe2f3" stroke="#000"/><path d="M134.459 180.542h-1.515l5.531-14.406h1.516l-5.532 14.406zm17.321-5.953a7.05 7.05 0 0 1-.266 1.969 4.877 4.877 0 0 1-.75 1.594 3.552 3.552 0 0 1-1.203 1.062c-.479.25-1.031.375-1.656.375-.635 0-1.187-.109-1.656-.328a3.459 3.459 0 0 1-1.188-.984l-.078 1.125h-1.547v-14h1.688v5.203a3.175 3.175 0 0 1 1.156-.922c.458-.208.995-.313 1.609-.313.625 0 1.178.125 1.657.375.489.24.896.584 1.218 1.032.334.437.584.968.75 1.593a7.23 7.23 0 0 1 .266 2.016v.203zm-1.687-.203a6.31 6.31 0 0 0-.141-1.359 3.595 3.595 0 0 0-.453-1.157 2.252 2.252 0 0 0-.813-.781c-.333-.198-.739-.297-1.218-.297-.292 0-.563.042-.813.125-.24.073-.458.177-.656.313a2.437 2.437 0 0 0-.5.484 2.85 2.85 0 0 0-.375.594v4.312c.104.219.229.422.375.61.156.187.328.354.515.5.198.135.417.239.657.312.25.073.521.11.812.11.459 0 .854-.094 1.188-.282.333-.198.604-.458.812-.781a3.54 3.54 0 0 0 .453-1.141c.104-.427.157-.88.157-1.359v-.203zm10.93 3.656c-.334.49-.745.87-1.235 1.141-.489.271-1.057.406-1.703.406-.521 0-.99-.078-1.406-.234a2.804 2.804 0 0 1-1.078-.766c-.292-.344-.521-.776-.688-1.297-.156-.521-.234-1.151-.234-1.89v-5.86h1.687v5.875c0 .542.042.99.125 1.344.084.344.209.62.375.828.177.208.386.359.625.453a2.7 2.7 0 0 0 .86.125c.687 0 1.239-.14 1.656-.422.427-.281.745-.656.953-1.125v-7.078h1.688v9.86h-1.532l-.093-1.36zm5.054-8.5h5.047v8.407h3.219v1.453h-8.266v-1.453h3.36v-6.938h-3.36v-1.469zm3.141-2.578c0-.281.083-.516.25-.703.167-.198.422-.297.766-.297.333 0 .583.099.75.297.166.188.25.422.25.703 0 .271-.084.5-.25.688-.167.177-.417.265-.75.265-.344 0-.599-.088-.766-.265a.998.998 0 0 1-.25-.688zm8.055-1.562h5.047v12.547h3.219v1.453h-8.266v-1.453h3.359V166.87h-3.359v-1.468zm10.617 8.984c0-.729.094-1.401.282-2.016.187-.625.448-1.156.781-1.593.344-.448.76-.792 1.25-1.032a3.521 3.521 0 0 1 1.625-.375c.594 0 1.109.099 1.547.297.448.188.828.474 1.14.86v-5.125h1.688v14h-1.547l-.062-1.032c-.334.396-.73.698-1.188.907-.448.208-.979.312-1.594.312a3.524 3.524 0 0 1-1.625-.375 3.875 3.875 0 0 1-1.234-1.062 5.421 5.421 0 0 1-.781-1.594 6.7 6.7 0 0 1-.282-1.969v-.203zm1.688.203c0 .479.052.932.156 1.359.104.428.261.808.469 1.141.219.323.495.583.828.781.333.188.734.282 1.203.282.292 0 .552-.032.781-.094a2.451 2.451 0 0 0 1.125-.735c.146-.177.271-.369.375-.578v-4.578a2.865 2.865 0 0 0-.89-.984c-.365-.261-.823-.391-1.375-.391-.469 0-.875.099-1.219.297a2.385 2.385 0 0 0-.828.781 3.856 3.856 0 0 0-.469 1.157c-.104.427-.156.88-.156 1.359v.203z" fill-rule="nonzero"/><path d="M12.639 273h41.339v11.22h67.669v71.457H12.639V273z" fill="#cfe2f3" stroke="#000"/><path d="M134.459 341.078h-1.515l5.531-14.407h1.516l-5.532 14.407zm12.962-13.391v2.391h3.75v1.312h-3.75v5.344c0 .385.047.703.14.953.094.25.224.448.391.594.177.146.375.25.594.312.229.063.468.094.718.094.178 0 .36-.01.547-.031.198-.021.391-.047.578-.078.188-.032.36-.063.516-.094.167-.031.302-.063.406-.094l.235 1.203a2.582 2.582 0 0 1-.516.219 4.905 4.905 0 0 1-.656.156 5.21 5.21 0 0 1-.75.11 6.613 6.613 0 0 1-.781.047c-.438 0-.849-.063-1.235-.188a2.57 2.57 0 0 1-.984-.594 2.883 2.883 0 0 1-.672-1.047c-.156-.427-.234-.947-.234-1.562v-5.344h-2.579v-1.312h2.579v-2.391h1.703zm11.555 12.438c-.688 0-1.323-.12-1.907-.36a4.531 4.531 0 0 1-1.5-.984 4.622 4.622 0 0 1-.953-1.516 5.17 5.17 0 0 1-.343-1.906v-.391c0-.791.125-1.5.375-2.125.26-.635.598-1.166 1.015-1.593a4.46 4.46 0 0 1 1.438-1 4.194 4.194 0 0 1 1.656-.344c.708 0 1.328.125 1.859.375.532.239.974.578 1.328 1.015.355.428.615.938.782 1.532.177.583.265 1.218.265 1.906v.75h-7.031c.01.458.094.885.25 1.281.156.386.37.729.641 1.031.27.292.593.526.968.704.375.166.792.25 1.25.25.605 0 1.136-.12 1.594-.36.469-.25.86-.573 1.172-.969l1.031.797a3.93 3.93 0 0 1-.625.719 4.327 4.327 0 0 1-.843.594 4.691 4.691 0 0 1-1.094.422 4.9 4.9 0 0 1-1.328.172zm-.219-8.844c-.344 0-.667.062-.969.187a2.487 2.487 0 0 0-.812.547 3.39 3.39 0 0 0-.625.891 3.96 3.96 0 0 0-.344 1.203h5.297v-.125a3.23 3.23 0 0 0-.188-.984 2.555 2.555 0 0 0-.468-.86 2.162 2.162 0 0 0-.766-.625c-.313-.156-.688-.234-1.125-.234zm13.617 6.047c0-.209-.041-.391-.125-.547a1.323 1.323 0 0 0-.406-.438 3.144 3.144 0 0 0-.75-.375 6.712 6.712 0 0 0-1.141-.297 15.359 15.359 0 0 1-1.562-.421 5.311 5.311 0 0 1-1.188-.594 2.775 2.775 0 0 1-.765-.797 2.151 2.151 0 0 1-.266-1.078c0-.396.094-.766.281-1.11.188-.354.448-.661.782-.921a3.92 3.92 0 0 1 1.218-.61c.469-.156.99-.234 1.563-.234.604 0 1.146.078 1.625.234.49.156.906.375 1.25.656.344.271.604.594.781.969.188.375.281.781.281 1.219h-1.687c0-.219-.057-.427-.172-.625a1.612 1.612 0 0 0-.453-.547 2.162 2.162 0 0 0-.703-.375 2.557 2.557 0 0 0-.922-.156c-.365 0-.682.041-.953.125a1.92 1.92 0 0 0-.672.312 1.436 1.436 0 0 0-.406.469 1.152 1.152 0 0 0-.141.547c0 .187.037.359.109.516.073.156.198.296.375.421.188.115.433.224.735.329.302.093.682.182 1.14.265.605.136 1.146.287 1.625.453.48.167.881.37 1.204.61.333.229.583.5.75.812.177.302.265.656.265 1.063 0 .437-.099.838-.297 1.203a2.727 2.727 0 0 1-.812.922c-.354.25-.776.448-1.266.593a5.995 5.995 0 0 1-1.609.204c-.677 0-1.276-.089-1.797-.266a4.596 4.596 0 0 1-1.328-.719 3.205 3.205 0 0 1-.828-1.015 2.815 2.815 0 0 1-.282-1.219h1.688c.021.344.109.635.266.875.166.239.369.432.609.578.24.146.505.25.797.312.291.053.583.079.875.079.708 0 1.265-.131 1.672-.391.416-.26.63-.604.64-1.031zm8.633-9.641v2.391h3.75v1.312h-3.75v5.344c0 .385.047.703.141.953.094.25.224.448.391.594.177.146.375.25.593.312.23.063.469.094.719.094.177 0 .36-.01.547-.031.198-.021.391-.047.578-.078.188-.032.36-.063.516-.094.166-.031.302-.063.406-.094l.234 1.203a2.547 2.547 0 0 1-.515.219 4.905 4.905 0 0 1-.656.156c-.23.052-.48.089-.75.11a6.617 6.617 0 0 1-.782.047c-.437 0-.849-.063-1.234-.188a2.57 2.57 0 0 1-.984-.594 2.858 2.858 0 0 1-.672-1.047c-.157-.427-.235-.947-.235-1.562v-5.344h-2.578v-1.312h2.578v-2.391h1.703zm7.462 2.391h5.046v8.406h3.219v1.453h-8.265v-1.453h3.359v-6.938h-3.359v-1.468zm3.14-2.578c0-.282.084-.516.25-.704.167-.197.422-.296.766-.296.333 0 .583.099.75.296.167.188.25.422.25.704 0 .27-.083.5-.25.687-.167.177-.417.266-.75.266-.344 0-.599-.089-.766-.266a1 1 0 0 1-.25-.687zm9.305 2.578l.125 1.453a3.76 3.76 0 0 1 1.313-1.188 3.526 3.526 0 0 1 1.75-.437c.521 0 .989.073 1.406.219.427.145.786.375 1.078.687.302.302.531.693.688 1.172.166.479.25 1.042.25 1.687v6.266h-1.688v-6.219c0-.437-.052-.807-.156-1.109a1.754 1.754 0 0 0-.422-.734 1.557 1.557 0 0 0-.703-.422 3.234 3.234 0 0 0-.953-.125c-.563 0-1.058.14-1.485.422a3.15 3.15 0 0 0-1.031 1.125v7.062h-1.687v-9.859h1.515zm9.383 4.843c0-.729.089-1.401.266-2.015.177-.625.432-1.156.765-1.594a3.5 3.5 0 0 1 1.25-1.031 3.558 3.558 0 0 1 1.641-.375c.615 0 1.151.109 1.609.328.459.208.849.516 1.172.922l.078-1.078h1.532v9.656c0 .646-.104 1.219-.313 1.719-.198.51-.484.937-.859 1.281-.365.354-.802.62-1.313.797a4.87 4.87 0 0 1-2.578.187 4.542 4.542 0 0 1-.984-.281 4.365 4.365 0 0 1-.969-.516 3.331 3.331 0 0 1-.812-.812l.875-1c.208.25.421.458.64.625.219.177.438.318.656.422.23.104.454.177.672.219.23.041.459.062.688.062.396 0 .755-.057 1.078-.172.323-.114.599-.281.828-.5.229-.219.401-.495.516-.828.125-.323.187-.698.187-1.125v-.844a3.235 3.235 0 0 1-1.156.86c-.448.198-.969.297-1.563.297a3.524 3.524 0 0 1-1.625-.375 3.677 3.677 0 0 1-1.234-1.063 5.409 5.409 0 0 1-.781-1.594 7.08 7.08 0 0 1-.266-1.968v-.204zm1.672.204c0 .479.052.932.156 1.359.105.427.261.807.469 1.141.219.322.495.583.828.781.334.187.735.281 1.203.281.292 0 .552-.031.782-.094.239-.073.453-.172.64-.297.188-.135.354-.291.5-.468.146-.177.271-.37.375-.578v-4.516a2.655 2.655 0 0 0-.375-.563 2.15 2.15 0 0 0-.515-.453 2.147 2.147 0 0 0-.625-.281 2.523 2.523 0 0 0-.766-.109c-.469 0-.875.099-1.219.297a2.367 2.367 0 0 0-.828.781 3.876 3.876 0 0 0-.469 1.156c-.104.427-.156.88-.156 1.359v.204zm12.055 5.953h-1.516l5.532-14.407h1.515l-5.531 14.407zm15.446-1.141a2.037 2.037 0 0 1-.157-.469 5.685 5.685 0 0 1-.093-.609 4.41 4.41 0 0 1-.563.5 4.125 4.125 0 0 1-.703.391c-.25.114-.521.203-.812.265-.282.073-.579.11-.891.11a4.43 4.43 0 0 1-1.438-.219 3.344 3.344 0 0 1-1.062-.625 2.86 2.86 0 0 1-.688-.922 2.837 2.837 0 0 1-.234-1.156c0-.542.104-1.016.313-1.422.218-.406.526-.745.921-1.016.396-.271.87-.469 1.422-.594a8.047 8.047 0 0 1 1.875-.203h1.828v-.781c0-.302-.057-.568-.171-.797a1.65 1.65 0 0 0-.454-.609 2.139 2.139 0 0 0-.734-.391 3.053 3.053 0 0 0-.969-.14c-.333 0-.635.046-.906.14-.26.084-.484.198-.672.344a1.558 1.558 0 0 0-.422.484c-.093.188-.14.386-.14.594h-1.688c0-.354.089-.703.266-1.047a3.03 3.03 0 0 1 .781-.937 3.78 3.78 0 0 1 1.219-.672 5.107 5.107 0 0 1 1.656-.25 5.75 5.75 0 0 1 1.563.203c.479.135.89.344 1.234.625.354.271.63.615.828 1.031.198.406.297.886.297 1.438v4.578c0 .333.031.682.094 1.047.062.364.145.687.25.968v.141h-1.75zm-2.985-1.281c.334 0 .641-.042.922-.125.292-.094.552-.209.781-.344.23-.135.427-.292.594-.469a2.36 2.36 0 0 0 .406-.562v-2h-1.562c-.979 0-1.745.146-2.297.437-.542.292-.812.75-.812 1.375 0 .24.041.464.125.672.083.209.203.386.359.531.167.146.375.266.625.36.25.083.536.125.859.125zm16.024-3.531a7.08 7.08 0 0 1-.266 1.968 4.867 4.867 0 0 1-.75 1.594 3.531 3.531 0 0 1-1.218 1.063c-.48.25-1.026.375-1.641.375-.604 0-1.135-.099-1.594-.297a3.283 3.283 0 0 1-1.172-.844v4.75h-1.687v-13.656h1.531l.094 1.078a3.137 3.137 0 0 1 1.172-.922c.468-.219 1.01-.328 1.625-.328.635 0 1.192.125 1.672.375.489.239.895.583 1.218 1.031.334.438.584.969.75 1.594.177.614.266 1.286.266 2.015v.204zm-1.688-.204a5.25 5.25 0 0 0-.171-1.359 3.628 3.628 0 0 0-.485-1.156 2.322 2.322 0 0 0-.844-.781c-.333-.198-.739-.297-1.218-.297-.542 0-.995.125-1.36.375a2.81 2.81 0 0 0-.875.968v4.75c.219.386.511.704.875.954.365.25.823.375 1.375.375.469 0 .87-.099 1.203-.297.344-.198.625-.464.844-.797.219-.334.38-.719.485-1.156.114-.438.171-.896.171-1.375v-.204zm12.884.204a7.08 7.08 0 0 1-.266 1.968 4.908 4.908 0 0 1-.75 1.594 3.525 3.525 0 0 1-1.219 1.063c-.479.25-1.026.375-1.64.375-.605 0-1.136-.099-1.594-.297a3.274 3.274 0 0 1-1.172-.844v4.75h-1.688v-13.656h1.532l.093 1.078a3.145 3.145 0 0 1 1.172-.922c.469-.219 1.011-.328 1.625-.328.636 0 1.193.125 1.672.375.49.239.896.583 1.219 1.031.333.438.583.969.75 1.594.177.614.266 1.286.266 2.015v.204zm-1.688-.204c0-.479-.057-.932-.172-1.359a3.604 3.604 0 0 0-.484-1.156 2.322 2.322 0 0 0-.844-.781c-.333-.198-.74-.297-1.219-.297-.541 0-.995.125-1.359.375a2.8 2.8 0 0 0-.875.968v4.75c.219.386.51.704.875.954.364.25.823.375 1.375.375.469 0 .87-.099 1.203-.297.344-.198.625-.464.844-.797.219-.334.38-.719.484-1.156.115-.438.172-.896.172-1.375v-.204zm11.93-.093h-6.969v-1.391h6.969v1.391zm5.345-4.75l.125 1.453a3.76 3.76 0 0 1 1.313-1.188 3.526 3.526 0 0 1 1.75-.437c.521 0 .989.073 1.406.219.427.145.786.375 1.078.687.302.302.531.693.688 1.172.166.479.25 1.042.25 1.687v6.266h-1.688v-6.219c0-.437-.052-.807-.156-1.109a1.744 1.744 0 0 0-.422-.734 1.552 1.552 0 0 0-.703-.422 3.234 3.234 0 0 0-.953-.125c-.563 0-1.058.14-1.485.422-.427.281-.77.656-1.031 1.125v7.062h-1.687v-9.859h1.515zm16.165 9.859a2.037 2.037 0 0 1-.157-.469 5.685 5.685 0 0 1-.093-.609 4.41 4.41 0 0 1-.563.5 4.125 4.125 0 0 1-.703.391c-.25.114-.521.203-.813.265-.281.073-.578.11-.89.11a4.43 4.43 0 0 1-1.438-.219 3.344 3.344 0 0 1-1.062-.625 2.86 2.86 0 0 1-.688-.922 2.837 2.837 0 0 1-.234-1.156c0-.542.104-1.016.312-1.422a2.88 2.88 0 0 1 .922-1.016c.396-.271.87-.469 1.422-.594a8.047 8.047 0 0 1 1.875-.203h1.828v-.781c0-.302-.057-.568-.172-.797a1.636 1.636 0 0 0-.453-.609 2.139 2.139 0 0 0-.734-.391 3.053 3.053 0 0 0-.969-.14c-.333 0-.635.046-.906.14-.26.084-.484.198-.672.344a1.558 1.558 0 0 0-.422.484 1.31 1.31 0 0 0-.14.594h-1.688c0-.354.089-.703.266-1.047a3.03 3.03 0 0 1 .781-.937 3.78 3.78 0 0 1 1.219-.672 5.107 5.107 0 0 1 1.656-.25c.562 0 1.083.068 1.562.203.48.135.891.344 1.235.625.354.271.63.615.828 1.031.198.406.297.886.297 1.438v4.578c0 .333.031.682.094 1.047.062.364.145.687.25.968v.141h-1.75zm-2.985-1.281c.334 0 .641-.042.922-.125.292-.094.552-.209.781-.344.23-.135.427-.292.594-.469a2.36 2.36 0 0 0 .406-.562v-2h-1.562c-.979 0-1.745.146-2.297.437-.542.292-.813.75-.813 1.375 0 .24.042.464.125.672.084.209.204.386.36.531.167.146.375.266.625.36.25.083.536.125.859.125zm8.477-8.578l.047.937c.198-.354.458-.625.781-.812.333-.198.729-.297 1.188-.297.906 0 1.51.349 1.812 1.047.198-.313.453-.563.766-.75.323-.198.708-.297 1.156-.297.729 0 1.286.224 1.672.672.385.437.578 1.104.578 2v7.359h-1.594v-7.375c0-.833-.38-1.245-1.14-1.234-.198 0-.37.031-.516.093a1.12 1.12 0 0 0-.375.219 1.004 1.004 0 0 0-.219.328c-.052.125-.088.25-.109.375v7.594h-1.609v-7.391c0-.395-.089-.697-.266-.906-.177-.219-.453-.323-.828-.312-.354 0-.63.073-.828.218a1.237 1.237 0 0 0-.422.547v7.844h-1.61v-9.859h1.516zm14.774 10.047c-.688 0-1.323-.12-1.906-.36a4.51 4.51 0 0 1-1.5-.984 4.624 4.624 0 0 1-.954-1.516 5.17 5.17 0 0 1-.343-1.906v-.391c0-.791.125-1.5.375-2.125.26-.635.599-1.166 1.015-1.593a4.47 4.47 0 0 1 1.438-1 4.198 4.198 0 0 1 1.656-.344c.708 0 1.328.125 1.859.375a3.57 3.57 0 0 1 1.329 1.015c.354.428.614.938.781 1.532.177.583.265 1.218.265 1.906v.75h-7.031c.011.458.094.885.25 1.281.156.386.37.729.641 1.031.271.292.594.526.969.704.375.166.791.25 1.25.25.604 0 1.135-.12 1.593-.36.469-.25.86-.573 1.172-.969l1.031.797a3.93 3.93 0 0 1-.625.719c-.239.219-.52.417-.843.594a4.691 4.691 0 0 1-1.094.422 4.9 4.9 0 0 1-1.328.172zm-.219-8.844c-.344 0-.667.062-.969.187a2.487 2.487 0 0 0-.812.547 3.39 3.39 0 0 0-.625.891 3.989 3.989 0 0 0-.344 1.203h5.297v-.125a3.23 3.23 0 0 0-.188-.984 2.555 2.555 0 0 0-.468-.86 2.154 2.154 0 0 0-.766-.625c-.312-.156-.687-.234-1.125-.234zm9.289 9.797h-1.515l5.531-14.407h1.516l-5.532 14.407zm13.321-.953c-.688 0-1.323-.12-1.906-.36a4.51 4.51 0 0 1-1.5-.984 4.605 4.605 0 0 1-.953-1.516 5.15 5.15 0 0 1-.344-1.906v-.391c0-.791.125-1.5.375-2.125.26-.635.599-1.166 1.015-1.593a4.47 4.47 0 0 1 1.438-1 4.202 4.202 0 0 1 1.656-.344c.708 0 1.328.125 1.86.375.531.239.973.578 1.328 1.015.354.428.614.938.781 1.532.177.583.266 1.218.266 1.906v.75h-7.032c.011.458.094.885.25 1.281.157.386.37.729.641 1.031.271.292.594.526.969.704.375.166.791.25 1.25.25.604 0 1.135-.12 1.593-.36.469-.25.86-.573 1.172-.969l1.032.797a3.97 3.97 0 0 1-.625.719c-.24.219-.521.417-.844.594a4.691 4.691 0 0 1-1.094.422 4.9 4.9 0 0 1-1.328.172zm-.219-8.844c-.344 0-.667.062-.969.187a2.487 2.487 0 0 0-.812.547 3.39 3.39 0 0 0-.625.891 3.989 3.989 0 0 0-.344 1.203h5.297v-.125a3.228 3.228 0 0 0-.187-.984 2.574 2.574 0 0 0-.469-.86 2.154 2.154 0 0 0-.766-.625c-.312-.156-.687-.234-1.125-.234zm11.133 2.453l2.641-3.656h1.969l-3.672 4.875 3.765 4.984h-1.937l-2.735-3.75-2.718 3.75h-1.969l3.766-4.984-3.657-4.875h1.938l2.609 3.656zm15.446 1.391a7.08 7.08 0 0 1-.266 1.968 4.908 4.908 0 0 1-.75 1.594 3.525 3.525 0 0 1-1.219 1.063c-.479.25-1.026.375-1.64.375-.604 0-1.136-.099-1.594-.297a3.283 3.283 0 0 1-1.172-.844v4.75h-1.687v-13.656h1.531l.094 1.078a3.137 3.137 0 0 1 1.172-.922c.468-.219 1.01-.328 1.625-.328.635 0 1.192.125 1.671.375.49.239.896.583 1.219 1.031.333.438.583.969.75 1.594.177.614.266 1.286.266 2.015v.204zm-1.688-.204c0-.479-.057-.932-.172-1.359a3.604 3.604 0 0 0-.484-1.156 2.322 2.322 0 0 0-.844-.781c-.333-.198-.739-.297-1.218-.297-.542 0-.995.125-1.36.375a2.81 2.81 0 0 0-.875.968v4.75c.219.386.511.704.875.954.365.25.823.375 1.375.375.469 0 .87-.099 1.203-.297.344-.198.625-.464.844-.797.219-.334.38-.719.484-1.156.115-.438.172-.896.172-1.375v-.204zm8.915 5.204c-.688 0-1.323-.12-1.907-.36a4.531 4.531 0 0 1-1.5-.984 4.622 4.622 0 0 1-.953-1.516 5.171 5.171 0 0 1-.344-1.906v-.391c0-.791.125-1.5.375-2.125.261-.635.599-1.166 1.016-1.593a4.46 4.46 0 0 1 1.438-1 4.194 4.194 0 0 1 1.656-.344c.708 0 1.328.125 1.859.375.531.239.974.578 1.328 1.015.355.428.615.938.782 1.532.177.583.265 1.218.265 1.906v.75h-7.031c.01.458.094.885.25 1.281.156.386.37.729.641 1.031.27.292.593.526.968.704.375.166.792.25 1.25.25.605 0 1.136-.12 1.594-.36.469-.25.859-.573 1.172-.969l1.031.797a3.93 3.93 0 0 1-.625.719 4.305 4.305 0 0 1-.844.594 4.666 4.666 0 0 1-1.093.422 4.905 4.905 0 0 1-1.328.172zm-.219-8.844c-.344 0-.667.062-.969.187a2.487 2.487 0 0 0-.812.547 3.39 3.39 0 0 0-.625.891 3.96 3.96 0 0 0-.344 1.203h5.297v-.125a3.23 3.23 0 0 0-.188-.984 2.54 2.54 0 0 0-.469-.86 2.15 2.15 0 0 0-.765-.625c-.313-.156-.688-.234-1.125-.234zm13.524-1.375c.156 0 .317.005.484.015a3.915 3.915 0 0 1 .906.11c.136.031.25.068.344.109l-.234 1.641a7.938 7.938 0 0 0-.938-.156 8.473 8.473 0 0 0-.922-.047c-.791 0-1.432.182-1.922.547-.489.354-.849.849-1.078 1.484v6.328h-1.687v-9.859h1.593l.094 1.562a4.502 4.502 0 0 1 1.438-1.265c.562-.313 1.203-.469 1.922-.469zm4.992.172h5.047v8.406h3.219v1.453h-8.266v-1.453h3.359v-6.938h-3.359v-1.468zm3.141-2.578c0-.282.083-.516.25-.704.166-.197.421-.296.765-.296.334 0 .584.099.75.296.167.188.25.422.25.704 0 .27-.083.5-.25.687-.166.177-.416.266-.75.266-.344 0-.599-.089-.765-.266a.996.996 0 0 1-.25-.687zm8.57 2.578l.047.937c.198-.354.458-.625.781-.812.334-.198.729-.297 1.188-.297.906 0 1.51.349 1.812 1.047.198-.313.453-.563.766-.75.323-.198.708-.297 1.156-.297.729 0 1.287.224 1.672.672.385.437.578 1.104.578 2v7.359h-1.594v-7.375c0-.833-.38-1.245-1.14-1.234-.198 0-.37.031-.516.093a1.12 1.12 0 0 0-.375.219 1.02 1.02 0 0 0-.219.328c-.052.125-.088.25-.109.375v7.594h-1.609v-7.391c0-.395-.089-.697-.266-.906-.177-.219-.453-.323-.828-.312-.354 0-.63.073-.828.218a1.237 1.237 0 0 0-.422.547v7.844h-1.609v-9.859h1.515zm14.774 10.047c-.688 0-1.323-.12-1.906-.36a4.51 4.51 0 0 1-1.5-.984 4.624 4.624 0 0 1-.954-1.516 5.17 5.17 0 0 1-.343-1.906v-.391c0-.791.125-1.5.375-2.125.26-.635.599-1.166 1.015-1.593a4.47 4.47 0 0 1 1.438-1 4.202 4.202 0 0 1 1.656-.344c.708 0 1.328.125 1.859.375a3.57 3.57 0 0 1 1.329 1.015c.354.428.614.938.781 1.532.177.583.265 1.218.265 1.906v.75h-7.031c.011.458.094.885.25 1.281.156.386.37.729.641 1.031.271.292.594.526.969.704.375.166.791.25 1.25.25.604 0 1.135-.12 1.593-.36.469-.25.86-.573 1.172-.969l1.031.797a3.93 3.93 0 0 1-.625.719c-.239.219-.52.417-.843.594a4.691 4.691 0 0 1-1.094.422 4.9 4.9 0 0 1-1.328.172zm-.219-8.844c-.344 0-.667.062-.969.187a2.487 2.487 0 0 0-.812.547 3.39 3.39 0 0 0-.625.891 3.989 3.989 0 0 0-.344 1.203h5.297v-.125a3.2 3.2 0 0 0-.188-.984 2.555 2.555 0 0 0-.468-.86 2.154 2.154 0 0 0-.766-.625c-.312-.156-.687-.234-1.125-.234zm8.571-1.203l.125 1.453a3.757 3.757 0 0 1 1.312-1.188 3.526 3.526 0 0 1 1.75-.437c.521 0 .99.073 1.406.219.427.145.787.375 1.079.687.302.302.531.693.687 1.172.167.479.25 1.042.25 1.687v6.266h-1.687v-6.219c0-.437-.053-.807-.157-1.109a1.733 1.733 0 0 0-.422-.734 1.546 1.546 0 0 0-.703-.422 3.229 3.229 0 0 0-.953-.125c-.562 0-1.057.14-1.484.422a3.15 3.15 0 0 0-1.031 1.125v7.062h-1.688v-9.859h1.516zm13.68-2.391v2.391h3.75v1.312h-3.75v5.344c0 .385.046.703.14.953.094.25.224.448.391.594.177.146.375.25.594.312.229.063.468.094.718.094.177 0 .36-.01.547-.031.198-.021.391-.047.578-.078.188-.032.36-.063.516-.094.167-.031.302-.063.406-.094l.235 1.203a2.582 2.582 0 0 1-.516.219 4.905 4.905 0 0 1-.656.156 5.21 5.21 0 0 1-.75.11 6.617 6.617 0 0 1-.782.047 3.98 3.98 0 0 1-1.234-.188 2.57 2.57 0 0 1-.984-.594 2.87 2.87 0 0 1-.672-1.047c-.156-.427-.235-.947-.235-1.562v-5.344h-2.578v-1.312h2.578v-2.391h1.704zm14.57 7.141h-6.969v-1.391h6.969v1.391zm5.345-4.75l.125 1.453a3.769 3.769 0 0 1 1.313-1.188 3.526 3.526 0 0 1 1.75-.437c.521 0 .99.073 1.406.219.427.145.787.375 1.078.687.302.302.532.693.688 1.172.166.479.25 1.042.25 1.687v6.266h-1.688v-6.219c0-.437-.052-.807-.156-1.109a1.744 1.744 0 0 0-.422-.734 1.552 1.552 0 0 0-.703-.422 3.229 3.229 0 0 0-.953-.125c-.563 0-1.057.14-1.484.422a3.152 3.152 0 0 0-1.032 1.125v7.062h-1.687v-9.859h1.515zm16.165 9.859a1.993 1.993 0 0 1-.156-.469 5.685 5.685 0 0 1-.094-.609 4.342 4.342 0 0 1-.563.5 4.088 4.088 0 0 1-.703.391c-.25.114-.521.203-.812.265-.282.073-.578.11-.891.11-.531 0-1.01-.073-1.437-.219a3.338 3.338 0 0 1-1.063-.625 2.843 2.843 0 0 1-.687-.922 2.821 2.821 0 0 1-.235-1.156c0-.542.104-1.016.313-1.422a2.86 2.86 0 0 1 .922-1.016c.395-.271.869-.469 1.421-.594a8.047 8.047 0 0 1 1.875-.203h1.829v-.781c0-.302-.058-.568-.172-.797a1.647 1.647 0 0 0-.453-.609 2.144 2.144 0 0 0-.735-.391 3.053 3.053 0 0 0-.969-.14c-.333 0-.635.046-.906.14-.26.084-.484.198-.672.344a1.57 1.57 0 0 0-.422.484c-.093.188-.14.386-.14.594h-1.688c0-.354.089-.703.266-1.047a3.03 3.03 0 0 1 .781-.937 3.79 3.79 0 0 1 1.219-.672 5.116 5.116 0 0 1 1.656-.25c.563 0 1.084.068 1.563.203.479.135.89.344 1.234.625.354.271.63.615.828 1.031.198.406.297.886.297 1.438v4.578c0 .333.031.682.094 1.047.062.364.146.687.25.968v.141h-1.75zm-2.985-1.281c.334 0 .641-.042.922-.125a3.9 3.9 0 0 0 .782-.344 2.658 2.658 0 0 0 1-1.031v-2h-1.563c-.979 0-1.745.146-2.297.437-.541.292-.812.75-.812 1.375 0 .24.041.464.125.672.083.209.203.386.359.531.167.146.375.266.625.36.25.083.537.125.859.125zm8.477-8.578l.047.937c.198-.354.458-.625.781-.812.334-.198.73-.297 1.188-.297.906 0 1.51.349 1.812 1.047.198-.313.453-.563.766-.75.323-.198.708-.297 1.156-.297.729 0 1.287.224 1.672.672.386.437.578 1.104.578 2v7.359h-1.594v-7.375c0-.833-.38-1.245-1.14-1.234-.198 0-.37.031-.516.093a1.12 1.12 0 0 0-.375.219 1.02 1.02 0 0 0-.219.328c-.052.125-.088.25-.109.375v7.594h-1.609v-7.391c0-.395-.089-.697-.266-.906-.177-.219-.453-.323-.828-.312-.354 0-.63.073-.828.218a1.237 1.237 0 0 0-.422.547v7.844h-1.609v-9.859h1.515zm14.774 10.047c-.688 0-1.323-.12-1.906-.36a4.51 4.51 0 0 1-1.5-.984 4.605 4.605 0 0 1-.953-1.516 5.15 5.15 0 0 1-.344-1.906v-.391c0-.791.125-1.5.375-2.125.26-.635.599-1.166 1.015-1.593a4.47 4.47 0 0 1 1.438-1 4.202 4.202 0 0 1 1.656-.344c.708 0 1.328.125 1.86.375.531.239.973.578 1.328 1.015.354.428.614.938.781 1.532.177.583.266 1.218.266 1.906v.75h-7.032c.011.458.094.885.25 1.281.157.386.37.729.641 1.031.271.292.594.526.969.704.375.166.791.25 1.25.25.604 0 1.135-.12 1.593-.36.469-.25.86-.573 1.172-.969l1.032.797a3.97 3.97 0 0 1-.625.719c-.24.219-.521.417-.844.594a4.691 4.691 0 0 1-1.094.422 4.9 4.9 0 0 1-1.328.172zm-.219-8.844c-.344 0-.667.062-.969.187a2.487 2.487 0 0 0-.812.547 3.39 3.39 0 0 0-.625.891 3.989 3.989 0 0 0-.344 1.203h5.297v-.125a3.228 3.228 0 0 0-.187-.984 2.574 2.574 0 0 0-.469-.86 2.154 2.154 0 0 0-.766-.625c-.312-.156-.687-.234-1.125-.234zM12.266 16.353h6.859c1.365 0 2.38.057 3.047.171.667.115 1.26.355 1.781.719.531.354.974.833 1.328 1.438.354.593.532 1.26.532 2 0 .802-.219 1.541-.657 2.218a4.167 4.167 0 0 1-1.765 1.516c1.052.302 1.859.823 2.422 1.563.562.729.843 1.588.843 2.578a5.1 5.1 0 0 1-.547 2.281 4.643 4.643 0 0 1-1.5 1.781c-.625.438-1.395.703-2.312.797-.583.063-1.979.104-4.188.125h-5.843V16.353zm3.468 2.859v3.984H18c1.354 0 2.193-.021 2.516-.062.593-.073 1.062-.276 1.406-.61.344-.343.516-.791.516-1.343 0-.532-.152-.964-.454-1.297-.291-.334-.724-.537-1.296-.61-.344-.041-1.334-.062-2.969-.062h-1.985zm0 6.844v4.593h3.204c1.25 0 2.041-.036 2.375-.109.52-.094.942-.323 1.265-.687.323-.365.485-.849.485-1.454 0-.52-.125-.958-.375-1.312-.25-.365-.615-.625-1.094-.781-.469-.167-1.49-.25-3.063-.25h-2.797zm22.02 7.484v-1.859a4.924 4.924 0 0 1-1.797 1.562 4.966 4.966 0 0 1-2.328.578c-.844 0-1.599-.182-2.266-.547a3.38 3.38 0 0 1-1.437-1.546c-.292-.667-.438-1.589-.438-2.766v-7.875h3.297v5.719c0 1.75.057 2.823.172 3.218a1.8 1.8 0 0 0 .656.938c.323.229.735.344 1.235.344.562 0 1.062-.151 1.5-.453.448-.313.755-.698.922-1.157.166-.458.25-1.578.25-3.359v-5.25h3.281V33.54h-3.047zm6.457-14.141v-3.046h3.297v3.046h-3.297zm0 14.141V21.087h3.297V33.54h-3.297zm6.668 0V16.353h3.297V33.54h-3.297zm18.09 0h-3.063v-1.828c-.51.708-1.109 1.239-1.797 1.594a4.642 4.642 0 0 1-2.093.515c-1.427 0-2.651-.573-3.672-1.718-1.021-1.157-1.531-2.766-1.531-4.829 0-2.114.494-3.718 1.484-4.812 1-1.104 2.255-1.656 3.766-1.656 1.395 0 2.598.578 3.609 1.734v-6.187h3.297V33.54zm-8.797-6.5c0 1.333.187 2.297.562 2.891.532.854 1.271 1.281 2.219 1.281.761 0 1.406-.318 1.938-.953.531-.646.797-1.61.797-2.891-.001-1.437-.261-2.469-.782-3.094-.51-.625-1.166-.937-1.969-.937-.781 0-1.437.312-1.968.937-.532.615-.797 1.537-.797 2.766zm29.719.188l3.375 1.062c-.521 1.875-1.381 3.271-2.579 4.188-1.197.906-2.718 1.359-4.562 1.359-2.281 0-4.156-.781-5.625-2.344-1.469-1.562-2.203-3.693-2.203-6.39 0-2.865.734-5.084 2.203-6.657 1.479-1.583 3.422-2.375 5.828-2.375 2.104 0 3.813.62 5.125 1.86.781.729 1.37 1.781 1.766 3.156l-3.438.828c-.208-.896-.635-1.599-1.281-2.109-.635-.521-1.417-.782-2.344-.782-1.271 0-2.302.459-3.094 1.375-.791.917-1.187 2.396-1.187 4.438 0 2.177.391 3.729 1.172 4.656.781.917 1.797 1.375 3.047 1.375.916 0 1.708-.292 2.375-.875.666-.594 1.14-1.515 1.422-2.765zm5.566-.094c0-1.094.266-2.151.797-3.172a5.602 5.602 0 0 1 2.297-2.344c.989-.542 2.094-.812 3.312-.812 1.886 0 3.427.614 4.625 1.843 1.209 1.219 1.813 2.761 1.813 4.625 0 1.886-.61 3.448-1.828 4.688-1.219 1.239-2.75 1.859-4.594 1.859a7.338 7.338 0 0 1-3.266-.765 5.395 5.395 0 0 1-2.359-2.266c-.531-1-.797-2.219-.797-3.656zm3.375.187c0 1.229.292 2.172.875 2.828.583.657 1.307.985 2.172.985.854 0 1.573-.328 2.156-.985.583-.656.875-1.609.875-2.859 0-1.219-.292-2.156-.875-2.812-.583-.657-1.302-.985-2.156-.985-.865 0-1.589.328-2.172.985-.583.656-.875 1.604-.875 2.843zm23.363 6.219h-3.297v-6.359c0-1.344-.072-2.209-.218-2.594a1.772 1.772 0 0 0-.688-.922c-.312-.219-.687-.328-1.125-.328-.573 0-1.088.156-1.547.469a2.362 2.362 0 0 0-.922 1.25c-.166.51-.25 1.458-.25 2.843v5.641h-3.296V21.087h3.062v1.828c1.083-1.406 2.448-2.109 4.094-2.109.729 0 1.39.135 1.984.406.604.26 1.063.594 1.375 1 .313.406.526.87.641 1.391.125.51.187 1.244.187 2.203v7.734zm9.051-12.453v2.625h-2.25v5.016c0 1.02.021 1.614.063 1.781a.762.762 0 0 0 .281.422.991.991 0 0 0 .562.156c.302 0 .745-.104 1.328-.313l.282 2.547c-.771.334-1.641.5-2.61.5-.593 0-1.13-.099-1.609-.297-.469-.198-.818-.453-1.047-.765-.219-.323-.37-.755-.453-1.297-.073-.386-.109-1.156-.109-2.313v-5.437h-1.516v-2.625h1.516v-2.469l3.312-1.922v4.391h2.25zm4.742 3.797l-2.984-.531c.333-1.209.906-2.099 1.719-2.672.823-.584 2.047-.875 3.672-.875 1.468 0 2.562.177 3.281.531.719.344 1.224.786 1.515 1.328.292.531.438 1.51.438 2.938l-.031 3.843c0 1.094.052 1.901.156 2.422a6.88 6.88 0 0 0 .594 1.672h-3.266a14.186 14.186 0 0 1-.312-.969 2.554 2.554 0 0 0-.125-.39 6.172 6.172 0 0 1-1.813 1.234 5.12 5.12 0 0 1-2.031.406c-1.281 0-2.292-.349-3.031-1.047-.74-.698-1.11-1.578-1.11-2.64 0-.698.167-1.323.5-1.875a3.256 3.256 0 0 1 1.406-1.266c.615-.292 1.49-.547 2.625-.765 1.542-.292 2.61-.563 3.204-.813v-.328c0-.636-.157-1.083-.469-1.344-.313-.271-.901-.406-1.766-.406-.594 0-1.057.114-1.39.344-.323.229-.584.63-.782 1.203zm4.407 2.672c-.428.145-1.099.317-2.016.515-.906.188-1.5.375-1.781.563-.427.312-.641.703-.641 1.172 0 .458.172.854.516 1.187.343.333.781.5 1.312.5.594 0 1.156-.193 1.688-.578.406-.302.672-.667.797-1.094.083-.281.125-.817.125-1.609v-.656zm6.472-8.157v-3.046h3.297v3.046h-3.297zm0 14.141V21.087h3.297V33.54h-3.297zm17.996 0h-3.297v-6.359c0-1.344-.073-2.209-.218-2.594a1.772 1.772 0 0 0-.688-.922c-.312-.219-.687-.328-1.125-.328-.573 0-1.088.156-1.547.469a2.362 2.362 0 0 0-.922 1.25c-.166.51-.25 1.458-.25 2.843v5.641h-3.296V21.087h3.062v1.828c1.083-1.406 2.448-2.109 4.094-2.109.729 0 1.39.135 1.984.406.604.26 1.063.594 1.375 1 .313.406.526.87.641 1.391.125.51.187 1.244.187 2.203v7.734zm10.551-3.969l3.281.563c-.427 1.198-1.099 2.114-2.015 2.75-.907.625-2.042.937-3.407.937-2.166 0-3.765-.708-4.796-2.125-.823-1.135-1.235-2.562-1.235-4.281 0-2.062.537-3.677 1.61-4.844 1.083-1.177 2.447-1.765 4.093-1.765 1.854 0 3.313.614 4.375 1.843 1.073 1.219 1.589 3.089 1.547 5.61h-8.25c.021.979.287 1.739.797 2.281s1.141.813 1.891.813c.521 0 .953-.141 1.297-.422.354-.282.625-.735.812-1.36zm.188-3.328c-.032-.948-.282-1.667-.75-2.156-.469-.5-1.037-.75-1.704-.75-.718 0-1.312.26-1.781.781-.469.521-.698 1.229-.687 2.125h4.922zm9.097 7.297h-3.297V21.087h3.063v1.781c.521-.844.989-1.396 1.406-1.656a2.626 2.626 0 0 1 1.438-.406c.75 0 1.468.208 2.156.625l-1.016 2.875c-.552-.365-1.067-.547-1.547-.547-.458 0-.849.13-1.172.39-.322.25-.578.709-.765 1.375-.177.667-.266 2.058-.266 4.172v3.844z" fill-rule="nonzero"/><path d="M42.235 210.563l24.567-24.567 24.567 24.567H79.085v52.693h12.284l-24.567 24.567-24.567-24.567h12.283v-52.693H42.235z" fill="#d9ead3" stroke="#000"/><path fill="#f3f3f3" d="M14.256 54.209h391.402V92.54H14.256z"/><path d="M31.522 77.707c0-.552-.204-1.021-.61-1.406-.406-.396-1.057-.74-1.953-1.032a10.434 10.434 0 0 1-1.531-.609 5.02 5.02 0 0 1-1.172-.828 3.535 3.535 0 0 1-.75-1.094c-.177-.417-.266-.896-.266-1.437 0-.511.078-.969.235-1.375a3.221 3.221 0 0 1 1.687-1.829 4.594 4.594 0 0 1 1.344-.375v-2h1.359v2c1.021.136 1.813.563 2.375 1.282.563.718.849 1.698.86 2.937h-1.688c0-.406-.052-.781-.156-1.125a2.31 2.31 0 0 0-.438-.875 1.879 1.879 0 0 0-.703-.578 1.978 1.978 0 0 0-.953-.219c-.729 0-1.281.193-1.656.578-.375.386-.568.901-.578 1.547 0 .302.047.573.14.813.105.239.261.458.469.656.208.188.474.365.797.531.333.167.734.328 1.203.485.573.187 1.089.401 1.547.64.458.229.844.5 1.156.813.313.302.552.656.719 1.062.167.407.25.88.25 1.422a3.8 3.8 0 0 1-.25 1.422 3.171 3.171 0 0 1-.703 1.078 3.508 3.508 0 0 1-1.109.735 5.195 5.195 0 0 1-1.438.343v1.75H28.35v-1.734a5.533 5.533 0 0 1-1.375-.328 3.407 3.407 0 0 1-1.141-.735 3.846 3.846 0 0 1-.812-1.234c-.198-.49-.297-1.078-.297-1.766h1.687c0 .511.073.938.219 1.282.156.333.354.599.594.797.25.197.526.338.828.421.302.084.609.125.922.125.385 0 .734-.046 1.047-.14.322-.094.593-.235.812-.422.219-.188.385-.412.5-.672.125-.271.188-.573.188-.906zm19.906 2.234c.302 0 .599-.047.891-.14.292-.094.547-.23.766-.407.229-.177.411-.38.546-.609.136-.24.209-.495.219-.766h1.594a2.77 2.77 0 0 1-.344 1.266 3.535 3.535 0 0 1-.89 1.047 5.142 5.142 0 0 1-1.282.719 4.293 4.293 0 0 1-1.5.265c-.739 0-1.39-.135-1.953-.406a4.162 4.162 0 0 1-1.406-1.078 5.135 5.135 0 0 1-.844-1.563 6.198 6.198 0 0 1-.281-1.875v-.39c0-.646.094-1.266.281-1.86a4.906 4.906 0 0 1 .844-1.562 3.901 3.901 0 0 1 1.406-1.078c.563-.271 1.214-.407 1.953-.407.584 0 1.12.094 1.61.282.489.177.911.427 1.265.75.354.312.631.687.828 1.125.209.437.313.906.313 1.406H53.85a2.092 2.092 0 0 0-.203-.844 2.21 2.21 0 0 0-.516-.687 2.158 2.158 0 0 0-.75-.485 2.592 2.592 0 0 0-.953-.172c-.521 0-.958.105-1.312.313a2.515 2.515 0 0 0-.86.828 3.377 3.377 0 0 0-.468 1.141 5.657 5.657 0 0 0-.141 1.25v.39c0 .427.047.854.141 1.282.093.416.244.796.453 1.14.219.333.505.604.859.813.354.208.797.312 1.328.312zm6.68-3.828c0-.729.094-1.401.281-2.016.188-.625.448-1.156.782-1.593.343-.448.76-.792 1.25-1.032a3.518 3.518 0 0 1 1.625-.375c.593 0 1.109.099 1.547.297.448.188.828.474 1.14.86v-5.125h1.688v14h-1.547l-.063-1.032a3.356 3.356 0 0 1-1.187.907c-.448.208-.979.312-1.594.312a3.521 3.521 0 0 1-1.625-.375 3.864 3.864 0 0 1-1.234-1.062 5.423 5.423 0 0 1-.782-1.594 6.733 6.733 0 0 1-.281-1.969v-.203zm1.688.203c0 .479.052.932.156 1.36.104.427.26.807.469 1.14.218.323.495.583.828.781.333.188.734.282 1.203.282.292 0 .552-.032.781-.094a2.467 2.467 0 0 0 1.125-.734c.146-.178.271-.37.375-.579v-4.578a2.875 2.875 0 0 0-.89-.984c-.365-.261-.823-.391-1.375-.391-.469 0-.875.099-1.219.297-.333.188-.61.448-.828.781a3.83 3.83 0 0 0-.469 1.157c-.104.427-.156.88-.156 1.359v.203zm23.25 5.953h-1.515l5.531-14.406h1.516l-5.532 14.406zm17.321-5.953c0 .698-.089 1.354-.266 1.969a4.877 4.877 0 0 1-.75 1.594 3.561 3.561 0 0 1-1.203 1.062c-.479.25-1.031.375-1.656.375-.636 0-1.188-.109-1.656-.328a3.45 3.45 0 0 1-1.188-.984l-.078 1.125h-1.547v-14h1.688v5.203a3.175 3.175 0 0 1 1.156-.922c.458-.208.995-.313 1.609-.313.625 0 1.177.125 1.656.375.49.24.896.584 1.219 1.032.334.437.584.968.75 1.593.177.615.266 1.287.266 2.016v.203zm-1.688-.203c0-.479-.047-.932-.14-1.359a3.595 3.595 0 0 0-.453-1.157 2.26 2.26 0 0 0-.813-.781c-.333-.198-.739-.297-1.219-.297-.291 0-.562.042-.812.125-.24.073-.458.177-.656.313a2.412 2.412 0 0 0-.5.484 2.85 2.85 0 0 0-.375.594v4.312c.104.219.229.422.375.61.156.187.328.354.515.5.198.135.417.239.656.312.25.073.521.11.813.11.458 0 .854-.094 1.187-.282a2.42 2.42 0 0 0 .813-.781 3.59 3.59 0 0 0 .453-1.14c.104-.428.156-.881.156-1.36v-.203zm10.93 3.656a3.58 3.58 0 0 1-1.234 1.141c-.49.271-1.057.406-1.703.406-.521 0-.99-.078-1.406-.234a2.807 2.807 0 0 1-1.079-.766c-.291-.344-.52-.776-.687-1.297-.156-.521-.234-1.151-.234-1.89v-5.86h1.687v5.875c0 .542.042.99.125 1.344.083.344.208.62.375.828.177.208.385.36.625.453.25.084.536.125.859.125.688 0 1.24-.14 1.657-.422.427-.281.744-.656.953-1.125v-7.078h1.687v9.86h-1.531l-.094-1.36zm5.055-8.5h5.047v8.407h3.219v1.453h-8.266v-1.453h3.36v-6.938h-3.36v-1.469zm3.141-2.578c0-.281.083-.515.25-.703.167-.198.422-.297.765-.297.334 0 .584.099.75.297.167.188.25.422.25.703 0 .271-.083.5-.25.688-.166.177-.416.265-.75.265-.343 0-.598-.088-.765-.265a.998.998 0 0 1-.25-.688zm8.055-1.562h5.047v12.547h3.218v1.453h-8.265v-1.453h3.359V68.597h-3.359v-1.468zm10.617 8.984c0-.729.094-1.401.281-2.016.188-.625.448-1.156.782-1.593.343-.448.76-.792 1.25-1.032a3.518 3.518 0 0 1 1.625-.375c.593 0 1.109.099 1.547.297.448.188.828.474 1.14.86v-5.125h1.688v14h-1.547l-.063-1.032a3.356 3.356 0 0 1-1.187.907c-.448.208-.979.312-1.594.312a3.521 3.521 0 0 1-1.625-.375 3.864 3.864 0 0 1-1.234-1.062 5.423 5.423 0 0 1-.782-1.594 6.733 6.733 0 0 1-.281-1.969v-.203zm1.688.203c0 .479.052.932.156 1.36.104.427.26.807.469 1.14.219.323.495.583.828.781.333.188.734.282 1.203.282.292 0 .552-.032.781-.094a2.467 2.467 0 0 0 1.125-.734c.146-.178.271-.37.375-.579v-4.578a2.875 2.875 0 0 0-.89-.984c-.365-.261-.823-.391-1.375-.391-.469 0-.875.099-1.219.297-.333.188-.61.448-.828.781a3.83 3.83 0 0 0-.469 1.157c-.104.427-.156.88-.156 1.359v.203zm20.407 1.422c0-.417.062-.797.187-1.141.125-.343.297-.666.516-.968.218-.302.479-.589.781-.86.302-.271.641-.536 1.016-.797a9.776 9.776 0 0 1-.985-1.562 3.45 3.45 0 0 1-.359-1.531c0-.521.078-.98.234-1.375.156-.396.375-.73.656-1a2.864 2.864 0 0 1 1.032-.61 3.995 3.995 0 0 1 1.359-.218c.427 0 .818.078 1.172.234.354.146.651.349.891.609.25.261.442.563.578.907a2.8 2.8 0 0 1 .203 1.062c0 .323-.047.62-.141.891-.094.26-.229.505-.406.734a4.356 4.356 0 0 1-.594.656c-.229.209-.474.412-.734.61l-.86.734 2.797 3.656a5.39 5.39 0 0 0 .485-1.265c.125-.459.192-.959.203-1.5h1.515c0 .781-.109 1.505-.328 2.172a5.64 5.64 0 0 1-.968 1.796l1.656 2.157h-2.016l-.765-1a5.03 5.03 0 0 1-1.485.89 4.921 4.921 0 0 1-1.703.297 4.75 4.75 0 0 1-1.625-.265 3.714 3.714 0 0 1-1.25-.735 3.477 3.477 0 0 1-.781-1.14 3.606 3.606 0 0 1-.281-1.438zm3.937 2.203c.438 0 .854-.078 1.25-.234a3.88 3.88 0 0 0 1.125-.672l-2.937-3.922-.266.219c-.302.25-.547.495-.734.734a3.561 3.561 0 0 0-.438.656 3.23 3.23 0 0 0-.203.579 2.427 2.427 0 0 0 .094 1.296c.104.271.25.506.437.704.188.197.422.354.703.468.282.115.604.172.969.172zm-1.078-9.094c0 .344.073.693.219 1.047.156.354.369.729.64 1.125l1.063-.843c.198-.125.354-.256.469-.391.125-.146.218-.292.281-.438.073-.145.12-.291.14-.437a1.97 1.97 0 0 0 .047-.422c0-.177-.031-.354-.093-.531a1.15 1.15 0 0 0-.25-.453 1.177 1.177 0 0 0-.407-.313 1.113 1.113 0 0 0-.531-.125c-.26 0-.49.047-.687.141a1.421 1.421 0 0 0-.5.39c-.125.167-.224.36-.297.579a2.306 2.306 0 0 0-.094.671zm8.336 6.891c0-.417.063-.797.188-1.141.125-.343.296-.666.515-.968a5.48 5.48 0 0 1 .781-.86c.303-.271.641-.536 1.016-.797a9.694 9.694 0 0 1-.984-1.562c-.24-.49-.36-1-.36-1.531 0-.521.078-.98.235-1.375.156-.396.375-.73.656-1a2.86 2.86 0 0 1 1.031-.61 4 4 0 0 1 1.36-.218c.427 0 .817.078 1.171.234.355.146.652.349.891.609.25.261.443.563.578.907.136.333.203.687.203 1.062 0 .323-.047.62-.14.891a2.67 2.67 0 0 1-.407.734 4.295 4.295 0 0 1-.593.656c-.229.209-.474.412-.735.61l-.859.734 2.797 3.656c.208-.385.37-.807.484-1.265.125-.459.193-.959.203-1.5h1.516c0 .781-.109 1.505-.328 2.172a5.663 5.663 0 0 1-.969 1.796l1.656 2.157h-2.015l-.766-1a5.037 5.037 0 0 1-1.484.89 4.925 4.925 0 0 1-1.703.297 4.747 4.747 0 0 1-1.625-.265 3.704 3.704 0 0 1-1.25-.735 3.48 3.48 0 0 1-.782-1.14 3.623 3.623 0 0 1-.281-1.438zm3.938 2.203a3.38 3.38 0 0 0 1.25-.234 3.88 3.88 0 0 0 1.125-.672l-2.938-3.922-.266.219c-.302.25-.546.495-.734.734a3.604 3.604 0 0 0-.437.656 3.24 3.24 0 0 0-.204.579 2.417 2.417 0 0 0-.046.437c0 .302.046.589.14.859.104.271.25.506.438.704.187.197.422.354.703.468.281.115.604.172.969.172zm-1.079-9.094c0 .344.073.693.219 1.047.156.354.37.729.641 1.125l1.062-.843c.198-.125.355-.256.469-.391.125-.146.219-.292.281-.438a1.42 1.42 0 0 0 .141-.437c.031-.146.047-.287.047-.422 0-.177-.031-.354-.094-.531a1.126 1.126 0 0 0-.25-.453 1.174 1.174 0 0 0-.406-.313 1.113 1.113 0 0 0-.531-.125c-.261 0-.49.047-.688.141a1.43 1.43 0 0 0-.5.39c-.125.167-.224.36-.297.579a2.34 2.34 0 0 0-.094.671zm23.079 9.188c0-.177.026-.344.078-.5.063-.167.146-.307.25-.422a1.07 1.07 0 0 1 .422-.281 1.63 1.63 0 0 1 .578-.094c.219 0 .412.031.578.094a.952.952 0 0 1 .407.281c.114.115.198.255.25.422.062.156.093.323.093.5s-.031.344-.093.5a1.027 1.027 0 0 1-.25.406 1.03 1.03 0 0 1-.407.266 1.648 1.648 0 0 1-.578.094c-.219 0-.411-.032-.578-.094a1.17 1.17 0 0 1-.422-.266 1.341 1.341 0 0 1-.25-.406 1.573 1.573 0 0 1-.078-.5zm10.493 2.234h-1.516l5.531-14.406h1.516l-5.531 14.406zm17.32-5.953c0 .698-.088 1.354-.265 1.969a4.917 4.917 0 0 1-.75 1.594 3.555 3.555 0 0 1-1.204 1.062c-.479.25-1.031.375-1.656.375-.635 0-1.187-.109-1.656-.328a3.468 3.468 0 0 1-1.188-.984l-.078 1.125h-1.547v-14h1.688v5.203a3.175 3.175 0 0 1 1.156-.922c.458-.208.995-.313 1.61-.313.625 0 1.177.125 1.656.375.489.24.896.584 1.219 1.032.333.437.583.968.75 1.593.177.615.265 1.287.265 2.016v.203zm-1.687-.203a6.31 6.31 0 0 0-.141-1.359 3.595 3.595 0 0 0-.453-1.157 2.244 2.244 0 0 0-.813-.781c-.333-.198-.739-.297-1.218-.297-.292 0-.563.042-.813.125a2.377 2.377 0 0 0-.656.313 2.437 2.437 0 0 0-.5.484 2.85 2.85 0 0 0-.375.594v4.312c.104.219.229.422.375.61.156.187.328.354.516.5.197.135.416.239.656.312.25.073.521.11.812.11.459 0 .854-.094 1.188-.282.333-.198.604-.458.812-.781.209-.333.36-.713.453-1.14a5.69 5.69 0 0 0 .157-1.36v-.203zm10.93 3.656c-.334.49-.745.87-1.235 1.141-.489.271-1.057.406-1.703.406-.521 0-.99-.078-1.406-.234a2.804 2.804 0 0 1-1.078-.766c-.292-.344-.521-.776-.688-1.297-.156-.521-.234-1.151-.234-1.89v-5.86h1.687v5.875c0 .542.042.99.125 1.344.084.344.209.62.375.828.177.208.386.36.625.453a2.7 2.7 0 0 0 .86.125c.687 0 1.239-.14 1.656-.422.427-.281.745-.656.953-1.125v-7.078h1.688v9.86h-1.532l-.093-1.36zm5.055-8.5h5.046v8.407h3.219v1.453h-8.265v-1.453h3.359v-6.938h-3.359v-1.469zm3.14-2.578c0-.281.083-.515.25-.703.167-.198.422-.297.766-.297.333 0 .583.099.75.297.166.188.25.422.25.703 0 .271-.084.5-.25.688-.167.177-.417.265-.75.265-.344 0-.599-.088-.766-.265a.998.998 0 0 1-.25-.688zm8.055-1.562h5.047v12.547h3.219v1.453h-8.266v-1.453h3.359V68.597h-3.359v-1.468zm10.618 8.984c0-.729.093-1.401.281-2.016.187-.625.448-1.156.781-1.593.344-.448.76-.792 1.25-1.032a3.521 3.521 0 0 1 1.625-.375c.594 0 1.109.099 1.547.297.448.188.828.474 1.141.86v-5.125h1.687v14h-1.547l-.062-1.032a3.36 3.36 0 0 1-1.188.907c-.448.208-.979.312-1.594.312a3.524 3.524 0 0 1-1.625-.375 3.875 3.875 0 0 1-1.234-1.062 5.421 5.421 0 0 1-.781-1.594 6.7 6.7 0 0 1-.281-1.969v-.203zm1.687.203c0 .479.052.932.156 1.36.104.427.261.807.469 1.14.219.323.495.583.828.781.334.188.735.282 1.203.282.292 0 .552-.032.782-.094a2.484 2.484 0 0 0 1.125-.734c.145-.178.27-.37.375-.579v-4.578a2.877 2.877 0 0 0-.891-.984c-.365-.261-.823-.391-1.375-.391-.469 0-.875.099-1.219.297a2.385 2.385 0 0 0-.828.781 3.856 3.856 0 0 0-.469 1.157c-.104.427-.156.88-.156 1.359v.203zm17.196-.297h-6.969v-1.39h6.969v1.39zm10.314 5.11a2.054 2.054 0 0 1-.157-.469 5.948 5.948 0 0 1-.093-.609 4.418 4.418 0 0 1-.563.5 4.123 4.123 0 0 1-.703.39c-.25.115-.521.203-.812.266a3.542 3.542 0 0 1-.891.109c-.531 0-1.01-.073-1.438-.219a3.325 3.325 0 0 1-1.062-.625 2.846 2.846 0 0 1-.688-.921 2.842 2.842 0 0 1-.234-1.157c0-.541.104-1.015.313-1.422.218-.406.526-.744.921-1.015.396-.271.87-.469 1.422-.594a8.047 8.047 0 0 1 1.875-.203h1.828v-.781c0-.302-.057-.568-.171-.797a1.653 1.653 0 0 0-.454-.61 2.145 2.145 0 0 0-.734-.39 3.052 3.052 0 0 0-.969-.141c-.333 0-.635.047-.906.141-.26.083-.484.198-.672.344a1.546 1.546 0 0 0-.422.484c-.093.187-.14.385-.14.594h-1.688c0-.355.089-.703.266-1.047.187-.354.448-.667.781-.938.333-.281.74-.505 1.219-.672a5.135 5.135 0 0 1 1.656-.25 5.71 5.71 0 0 1 1.563.204c.479.135.89.343 1.234.625.354.27.63.614.828 1.031.198.406.297.885.297 1.437v4.578c0 .334.031.683.094 1.047.062.365.146.688.25.969v.141h-1.75zm-2.985-1.282c.334 0 .641-.041.922-.125a3.81 3.81 0 0 0 .781-.343 2.67 2.67 0 0 0 .594-.469c.177-.188.313-.375.406-.563v-2h-1.562c-.979 0-1.745.146-2.297.438-.542.292-.812.75-.812 1.375 0 .239.041.463.125.672.083.208.203.385.359.531.167.146.375.266.625.359.25.084.536.125.859.125zm16.024-3.531c0 .698-.089 1.354-.266 1.969a4.877 4.877 0 0 1-.75 1.594 3.518 3.518 0 0 1-1.218 1.062c-.48.25-1.026.375-1.641.375-.604 0-1.135-.099-1.594-.297a3.293 3.293 0 0 1-1.172-.843v4.75h-1.687V71.269h1.531l.094 1.078a3.134 3.134 0 0 1 1.172-.921c.468-.219 1.01-.329 1.625-.329.635 0 1.192.125 1.672.375.489.24.895.584 1.218 1.032.334.437.584.968.75 1.593.177.615.266 1.287.266 2.016v.203zm-1.688-.203a5.25 5.25 0 0 0-.171-1.359 3.633 3.633 0 0 0-.485-1.157 2.34 2.34 0 0 0-.844-.781c-.333-.198-.739-.297-1.218-.297-.542 0-.995.125-1.36.375-.364.25-.656.573-.875.969v4.75c.219.385.511.703.875.953.365.25.823.375 1.375.375.469 0 .87-.099 1.203-.297.344-.198.625-.463.844-.797.219-.333.38-.718.485-1.156a5.43 5.43 0 0 0 .171-1.375v-.203zm12.884.203c0 .698-.089 1.354-.266 1.969a4.917 4.917 0 0 1-.75 1.594 3.512 3.512 0 0 1-1.219 1.062c-.479.25-1.026.375-1.64.375-.605 0-1.136-.099-1.594-.297a3.284 3.284 0 0 1-1.172-.843v4.75h-1.688V71.269h1.532l.093 1.078a3.142 3.142 0 0 1 1.172-.921c.469-.219 1.011-.329 1.625-.329.636 0 1.193.125 1.672.375.49.24.896.584 1.219 1.032.333.437.583.968.75 1.593.177.615.266 1.287.266 2.016v.203zm-1.688-.203c0-.479-.057-.932-.172-1.359a3.61 3.61 0 0 0-.484-1.157 2.34 2.34 0 0 0-.844-.781c-.333-.198-.74-.297-1.219-.297-.541 0-.994.125-1.359.375s-.656.573-.875.969v4.75c.219.385.51.703.875.953s.823.375 1.375.375c.469 0 .87-.099 1.203-.297.344-.198.625-.463.844-.797.219-.333.38-.718.484-1.156.115-.437.172-.896.172-1.375v-.203z" fill-rule="nonzero"/></svg>