<svg viewBox="0 0 334 145" xmlns="http://www.w3.org/2000/svg" fill-rule="evenodd" clip-rule="evenodd" stroke-linejoin="round" stroke-miterlimit="1.414"><path fill="#d9ead3" d="M0 0h333.756v24.827H0z"/><path d="M7.595 17.19H6.364V9.35a6.7 6.7 0 0 1-1.172.856 7.99 7.99 0 0 1-1.289.632V9.643a7.32 7.32 0 0 0 1.805-1.172c.516-.461.879-.906 1.09-1.336h.797V17.19zm3.832 0v-1.406h1.407v1.406h-1.407zM32.049 17.366l2.906-10.36h.985l-2.895 10.36h-.996zm4.321-2.344l1.219-.187c.063.484.25.859.563 1.125.312.257.75.386 1.312.386.563 0 .981-.113 1.254-.34.273-.234.41-.507.41-.82 0-.273-.121-.492-.363-.656-.164-.11-.582-.246-1.254-.41-.906-.235-1.535-.434-1.887-.598a1.817 1.817 0 0 1-.785-.68 1.861 1.861 0 0 1-.269-.984c0-.32.074-.617.222-.891.149-.281.352-.511.61-.691.187-.141.445-.258.773-.352a3.682 3.682 0 0 1 1.066-.152c.571 0 1.071.082 1.5.246.43.164.746.387.95.668.211.281.355.656.433 1.125l-1.207.164c-.055-.375-.215-.668-.48-.879-.258-.211-.625-.316-1.102-.316-.57 0-.976.094-1.219.281-.234.188-.351.406-.351.656a.74.74 0 0 0 .14.434c.102.133.262.242.481.328.117.047.476.152 1.078.316.875.227 1.484.415 1.828.563.344.148.613.363.809.644.195.282.293.633.293 1.055 0 .414-.121.801-.364 1.16-.234.36-.578.641-1.031.844a3.848 3.848 0 0 1-1.535.293c-.937 0-1.656-.195-2.156-.586-.492-.391-.805-.973-.938-1.746zm12.457-.164l1.266.152c-.203.742-.574 1.321-1.113 1.735-.539.406-1.231.609-2.075.609-1.062 0-1.906-.324-2.531-.973-.617-.656-.926-1.574-.926-2.754 0-1.226.313-2.175.938-2.847.633-.672 1.449-1.008 2.449-1.008.969 0 1.758.332 2.367.996.618.656.926 1.582.926 2.777v.329h-5.414c.047.796.273 1.41.68 1.839.406.422.91.633 1.511.633.454 0 .84-.117 1.161-.351.32-.243.574-.621.761-1.137zm-4.043-1.992h4.055c-.055-.61-.211-1.067-.469-1.371-.39-.477-.898-.715-1.523-.715-.563 0-1.039.191-1.43.574-.383.375-.594.879-.633 1.512zm6.845 4.324V9.936h1.101v1.102c.281-.516.539-.856.774-1.02a1.39 1.39 0 0 1 .797-.246c.414 0 .835.133 1.265.398l-.422 1.137a1.76 1.76 0 0 0-.902-.269c-.274 0-.516.082-.727.246a1.368 1.368 0 0 0-.457.668c-.14.437-.211.918-.211 1.441v3.797h-1.218zm6.686 0L55.55 9.936h1.301l1.558 4.348c.164.468.321.953.469 1.453.102-.383.254-.84.457-1.371l1.605-4.43h1.266l-2.742 7.254h-1.149zm4.981-8.602V7.17h1.23v1.418h-1.23zm0 8.602V9.936h1.23v7.254h-1.23zm7.843-2.66l1.207.164c-.133.828-.473 1.48-1.02 1.957-.539.469-1.207.703-2.003.703-.993 0-1.79-.324-2.391-.973-.602-.648-.902-1.578-.902-2.789 0-.789.128-1.476.386-2.062.258-.586.653-1.024 1.184-1.313a3.493 3.493 0 0 1 1.734-.445c.789 0 1.434.199 1.934.598.5.398.82.965.961 1.699l-1.196.176c-.117-.485-.32-.848-.609-1.09a1.541 1.541 0 0 0-1.043-.375c-.617 0-1.121.222-1.512.668-.39.445-.586 1.148-.586 2.109 0 .977.188 1.688.563 2.133.375.437.863.656 1.465.656.484 0 .887-.148 1.207-.445.328-.297.535-.754.621-1.371zm7.23.328l1.266.152c-.203.742-.574 1.321-1.113 1.735-.539.406-1.231.609-2.074.609-1.063 0-1.907-.324-2.532-.973-.617-.656-.925-1.574-.925-2.754 0-1.226.312-2.175.937-2.847.633-.672 1.449-1.008 2.449-1.008.969 0 1.758.332 2.367.996.618.656.926 1.582.926 2.777v.329h-5.414c.047.796.274 1.41.68 1.839.406.422.91.633 1.512.633.453 0 .839-.117 1.16-.351.32-.243.574-.621.761-1.137zm-4.043-1.992h4.055c-.055-.61-.211-1.067-.469-1.371-.39-.477-.898-.715-1.523-.715-.563 0-1.039.191-1.43.574-.383.375-.593.879-.633 1.512zm6.364 2.156l1.219-.187c.063.484.25.859.563 1.125.312.257.75.386 1.312.386.563 0 .98-.113 1.254-.34.273-.234.41-.507.41-.82 0-.273-.121-.492-.363-.656-.164-.11-.582-.246-1.254-.41-.906-.235-1.535-.434-1.887-.598a1.817 1.817 0 0 1-.785-.68 1.862 1.862 0 0 1-.27-.984c0-.32.075-.617.223-.891.149-.281.352-.511.61-.691.187-.141.445-.258.773-.352a3.682 3.682 0 0 1 1.066-.152c.571 0 1.071.082 1.5.246.43.164.746.387.95.668.211.281.355.656.433 1.125l-1.207.164c-.055-.375-.215-.668-.48-.879-.258-.211-.625-.316-1.102-.316-.57 0-.976.094-1.219.281-.234.188-.351.406-.351.656a.74.74 0 0 0 .14.434c.102.133.262.242.481.328.117.047.476.152 1.078.316.875.227 1.484.415 1.828.563.344.148.613.363.809.644.195.282.293.633.293 1.055 0 .414-.121.801-.364 1.16-.234.36-.578.641-1.031.844a3.848 3.848 0 0 1-1.535.293c-.937 0-1.656-.195-2.156-.586-.492-.391-.805-.973-.938-1.746zm6.563 2.344l2.906-10.36h.984l-2.894 10.36h-.996zm9.512-.176v-.914c-.453.719-1.129 1.078-2.027 1.078-.578 0-1.109-.16-1.594-.48a3.168 3.168 0 0 1-1.125-1.336c-.265-.571-.398-1.227-.398-1.969 0-.727.121-1.383.363-1.969.242-.594.602-1.047 1.078-1.359a2.935 2.935 0 0 1 1.629-.469c.438 0 .824.094 1.16.281.344.18.621.418.832.715V7.17h1.231v10.02h-1.149zm-3.879-3.621c0 .93.196 1.625.586 2.086.391.461.852.691 1.383.691.539 0 .996-.219 1.371-.656.375-.445.563-1.117.563-2.016 0-.992-.192-1.718-.575-2.179-.382-.469-.855-.703-1.418-.703-.539 0-.992.222-1.359.668-.367.445-.551 1.148-.551 2.109zm6.505-.012c0-1.344.371-2.336 1.113-2.976.625-.539 1.387-.809 2.285-.809 1 0 1.817.328 2.449.984.633.649.95 1.551.95 2.707 0 .93-.141 1.664-.422 2.204a2.994 2.994 0 0 1-1.231 1.242 3.516 3.516 0 0 1-1.746.445c-1.015 0-1.836-.324-2.461-.973-.625-.656-.937-1.597-.937-2.824zm1.265 0c0 .93.2 1.629.598 2.098.406.461.918.691 1.535.691.61 0 1.117-.23 1.524-.691.406-.469.609-1.18.609-2.133 0-.898-.203-1.578-.609-2.039a1.947 1.947 0 0 0-1.524-.691c-.617 0-1.129.23-1.535.691-.398.453-.598 1.144-.598 2.074zm11.708.973l1.207.164c-.133.828-.473 1.48-1.02 1.957-.539.469-1.207.703-2.003.703-.993 0-1.789-.324-2.391-.973-.602-.648-.902-1.578-.902-2.789 0-.789.129-1.476.386-2.062.258-.586.653-1.024 1.184-1.313a3.493 3.493 0 0 1 1.734-.445c.789 0 1.434.199 1.934.598.5.398.82.965.961 1.699l-1.195.176c-.118-.485-.321-.848-.61-1.09a1.541 1.541 0 0 0-1.043-.375c-.617 0-1.121.222-1.512.668-.39.445-.585 1.148-.585 2.109 0 .977.187 1.688.562 2.133.375.437.863.656 1.465.656.484 0 .887-.148 1.207-.445.328-.297.535-.754.621-1.371zm2.262 2.66V7.17h1.23v5.719l2.918-2.953h1.582l-2.765 2.695 3.046 4.559h-1.511l-2.403-3.715-.867.844v2.871h-1.23zm11.965-2.332l1.265.152c-.203.742-.574 1.321-1.113 1.735-.539.406-1.231.609-2.074.609-1.063 0-1.907-.324-2.532-.973-.617-.656-.925-1.574-.925-2.754 0-1.226.312-2.175.937-2.847.633-.672 1.449-1.008 2.449-1.008.969 0 1.758.332 2.368.996.617.656.925 1.582.925 2.777v.329h-5.414c.047.796.274 1.41.68 1.839.406.422.91.633 1.512.633.453 0 .84-.117 1.16-.351.32-.243.574-.621.762-1.137zm-4.043-1.992h4.054c-.054-.61-.211-1.067-.468-1.371-.391-.477-.899-.715-1.524-.715-.562 0-1.039.191-1.43.574-.382.375-.593.879-.632 1.512zm6.844 4.324V9.936h1.101v1.102c.282-.516.539-.856.774-1.02.242-.164.508-.246.797-.246.414 0 .836.133 1.265.398l-.422 1.137a1.76 1.76 0 0 0-.902-.269 1.15 1.15 0 0 0-.726.246 1.361 1.361 0 0 0-.457.668 4.676 4.676 0 0 0-.211 1.441v3.797h-1.219zm3.745.176l2.907-10.36h.984l-2.895 10.36h-.996zm4.814 2.601V9.936h1.113v.938c.265-.368.562-.641.89-.821.336-.187.743-.281 1.219-.281.617 0 1.16.16 1.629.48.477.313.836.762 1.078 1.348a4.9 4.9 0 0 1 .364 1.91c0 .742-.133 1.41-.399 2.004-.266.594-.652 1.051-1.16 1.371a3.012 3.012 0 0 1-1.606.469c-.406 0-.773-.086-1.101-.258a2.363 2.363 0 0 1-.797-.656v3.527h-1.23zm1.113-6.363c0 .93.187 1.621.562 2.074.383.446.84.668 1.371.668.547 0 1.016-.23 1.407-.691.39-.469.586-1.188.586-2.156 0-.922-.192-1.614-.575-2.075-.375-.461-.828-.691-1.359-.691-.523 0-.988.246-1.395.738-.398.485-.597 1.196-.597 2.133zm6.211-.047c0-1.344.371-2.336 1.114-2.976.625-.539 1.386-.809 2.285-.809 1 0 1.816.328 2.449.984.633.649.949 1.551.949 2.707 0 .93-.14 1.664-.422 2.204a2.992 2.992 0 0 1-1.23 1.242 3.516 3.516 0 0 1-1.746.445c-1.016 0-1.836-.324-2.461-.973-.625-.656-.938-1.597-.938-2.824zm1.266 0c0 .93.199 1.629.598 2.098.406.461.918.691 1.535.691.609 0 1.117-.23 1.523-.691.406-.469.61-1.18.61-2.133 0-.898-.204-1.578-.61-2.039a1.945 1.945 0 0 0-1.523-.691c-.617 0-1.129.23-1.535.691-.399.453-.598 1.144-.598 2.074zm6.481 1.465l1.219-.187c.062.484.25.859.562 1.125.313.257.75.386 1.313.386.562 0 .98-.113 1.254-.34.273-.234.41-.507.41-.82 0-.273-.121-.492-.364-.656-.164-.11-.582-.246-1.253-.41-.907-.235-1.536-.434-1.887-.598a1.812 1.812 0 0 1-.785-.68 1.862 1.862 0 0 1-.27-.984c0-.32.074-.617.223-.891.148-.281.351-.511.609-.691.188-.141.446-.258.774-.352a3.682 3.682 0 0 1 1.066-.152c.57 0 1.07.082 1.5.246.43.164.746.387.949.668.211.281.356.656.434 1.125l-1.207.164c-.055-.375-.215-.668-.481-.879-.257-.211-.625-.316-1.101-.316-.571 0-.977.094-1.219.281-.234.188-.352.406-.352.656 0 .157.047.301.141.434.102.133.262.242.481.328.117.047.476.152 1.078.316.875.227 1.484.415 1.828.563.344.148.613.363.808.644.196.282.293.633.293 1.055 0 .414-.121.801-.363 1.16-.234.36-.578.641-1.031.844a3.848 3.848 0 0 1-1.535.293c-.938 0-1.657-.195-2.157-.586-.492-.391-.804-.973-.937-1.746zm10.172 1.066l.176 1.09a4.629 4.629 0 0 1-.926.106c-.445 0-.793-.071-1.043-.211a1.209 1.209 0 0 1-.516-.551c-.101-.234-.152-.719-.152-1.453v-4.184h-.902v-.949h.902V8.143l1.219-.738v2.531h1.242v.949h-1.242v4.254c0 .344.019.567.058.668a.579.579 0 0 0 .211.246c.102.055.246.082.434.082.133 0 .312-.015.539-.047zm.969 1.7l1.196.175c.054.375.195.645.422.809.304.227.722.34 1.253.34.571 0 1.008-.113 1.313-.34.312-.227.523-.543.633-.949.062-.25.09-.778.082-1.582-.531.633-1.199.949-2.004.949-1 0-1.774-.359-2.32-1.078-.547-.719-.821-1.582-.821-2.59 0-.695.125-1.336.375-1.922.258-.586.621-1.035 1.09-1.348.477-.32 1.039-.48 1.688-.48.851 0 1.554.344 2.109 1.031v-.867h1.137v6.27c0 1.132-.118 1.933-.352 2.402-.226.469-.59.84-1.09 1.113-.492.274-1.105.41-1.84.41-.859 0-1.558-.195-2.097-.586-.531-.382-.789-.968-.774-1.757zm1.02-4.36c0 .953.187 1.649.562 2.086.383.438.86.656 1.43.656.563 0 1.035-.214 1.418-.644.383-.438.574-1.121.574-2.051 0-.89-.199-1.558-.597-2.004-.391-.453-.864-.679-1.418-.679-.547 0-1.012.222-1.395.668-.383.437-.574 1.093-.574 1.968zm6.985 3.762V9.936h1.101v1.102c.282-.516.539-.856.774-1.02.242-.164.508-.246.797-.246.414 0 .836.133 1.265.398l-.422 1.137a1.76 1.76 0 0 0-.902-.269c-.273 0-.516.082-.727.246-.21.164-.363.386-.457.668-.14.437-.21.918-.21 1.441v3.797h-1.219zm9.64-2.332l1.265.152c-.203.742-.574 1.321-1.113 1.735-.539.406-1.23.609-2.074.609-1.063 0-1.906-.324-2.531-.973-.618-.656-.926-1.574-.926-2.754 0-1.226.312-2.175.937-2.847.633-.672 1.45-1.008 2.45-1.008.968 0 1.757.332 2.367.996.617.656.926 1.582.926 2.777v.329h-5.415c.047.796.274 1.41.68 1.839.406.422.91.633 1.512.633.453 0 .84-.117 1.16-.351.32-.243.574-.621.762-1.137zm-4.043-1.992h4.054c-.054-.61-.21-1.067-.468-1.371-.391-.477-.899-.715-1.524-.715-.562 0-1.039.191-1.429.574-.383.375-.594.879-.633 1.512zm6.364 2.156l1.218-.187c.063.484.25.859.563 1.125.312.257.75.386 1.312.386.563 0 .981-.113 1.254-.34.274-.234.41-.507.41-.82 0-.273-.121-.492-.363-.656-.164-.11-.582-.246-1.254-.41-.906-.235-1.535-.434-1.886-.598a1.82 1.82 0 0 1-.786-.68 1.87 1.87 0 0 1-.269-.984c0-.32.074-.617.222-.891.149-.281.352-.511.61-.691.187-.141.445-.258.773-.352A3.69 3.69 0 0 1 187 9.772c.57 0 1.07.082 1.5.246.429.164.746.387.949.668.211.281.355.656.434 1.125l-1.208.164c-.054-.375-.214-.668-.48-.879-.258-.211-.625-.316-1.102-.316-.57 0-.976.094-1.218.281-.235.188-.352.406-.352.656 0 .157.047.301.141.434.101.133.261.242.48.328.117.047.477.152 1.078.316.875.227 1.485.415 1.828.563.344.148.614.363.809.644.195.282.293.633.293 1.055 0 .414-.121.801-.363 1.16-.235.36-.578.641-1.031.844a3.853 3.853 0 0 1-1.536.293c-.937 0-1.656-.195-2.156-.586-.492-.391-.805-.973-.937-1.746zm12.105 4.945v-3.55c-.187.273-.453.5-.797.679a2.429 2.429 0 0 1-1.101.258c-.86 0-1.602-.344-2.227-1.031-.617-.688-.926-1.629-.926-2.824 0-.735.125-1.391.375-1.969.258-.578.625-1.016 1.102-1.313a2.97 2.97 0 0 1 1.582-.445c.898 0 1.605.379 2.121 1.137v-.973h1.102v10.031h-1.231zm-3.785-6.422c0 .93.195 1.629.586 2.098.39.469.859.703 1.406.703.524 0 .973-.222 1.348-.668.383-.445.574-1.121.574-2.027 0-.969-.199-1.695-.598-2.18-.398-.484-.867-.726-1.406-.726-.531 0-.984.226-1.359.679-.367.453-.551 1.161-.551 2.121zm6.915 3.645V7.17h1.23v10.02h-1.23zm2.218.176l2.906-10.36h.984l-2.894 10.36h-.996zm9.547-1.067c-.461.383-.902.657-1.324.821a3.791 3.791 0 0 1-1.348.234c-.797 0-1.41-.195-1.84-.586-.429-.391-.644-.887-.644-1.488 0-.36.082-.684.246-.973.164-.297.375-.531.633-.703.265-.18.562-.316.89-.41a9.07 9.07 0 0 1 1.09-.188c.992-.117 1.723-.257 2.192-.421.007-.172.011-.278.011-.317 0-.5-.117-.855-.351-1.066-.313-.274-.781-.41-1.406-.41-.579 0-1.004.101-1.278.304-.273.203-.476.559-.609 1.067l-1.207-.164c.109-.508.289-.918.539-1.231.25-.32.613-.566 1.09-.738.476-.172 1.023-.258 1.64-.258.625 0 1.129.074 1.512.223.391.14.676.324.856.55.187.219.316.497.386.832.039.211.059.59.059 1.137v1.641c0 1.14.027 1.863.082 2.168.055.297.156.586.305.867h-1.278a2.41 2.41 0 0 1-.246-.891zm-.105-2.754c-.446.188-1.114.344-2.004.469-.508.071-.867.153-1.078.246a1.147 1.147 0 0 0-.493.399 1.071 1.071 0 0 0-.164.586c0 .328.125.601.375.82.25.219.614.328 1.09.328.469 0 .887-.101 1.254-.305a1.92 1.92 0 0 0 .82-.855c.133-.281.2-.691.2-1.231v-.457zm3.153 6.422V9.936h1.113v.938c.265-.368.562-.641.89-.821.336-.187.743-.281 1.219-.281.617 0 1.16.16 1.629.48.477.313.836.762 1.078 1.348a4.9 4.9 0 0 1 .364 1.91c0 .742-.133 1.41-.399 2.004-.266.594-.652 1.051-1.16 1.371a3.012 3.012 0 0 1-1.606.469c-.406 0-.773-.086-1.101-.258a2.363 2.363 0 0 1-.797-.656v3.527h-1.23zm1.113-6.363c0 .93.187 1.621.562 2.074.383.446.84.668 1.371.668.547 0 1.016-.23 1.407-.691.39-.469.586-1.188.586-2.156 0-.922-.192-1.614-.575-2.075-.375-.461-.828-.691-1.359-.691-.523 0-.988.246-1.395.738-.398.485-.597 1.196-.597 2.133zm6.668 6.363V9.936h1.114v.938c.265-.368.562-.641.89-.821.336-.187.742-.281 1.219-.281.617 0 1.16.16 1.629.48.476.313.836.762 1.078 1.348.242.578.363 1.215.363 1.91 0 .742-.133 1.41-.398 2.004-.266.594-.652 1.051-1.16 1.371a3.012 3.012 0 0 1-1.606.469c-.406 0-.773-.086-1.101-.258a2.363 2.363 0 0 1-.797-.656v3.527h-1.231zm1.114-6.363c0 .93.187 1.621.562 2.074.383.446.84.668 1.371.668.547 0 1.016-.23 1.406-.691.391-.469.586-1.188.586-2.156 0-.922-.191-1.614-.574-2.075-.375-.461-.828-.691-1.359-.691-.524 0-.988.246-1.395.738-.398.485-.597 1.196-.597 2.133zm6.188.574v-1.23h3.773v1.23h-3.773zm5.14 3.012V9.936h1.101v1.031c.531-.797 1.301-1.195 2.309-1.195.437 0 .84.078 1.207.234.367.157.64.364.82.621.188.25.317.551.387.903.047.226.07.625.07 1.195v4.465h-1.23v-4.418c0-.5-.051-.871-.153-1.113a1.167 1.167 0 0 0-.504-.598 1.607 1.607 0 0 0-.855-.223c-.523 0-.977.168-1.359.504-.375.328-.563.957-.563 1.887v3.961h-1.23zm12.516-.891c-.461.383-.903.657-1.324.821a3.795 3.795 0 0 1-1.348.234c-.797 0-1.41-.195-1.84-.586-.43-.391-.644-.887-.644-1.488 0-.36.082-.684.246-.973.164-.297.375-.531.632-.703a3.1 3.1 0 0 1 .891-.41 9.032 9.032 0 0 1 1.09-.188c.992-.117 1.723-.257 2.191-.421.008-.172.012-.278.012-.317 0-.5-.117-.855-.352-1.066-.312-.274-.781-.41-1.406-.41-.578 0-1.004.101-1.277.304-.274.203-.477.559-.609 1.067l-1.208-.164c.11-.508.29-.918.54-1.231.25-.32.613-.566 1.089-.738.477-.172 1.024-.258 1.641-.258.625 0 1.129.074 1.512.223.39.14.676.324.855.55.188.219.317.497.387.832.039.211.059.59.059 1.137v1.641c0 1.14.027 1.863.082 2.168.054.297.156.586.304.867h-1.277a2.41 2.41 0 0 1-.246-.891zm-.106-2.754c-.445.188-1.113.344-2.004.469-.507.071-.867.153-1.078.246a1.138 1.138 0 0 0-.492.399 1.071 1.071 0 0 0-.164.586c0 .328.125.601.375.82.25.219.613.328 1.09.328.469 0 .887-.101 1.254-.305.375-.211.648-.496.82-.855.133-.281.199-.691.199-1.231v-.457zm3.153 3.645V9.936h1.102v1.02a2.55 2.55 0 0 1 2.191-1.184c.539 0 .981.113 1.324.34.344.219.586.527.727.926.578-.844 1.324-1.266 2.238-1.266.727 0 1.281.199 1.664.598.391.398.586 1.011.586 1.84v4.98h-1.23v-4.57c0-.493-.039-.844-.117-1.055a1.017 1.017 0 0 0-.434-.527 1.355 1.355 0 0 0-.738-.2c-.508 0-.93.172-1.266.516-.336.336-.504.875-.504 1.617v4.219h-1.23v-4.711c0-.547-.102-.957-.305-1.23-.203-.274-.531-.411-.984-.411-.344 0-.664.09-.961.27a1.53 1.53 0 0 0-.645.797c-.125.351-.187.859-.187 1.523v3.762h-1.231zm16.625-2.332l1.265.152c-.203.742-.574 1.321-1.113 1.735-.539.406-1.231.609-2.074.609-1.063 0-1.907-.324-2.532-.973-.617-.656-.925-1.574-.925-2.754 0-1.226.312-2.175.937-2.847.633-.672 1.449-1.008 2.449-1.008.969 0 1.758.332 2.368.996.617.656.925 1.582.925 2.777v.329h-5.414c.047.796.274 1.41.68 1.839.406.422.91.633 1.512.633.453 0 .84-.117 1.16-.351.32-.243.574-.621.762-1.137zm-4.043-1.992h4.054c-.054-.61-.211-1.067-.468-1.371-.391-.477-.899-.715-1.524-.715-.562 0-1.039.191-1.43.574-.382.375-.593.879-.632 1.512zm11.145 4.324h-1.231V9.35a6.7 6.7 0 0 1-1.172.856 7.99 7.99 0 0 1-1.289.632V9.643a7.32 7.32 0 0 0 1.805-1.172c.516-.461.879-.906 1.09-1.336h.797V17.19zM9.423 41.506v1.184H2.802a2.266 2.266 0 0 1 .14-.855c.172-.454.442-.899.809-1.336.375-.438.914-.942 1.617-1.512 1.086-.891 1.821-1.598 2.203-2.121.383-.524.575-1.016.575-1.477 0-.492-.176-.902-.528-1.23-.344-.336-.797-.504-1.359-.504-.594 0-1.07.18-1.43.539-.351.351-.527.84-.527 1.465l-1.266-.129c.086-.945.41-1.664.973-2.156.57-.493 1.328-.739 2.273-.739.961 0 1.723.266 2.285.797.563.531.844 1.192.844 1.981 0 .398-.082.793-.246 1.183-.164.391-.437.801-.82 1.231-.375.422-1.008 1.008-1.899 1.758-.734.617-1.207 1.039-1.418 1.265a3.822 3.822 0 0 0-.515.656h4.91zm2.004 1.184v-1.406h1.407v1.406h-1.407zM32.049 42.866l2.906-10.36h.985l-2.895 10.36h-.996zm4.321-2.344l1.219-.187c.063.484.25.859.563 1.125.312.257.75.386 1.312.386.563 0 .981-.113 1.254-.34.273-.234.41-.507.41-.82 0-.273-.121-.492-.363-.656-.164-.11-.582-.246-1.254-.41-.906-.235-1.535-.434-1.887-.598a1.817 1.817 0 0 1-.785-.68 1.861 1.861 0 0 1-.269-.984c0-.32.074-.617.222-.891.149-.281.352-.511.61-.691.187-.141.445-.258.773-.352a3.682 3.682 0 0 1 1.066-.152c.571 0 1.071.082 1.5.246.43.164.746.387.95.668.211.281.355.656.433 1.125l-1.207.164c-.055-.375-.215-.668-.48-.879-.258-.211-.625-.316-1.102-.316-.57 0-.976.094-1.219.281-.234.188-.351.406-.351.656a.74.74 0 0 0 .14.434c.102.133.262.242.481.328.117.047.476.152 1.078.316.875.227 1.484.415 1.828.563.344.148.613.363.809.644.195.282.293.633.293 1.055 0 .414-.121.801-.364 1.16-.234.36-.578.641-1.031.844a3.848 3.848 0 0 1-1.535.293c-.937 0-1.656-.195-2.156-.586-.492-.391-.805-.973-.938-1.746zm12.457-.164l1.266.152c-.203.742-.574 1.321-1.113 1.735-.539.406-1.231.609-2.075.609-1.062 0-1.906-.324-2.531-.973-.617-.656-.926-1.574-.926-2.754 0-1.226.313-2.175.938-2.847.633-.672 1.449-1.008 2.449-1.008.969 0 1.758.332 2.367.996.618.656.926 1.582.926 2.777v.329h-5.414c.047.796.273 1.41.68 1.839.406.422.91.633 1.511.633.454 0 .84-.117 1.161-.351.32-.243.574-.621.761-1.137zm-4.043-1.992h4.055c-.055-.61-.211-1.067-.469-1.371-.39-.477-.898-.715-1.523-.715-.563 0-1.039.191-1.43.574-.383.375-.594.879-.633 1.512zm6.845 4.324v-7.254h1.101v1.102c.281-.516.539-.856.774-1.02a1.39 1.39 0 0 1 .797-.246c.414 0 .835.133 1.265.398l-.422 1.137a1.76 1.76 0 0 0-.902-.269c-.274 0-.516.082-.727.246a1.368 1.368 0 0 0-.457.668c-.14.437-.211.918-.211 1.441v3.797h-1.218zm6.686 0l-2.765-7.254h1.301l1.558 4.348c.164.468.321.953.469 1.453.102-.383.254-.84.457-1.371l1.605-4.43h1.266l-2.742 7.254h-1.149zm4.981-8.602V32.67h1.23v1.418h-1.23zm0 8.602v-7.254h1.23v7.254h-1.23zm7.843-2.66l1.207.164c-.133.828-.473 1.48-1.02 1.957-.539.469-1.207.703-2.003.703-.993 0-1.79-.324-2.391-.973-.602-.648-.902-1.578-.902-2.789 0-.789.128-1.476.386-2.062.258-.586.653-1.024 1.184-1.313a3.493 3.493 0 0 1 1.734-.445c.789 0 1.434.199 1.934.598.5.398.82.965.961 1.699l-1.196.176c-.117-.485-.32-.848-.609-1.09a1.541 1.541 0 0 0-1.043-.375c-.617 0-1.121.222-1.512.668-.39.445-.586 1.148-.586 2.109 0 .977.188 1.688.563 2.133.375.437.863.656 1.465.656.484 0 .887-.148 1.207-.445.328-.297.535-.754.621-1.371zm7.23.328l1.266.152c-.203.742-.574 1.321-1.113 1.735-.539.406-1.231.609-2.074.609-1.063 0-1.907-.324-2.532-.973-.617-.656-.925-1.574-.925-2.754 0-1.226.312-2.175.937-2.847.633-.672 1.449-1.008 2.449-1.008.969 0 1.758.332 2.367.996.618.656.926 1.582.926 2.777v.329h-5.414c.047.796.274 1.41.68 1.839.406.422.91.633 1.512.633.453 0 .839-.117 1.16-.351.32-.243.574-.621.761-1.137zm-4.043-1.992h4.055c-.055-.61-.211-1.067-.469-1.371-.39-.477-.898-.715-1.523-.715-.563 0-1.039.191-1.43.574-.383.375-.593.879-.633 1.512zm6.364 2.156l1.219-.187c.063.484.25.859.563 1.125.312.257.75.386 1.312.386.563 0 .98-.113 1.254-.34.273-.234.41-.507.41-.82 0-.273-.121-.492-.363-.656-.164-.11-.582-.246-1.254-.41-.906-.235-1.535-.434-1.887-.598a1.817 1.817 0 0 1-.785-.68 1.862 1.862 0 0 1-.27-.984c0-.32.075-.617.223-.891.149-.281.352-.511.61-.691.187-.141.445-.258.773-.352a3.682 3.682 0 0 1 1.066-.152c.571 0 1.071.082 1.5.246.43.164.746.387.95.668.211.281.355.656.433 1.125l-1.207.164c-.055-.375-.215-.668-.48-.879-.258-.211-.625-.316-1.102-.316-.57 0-.976.094-1.219.281-.234.188-.351.406-.351.656a.74.74 0 0 0 .14.434c.102.133.262.242.481.328.117.047.476.152 1.078.316.875.227 1.484.415 1.828.563.344.148.613.363.809.644.195.282.293.633.293 1.055 0 .414-.121.801-.364 1.16-.234.36-.578.641-1.031.844a3.848 3.848 0 0 1-1.535.293c-.937 0-1.656-.195-2.156-.586-.492-.391-.805-.973-.938-1.746zm6.563 2.344l2.906-10.36h.984l-2.894 10.36h-.996zm9.512-.176v-.914c-.453.719-1.129 1.078-2.027 1.078-.578 0-1.109-.16-1.594-.48a3.168 3.168 0 0 1-1.125-1.336c-.265-.571-.398-1.227-.398-1.969 0-.727.121-1.383.363-1.969.242-.594.602-1.047 1.078-1.359a2.935 2.935 0 0 1 1.629-.469c.438 0 .824.094 1.16.281.344.18.621.418.832.715V32.67h1.231v10.02h-1.149zm-3.879-3.621c0 .93.196 1.625.586 2.086.391.461.852.691 1.383.691.539 0 .996-.219 1.371-.656.375-.445.563-1.117.563-2.016 0-.992-.192-1.718-.575-2.179-.382-.469-.855-.703-1.418-.703-.539 0-.992.222-1.359.668-.367.445-.551 1.148-.551 2.109zm6.505-.012c0-1.344.371-2.336 1.113-2.976.625-.539 1.387-.809 2.285-.809 1 0 1.817.328 2.449.984.633.649.95 1.551.95 2.707 0 .93-.141 1.664-.422 2.204a2.994 2.994 0 0 1-1.231 1.242 3.516 3.516 0 0 1-1.746.445c-1.015 0-1.836-.324-2.461-.973-.625-.656-.937-1.597-.937-2.824zm1.265 0c0 .93.2 1.629.598 2.098.406.461.918.691 1.535.691.61 0 1.117-.23 1.524-.691.406-.469.609-1.18.609-2.133 0-.898-.203-1.578-.609-2.039a1.947 1.947 0 0 0-1.524-.691c-.617 0-1.129.23-1.535.691-.398.453-.598 1.144-.598 2.074zm11.708.973l1.207.164c-.133.828-.473 1.48-1.02 1.957-.539.469-1.207.703-2.003.703-.993 0-1.789-.324-2.391-.973-.602-.648-.902-1.578-.902-2.789 0-.789.129-1.476.386-2.062.258-.586.653-1.024 1.184-1.313a3.493 3.493 0 0 1 1.734-.445c.789 0 1.434.199 1.934.598.5.398.82.965.961 1.699l-1.195.176c-.118-.485-.321-.848-.61-1.09a1.541 1.541 0 0 0-1.043-.375c-.617 0-1.121.222-1.512.668-.39.445-.585 1.148-.585 2.109 0 .977.187 1.688.562 2.133.375.437.863.656 1.465.656.484 0 .887-.148 1.207-.445.328-.297.535-.754.621-1.371zm2.262 2.66V32.67h1.23v5.719l2.918-2.953h1.582l-2.765 2.695 3.046 4.559h-1.511l-2.403-3.715-.867.844v2.871h-1.23zm11.965-2.332l1.265.152c-.203.742-.574 1.321-1.113 1.735-.539.406-1.231.609-2.074.609-1.063 0-1.907-.324-2.532-.973-.617-.656-.925-1.574-.925-2.754 0-1.226.312-2.175.937-2.847.633-.672 1.449-1.008 2.449-1.008.969 0 1.758.332 2.368.996.617.656.925 1.582.925 2.777v.329h-5.414c.047.796.274 1.41.68 1.839.406.422.91.633 1.512.633.453 0 .84-.117 1.16-.351.32-.243.574-.621.762-1.137zm-4.043-1.992h4.054c-.054-.61-.211-1.067-.468-1.371-.391-.477-.899-.715-1.524-.715-.562 0-1.039.191-1.43.574-.382.375-.593.879-.632 1.512zm6.844 4.324v-7.254h1.101v1.102c.282-.516.539-.856.774-1.02.242-.164.508-.246.797-.246.414 0 .836.133 1.265.398l-.422 1.137a1.76 1.76 0 0 0-.902-.269 1.15 1.15 0 0 0-.726.246 1.361 1.361 0 0 0-.457.668 4.676 4.676 0 0 0-.211 1.441v3.797h-1.219zm3.745.176l2.907-10.36h.984l-2.895 10.36h-.996zm4.814 2.601V35.436h1.113v.938c.265-.368.562-.641.89-.821.336-.187.743-.281 1.219-.281.617 0 1.16.16 1.629.48.477.313.836.762 1.078 1.348a4.9 4.9 0 0 1 .364 1.91c0 .742-.133 1.41-.399 2.004-.266.594-.652 1.051-1.16 1.371a3.012 3.012 0 0 1-1.606.469c-.406 0-.773-.086-1.101-.258a2.363 2.363 0 0 1-.797-.656v3.527h-1.23zm1.113-6.363c0 .93.187 1.621.562 2.074.383.446.84.668 1.371.668.547 0 1.016-.23 1.407-.691.39-.469.586-1.188.586-2.156 0-.922-.192-1.614-.575-2.075-.375-.461-.828-.691-1.359-.691-.523 0-.988.246-1.395.738-.398.485-.597 1.196-.597 2.133zm6.211-.047c0-1.344.371-2.336 1.114-2.976.625-.539 1.386-.809 2.285-.809 1 0 1.816.328 2.449.984.633.649.949 1.551.949 2.707 0 .93-.14 1.664-.422 2.204a2.992 2.992 0 0 1-1.23 1.242 3.516 3.516 0 0 1-1.746.445c-1.016 0-1.836-.324-2.461-.973-.625-.656-.938-1.597-.938-2.824zm1.266 0c0 .93.199 1.629.598 2.098.406.461.918.691 1.535.691.609 0 1.117-.23 1.523-.691.406-.469.61-1.18.61-2.133 0-.898-.204-1.578-.61-2.039a1.945 1.945 0 0 0-1.523-.691c-.617 0-1.129.23-1.535.691-.399.453-.598 1.144-.598 2.074zm6.481 1.465l1.219-.187c.062.484.25.859.562 1.125.313.257.75.386 1.313.386.562 0 .98-.113 1.254-.34.273-.234.41-.507.41-.82 0-.273-.121-.492-.364-.656-.164-.11-.582-.246-1.253-.41-.907-.235-1.536-.434-1.887-.598a1.812 1.812 0 0 1-.785-.68 1.862 1.862 0 0 1-.27-.984c0-.32.074-.617.223-.891.148-.281.351-.511.609-.691.188-.141.446-.258.774-.352a3.682 3.682 0 0 1 1.066-.152c.57 0 1.07.082 1.5.246.43.164.746.387.949.668.211.281.356.656.434 1.125l-1.207.164c-.055-.375-.215-.668-.481-.879-.257-.211-.625-.316-1.101-.316-.571 0-.977.094-1.219.281-.234.188-.352.406-.352.656 0 .157.047.301.141.434.102.133.262.242.481.328.117.047.476.152 1.078.316.875.227 1.484.415 1.828.563.344.148.613.363.808.644.196.282.293.633.293 1.055 0 .414-.121.801-.363 1.16-.234.36-.578.641-1.031.844a3.848 3.848 0 0 1-1.535.293c-.938 0-1.657-.195-2.157-.586-.492-.391-.804-.973-.937-1.746zm10.172 1.066l.176 1.09a4.629 4.629 0 0 1-.926.106c-.445 0-.793-.071-1.043-.211a1.209 1.209 0 0 1-.516-.551c-.101-.234-.152-.719-.152-1.453v-4.184h-.902v-.949h.902v-1.793l1.219-.738v2.531h1.242v.949h-1.242v4.254c0 .344.019.567.058.668a.579.579 0 0 0 .211.246c.102.055.246.082.434.082.133 0 .312-.015.539-.047zm.969 1.7l1.196.175c.054.375.195.645.422.809.304.227.722.34 1.253.34.571 0 1.008-.113 1.313-.34.312-.227.523-.543.633-.949.062-.25.09-.778.082-1.582-.531.633-1.199.949-2.004.949-1 0-1.774-.359-2.32-1.078-.547-.719-.821-1.582-.821-2.59 0-.695.125-1.336.375-1.922.258-.586.621-1.035 1.09-1.348.477-.32 1.039-.48 1.688-.48.851 0 1.554.344 2.109 1.031v-.867h1.137v6.27c0 1.132-.118 1.933-.352 2.402-.226.469-.59.84-1.09 1.113-.492.274-1.105.41-1.84.41-.859 0-1.558-.195-2.097-.586-.531-.382-.789-.968-.774-1.757zm1.02-4.36c0 .953.187 1.649.562 2.086.383.438.86.656 1.43.656.563 0 1.035-.214 1.418-.644.383-.438.574-1.121.574-2.051 0-.89-.199-1.558-.597-2.004-.391-.453-.864-.679-1.418-.679-.547 0-1.012.222-1.395.668-.383.437-.574 1.093-.574 1.968zm6.985 3.762v-7.254h1.101v1.102c.282-.516.539-.856.774-1.02.242-.164.508-.246.797-.246.414 0 .836.133 1.265.398l-.422 1.137a1.76 1.76 0 0 0-.902-.269c-.273 0-.516.082-.727.246-.21.164-.363.386-.457.668-.14.437-.21.918-.21 1.441v3.797h-1.219zm9.64-2.332l1.265.152c-.203.742-.574 1.321-1.113 1.735-.539.406-1.23.609-2.074.609-1.063 0-1.906-.324-2.531-.973-.618-.656-.926-1.574-.926-2.754 0-1.226.312-2.175.937-2.847.633-.672 1.45-1.008 2.45-1.008.968 0 1.757.332 2.367.996.617.656.926 1.582.926 2.777v.329h-5.415c.047.796.274 1.41.68 1.839.406.422.91.633 1.512.633.453 0 .84-.117 1.16-.351.32-.243.574-.621.762-1.137zm-4.043-1.992h4.054c-.054-.61-.21-1.067-.468-1.371-.391-.477-.899-.715-1.524-.715-.562 0-1.039.191-1.429.574-.383.375-.594.879-.633 1.512zm6.364 2.156l1.218-.187c.063.484.25.859.563 1.125.312.257.75.386 1.312.386.563 0 .981-.113 1.254-.34.274-.234.41-.507.41-.82 0-.273-.121-.492-.363-.656-.164-.11-.582-.246-1.254-.41-.906-.235-1.535-.434-1.886-.598a1.82 1.82 0 0 1-.786-.68 1.87 1.87 0 0 1-.269-.984c0-.32.074-.617.222-.891.149-.281.352-.511.61-.691.187-.141.445-.258.773-.352a3.69 3.69 0 0 1 1.067-.152c.57 0 1.07.082 1.5.246.429.164.746.387.949.668.211.281.355.656.434 1.125l-1.208.164c-.054-.375-.214-.668-.48-.879-.258-.211-.625-.316-1.102-.316-.57 0-.976.094-1.218.281-.235.188-.352.406-.352.656 0 .157.047.301.141.434.101.133.261.242.48.328.117.047.477.152 1.078.316.875.227 1.485.415 1.828.563.344.148.614.363.809.644.195.282.293.633.293 1.055 0 .414-.121.801-.363 1.16-.235.36-.578.641-1.031.844a3.853 3.853 0 0 1-1.536.293c-.937 0-1.656-.195-2.156-.586-.492-.391-.805-.973-.937-1.746zm12.105 4.945v-3.55c-.187.273-.453.5-.797.679a2.429 2.429 0 0 1-1.101.258c-.86 0-1.602-.344-2.227-1.031-.617-.688-.926-1.629-.926-2.824 0-.735.125-1.391.375-1.969.258-.578.625-1.016 1.102-1.313a2.97 2.97 0 0 1 1.582-.445c.898 0 1.605.379 2.121 1.137v-.973h1.102v10.031h-1.231zm-3.785-6.422c0 .93.195 1.629.586 2.098.39.469.859.703 1.406.703.524 0 .973-.222 1.348-.668.383-.445.574-1.121.574-2.027 0-.969-.199-1.695-.598-2.18-.398-.484-.867-.726-1.406-.726-.531 0-.984.226-1.359.679-.367.453-.551 1.161-.551 2.121zm6.915 3.645V32.67h1.23v10.02h-1.23zm2.218.176l2.906-10.36h.984l-2.894 10.36h-.996zm9.547-1.067c-.461.383-.902.657-1.324.821a3.791 3.791 0 0 1-1.348.234c-.797 0-1.41-.195-1.84-.586-.429-.391-.644-.887-.644-1.488 0-.36.082-.684.246-.973.164-.297.375-.531.633-.703.265-.18.562-.316.89-.41a9.07 9.07 0 0 1 1.09-.188c.992-.117 1.723-.257 2.192-.421.007-.172.011-.278.011-.317 0-.5-.117-.855-.351-1.066-.313-.274-.781-.41-1.406-.41-.579 0-1.004.101-1.278.304-.273.203-.476.559-.609 1.067l-1.207-.164c.109-.508.289-.918.539-1.231.25-.32.613-.566 1.09-.738.476-.172 1.023-.258 1.64-.258.625 0 1.129.074 1.512.223.391.14.676.324.856.55.187.219.316.497.386.832.039.211.059.59.059 1.137v1.641c0 1.14.027 1.863.082 2.168.055.297.156.586.305.867h-1.278a2.41 2.41 0 0 1-.246-.891zm-.105-2.754c-.446.188-1.114.344-2.004.469-.508.071-.867.153-1.078.246a1.147 1.147 0 0 0-.493.399 1.071 1.071 0 0 0-.164.586c0 .328.125.601.375.82.25.219.614.328 1.09.328.469 0 .887-.101 1.254-.305a1.92 1.92 0 0 0 .82-.855c.133-.281.2-.691.2-1.231v-.457zm3.153 6.422V35.436h1.113v.938c.265-.368.562-.641.89-.821.336-.187.743-.281 1.219-.281.617 0 1.16.16 1.629.48.477.313.836.762 1.078 1.348a4.9 4.9 0 0 1 .364 1.91c0 .742-.133 1.41-.399 2.004-.266.594-.652 1.051-1.16 1.371a3.012 3.012 0 0 1-1.606.469c-.406 0-.773-.086-1.101-.258a2.363 2.363 0 0 1-.797-.656v3.527h-1.23zm1.113-6.363c0 .93.187 1.621.562 2.074.383.446.84.668 1.371.668.547 0 1.016-.23 1.407-.691.39-.469.586-1.188.586-2.156 0-.922-.192-1.614-.575-2.075-.375-.461-.828-.691-1.359-.691-.523 0-.988.246-1.395.738-.398.485-.597 1.196-.597 2.133zm6.668 6.363V35.436h1.114v.938c.265-.368.562-.641.89-.821.336-.187.742-.281 1.219-.281.617 0 1.16.16 1.629.48.476.313.836.762 1.078 1.348.242.578.363 1.215.363 1.91 0 .742-.133 1.41-.398 2.004-.266.594-.652 1.051-1.16 1.371a3.012 3.012 0 0 1-1.606.469c-.406 0-.773-.086-1.101-.258a2.363 2.363 0 0 1-.797-.656v3.527h-1.231zm1.114-6.363c0 .93.187 1.621.562 2.074.383.446.84.668 1.371.668.547 0 1.016-.23 1.406-.691.391-.469.586-1.188.586-2.156 0-.922-.191-1.614-.574-2.075-.375-.461-.828-.691-1.359-.691-.524 0-.988.246-1.395.738-.398.485-.597 1.196-.597 2.133zm6.188.574v-1.23h3.773v1.23h-3.773zm5.14 3.012v-7.254h1.101v1.031c.531-.797 1.301-1.195 2.309-1.195.437 0 .84.078 1.207.234.367.157.64.364.82.621.188.25.317.551.387.903.047.226.07.625.07 1.195v4.465h-1.23v-4.418c0-.5-.051-.871-.153-1.113a1.167 1.167 0 0 0-.504-.598 1.607 1.607 0 0 0-.855-.223c-.523 0-.977.168-1.359.504-.375.328-.563.957-.563 1.887v3.961h-1.23zm12.516-.891c-.461.383-.903.657-1.324.821a3.795 3.795 0 0 1-1.348.234c-.797 0-1.41-.195-1.84-.586-.43-.391-.644-.887-.644-1.488 0-.36.082-.684.246-.973.164-.297.375-.531.632-.703a3.1 3.1 0 0 1 .891-.41 9.032 9.032 0 0 1 1.09-.188c.992-.117 1.723-.257 2.191-.421.008-.172.012-.278.012-.317 0-.5-.117-.855-.352-1.066-.312-.274-.781-.41-1.406-.41-.578 0-1.004.101-1.277.304-.274.203-.477.559-.609 1.067l-1.208-.164c.11-.508.29-.918.54-1.231.25-.32.613-.566 1.089-.738.477-.172 1.024-.258 1.641-.258.625 0 1.129.074 1.512.223.39.14.676.324.855.55.188.219.317.497.387.832.039.211.059.59.059 1.137v1.641c0 1.14.027 1.863.082 2.168.054.297.156.586.304.867h-1.277a2.41 2.41 0 0 1-.246-.891zm-.106-2.754c-.445.188-1.113.344-2.004.469-.507.071-.867.153-1.078.246a1.138 1.138 0 0 0-.492.399 1.071 1.071 0 0 0-.164.586c0 .328.125.601.375.82.25.219.613.328 1.09.328.469 0 .887-.101 1.254-.305.375-.211.648-.496.82-.855.133-.281.199-.691.199-1.231v-.457zm3.153 3.645v-7.254h1.102v1.02a2.55 2.55 0 0 1 2.191-1.184c.539 0 .981.113 1.324.34.344.219.586.527.727.926.578-.844 1.324-1.266 2.238-1.266.727 0 1.281.199 1.664.598.391.398.586 1.011.586 1.84v4.98h-1.23v-4.57c0-.493-.039-.844-.117-1.055a1.017 1.017 0 0 0-.434-.527 1.355 1.355 0 0 0-.738-.2c-.508 0-.93.172-1.266.516-.336.336-.504.875-.504 1.617v4.219h-1.23v-4.711c0-.547-.102-.957-.305-1.23-.203-.274-.531-.411-.984-.411-.344 0-.664.09-.961.27a1.53 1.53 0 0 0-.645.797c-.125.351-.187.859-.187 1.523v3.762h-1.231zm16.625-2.332l1.265.152c-.203.742-.574 1.321-1.113 1.735-.539.406-1.231.609-2.074.609-1.063 0-1.907-.324-2.532-.973-.617-.656-.925-1.574-.925-2.754 0-1.226.312-2.175.937-2.847.633-.672 1.449-1.008 2.449-1.008.969 0 1.758.332 2.368.996.617.656.925 1.582.925 2.777v.329h-5.414c.047.796.274 1.41.68 1.839.406.422.91.633 1.512.633.453 0 .84-.117 1.16-.351.32-.243.574-.621.762-1.137zm-4.043-1.992h4.054c-.054-.61-.211-1.067-.468-1.371-.391-.477-.899-.715-1.524-.715-.562 0-1.039.191-1.43.574-.382.375-.593.879-.632 1.512zm11.145 4.324h-1.231v-7.84a6.7 6.7 0 0 1-1.172.856 7.99 7.99 0 0 1-1.289.632v-1.195a7.32 7.32 0 0 0 1.805-1.172c.516-.461.879-.906 1.09-1.336h.797V42.69zm2.567.176l2.906-10.36h.984l-2.894 10.36h-.996zm9.512-.176v-.914c-.453.719-1.129 1.078-2.027 1.078-.578 0-1.11-.16-1.594-.48a3.168 3.168 0 0 1-1.125-1.336c-.266-.571-.398-1.227-.398-1.969 0-.727.121-1.383.363-1.969.242-.594.601-1.047 1.078-1.359a2.935 2.935 0 0 1 1.629-.469c.437 0 .824.094 1.16.281.344.18.621.418.832.715V32.67h1.231v10.02h-1.149zm-3.879-3.621c0 .93.195 1.625.586 2.086.391.461.852.691 1.383.691.539 0 .996-.219 1.371-.656.375-.445.563-1.117.563-2.016 0-.992-.192-1.718-.575-2.179-.383-.469-.855-.703-1.418-.703-.539 0-.992.222-1.359.668-.367.445-.551 1.148-.551 2.109zm11.93 1.289l1.266.152c-.203.742-.574 1.321-1.113 1.735-.539.406-1.231.609-2.074.609-1.063 0-1.907-.324-2.532-.973-.617-.656-.925-1.574-.925-2.754 0-1.226.312-2.175.937-2.847.633-.672 1.449-1.008 2.449-1.008.969 0 1.758.332 2.367.996.618.656.926 1.582.926 2.777v.329h-5.414c.047.796.274 1.41.68 1.839.406.422.91.633 1.512.633.453 0 .839-.117 1.16-.351.32-.243.574-.621.761-1.137zm-4.043-1.992h4.055c-.055-.61-.211-1.067-.469-1.371-.39-.477-.898-.715-1.523-.715-.563 0-1.039.191-1.43.574-.383.375-.593.879-.633 1.512zm7.149 4.324v-6.305h-1.089v-.949h1.089v-.773c0-.485.043-.848.129-1.09.118-.321.325-.578.621-.774.297-.195.715-.293 1.254-.293.344 0 .727.039 1.149.118l-.188 1.078a3.873 3.873 0 0 0-.715-.071c-.375 0-.64.082-.796.246-.157.157-.235.454-.235.891v.668h1.418v.949h-1.418v6.305h-1.219zm8.329-.891c-.461.383-.902.657-1.324.821a3.791 3.791 0 0 1-1.348.234c-.796 0-1.41-.195-1.839-.586-.43-.391-.645-.887-.645-1.488 0-.36.082-.684.246-.973.164-.297.375-.531.633-.703.266-.18.562-.316.891-.41a9.008 9.008 0 0 1 1.089-.188c.993-.117 1.723-.257 2.192-.421.008-.172.012-.278.012-.317 0-.5-.118-.855-.352-1.066-.313-.274-.781-.41-1.406-.41-.578 0-1.004.101-1.278.304-.273.203-.476.559-.609 1.067l-1.207-.164c.109-.508.289-.918.539-1.231.25-.32.613-.566 1.09-.738.476-.172 1.023-.258 1.641-.258.625 0 1.128.074 1.511.223.391.14.676.324.856.55.187.219.316.497.386.832.039.211.059.59.059 1.137v1.641c0 1.14.027 1.863.082 2.168.055.297.156.586.305.867h-1.278a2.45 2.45 0 0 1-.246-.891zm-.105-2.754c-.445.188-1.113.344-2.004.469-.508.071-.867.153-1.078.246a1.138 1.138 0 0 0-.492.399c-.11.172-.164.367-.164.586 0 .328.125.601.375.82.25.219.613.328 1.089.328.469 0 .887-.101 1.254-.305.375-.211.649-.496.821-.855.132-.281.199-.691.199-1.231v-.457zm7.899 3.645v-1.066c-.563.82-1.328 1.23-2.297 1.23-.43 0-.832-.082-1.207-.246-.367-.164-.641-.371-.82-.621a2.295 2.295 0 0 1-.375-.914c-.055-.235-.082-.617-.082-1.149v-4.488h1.23v4.02c0 .64.027 1.074.082 1.3.078.321.242.575.492.762.25.188.559.281.926.281s.711-.093 1.031-.281a1.61 1.61 0 0 0 .692-.773c.133-.328.199-.801.199-1.418v-3.891h1.23v7.254h-1.101zm3 0V32.67h1.231v10.02h-1.231zm5.828-1.102l.176 1.09a4.629 4.629 0 0 1-.926.106c-.446 0-.793-.071-1.043-.211a1.209 1.209 0 0 1-.516-.551c-.101-.234-.152-.719-.152-1.453v-4.184h-.903v-.949h.903v-1.793l1.219-.738v2.531h1.242v.949h-1.242v4.254c0 .344.019.567.058.668a.579.579 0 0 0 .211.246c.102.055.246.082.434.082.132 0 .312-.015.539-.047zM2.966 65.542l1.23-.165c.141.704.379 1.208.715 1.512.344.305.758.457 1.242.457.579 0 1.067-.199 1.465-.597.399-.399.598-.895.598-1.489 0-.562-.184-1.027-.551-1.394-.367-.367-.836-.551-1.406-.551-.235 0-.524.043-.867.129l.14-1.078a2.49 2.49 0 0 0 1.606-.399c.422-.273.633-.691.633-1.254 0-.453-.153-.828-.457-1.125-.305-.296-.7-.445-1.184-.445-.477 0-.875.152-1.195.457-.321.297-.524.746-.61 1.348l-1.23-.223c.148-.82.488-1.457 1.019-1.91.532-.453 1.196-.68 1.993-.68.546 0 1.046.118 1.5.352.46.234.812.555 1.054.961.25.406.375.836.375 1.289 0 .43-.117.824-.351 1.183-.235.352-.578.633-1.032.844.594.141 1.055.426 1.383.856.328.429.492.968.492 1.617 0 .867-.32 1.605-.961 2.215-.632.609-1.437.914-2.414.914-.882 0-1.613-.262-2.191-.785-.578-.524-.91-1.203-.996-2.039zm8.461 2.648v-1.406h1.407v1.406h-1.407zM32.049 68.366l2.906-10.36h.985l-2.895 10.36h-.996zm4.321-2.344l1.219-.187c.063.484.25.859.563 1.125.312.257.75.386 1.312.386.563 0 .981-.113 1.254-.34.273-.234.41-.507.41-.82 0-.273-.121-.492-.363-.656-.164-.11-.582-.246-1.254-.41-.906-.235-1.535-.434-1.887-.598a1.817 1.817 0 0 1-.785-.68 1.861 1.861 0 0 1-.269-.984c0-.32.074-.617.222-.891.149-.281.352-.511.61-.691.187-.141.445-.258.773-.352a3.682 3.682 0 0 1 1.066-.152c.571 0 1.071.082 1.5.246.43.164.746.387.95.668.211.281.355.656.433 1.125l-1.207.164c-.055-.375-.215-.668-.48-.879-.258-.211-.625-.316-1.102-.316-.57 0-.976.094-1.219.281-.234.188-.351.406-.351.656a.74.74 0 0 0 .14.434c.102.133.262.242.481.328.117.047.476.152 1.078.316.875.227 1.484.415 1.828.563.344.148.613.363.809.644.195.282.293.633.293 1.055 0 .414-.121.801-.364 1.16-.234.36-.578.641-1.031.844a3.848 3.848 0 0 1-1.535.293c-.937 0-1.656-.195-2.156-.586-.492-.391-.805-.973-.938-1.746zm12.457-.164l1.266.152c-.203.742-.574 1.321-1.113 1.735-.539.406-1.231.609-2.075.609-1.062 0-1.906-.324-2.531-.973-.617-.656-.926-1.574-.926-2.754 0-1.226.313-2.175.938-2.847.633-.672 1.449-1.008 2.449-1.008.969 0 1.758.332 2.367.996.618.656.926 1.582.926 2.777v.329h-5.414c.047.796.273 1.41.68 1.839.406.422.91.633 1.511.633.454 0 .84-.117 1.161-.351.32-.243.574-.621.761-1.137zm-4.043-1.992h4.055c-.055-.61-.211-1.067-.469-1.371-.39-.477-.898-.715-1.523-.715-.563 0-1.039.191-1.43.574-.383.375-.594.879-.633 1.512zm6.845 4.324v-7.254h1.101v1.102c.281-.516.539-.856.774-1.02a1.39 1.39 0 0 1 .797-.246c.414 0 .835.133 1.265.398l-.422 1.137a1.76 1.76 0 0 0-.902-.269c-.274 0-.516.082-.727.246a1.368 1.368 0 0 0-.457.668c-.14.437-.211.918-.211 1.441v3.797h-1.218zm6.686 0l-2.765-7.254h1.301l1.558 4.348c.164.468.321.953.469 1.453.102-.383.254-.84.457-1.371l1.605-4.43h1.266l-2.742 7.254h-1.149zm4.981-8.602V58.17h1.23v1.418h-1.23zm0 8.602v-7.254h1.23v7.254h-1.23zm7.843-2.66l1.207.164c-.133.828-.473 1.48-1.02 1.957-.539.469-1.207.703-2.003.703-.993 0-1.79-.324-2.391-.973-.602-.648-.902-1.578-.902-2.789 0-.789.128-1.476.386-2.062.258-.586.653-1.024 1.184-1.313a3.493 3.493 0 0 1 1.734-.445c.789 0 1.434.199 1.934.598.5.398.82.965.961 1.699l-1.196.176c-.117-.485-.32-.848-.609-1.09a1.541 1.541 0 0 0-1.043-.375c-.617 0-1.121.222-1.512.668-.39.445-.586 1.148-.586 2.109 0 .977.188 1.688.563 2.133.375.437.863.656 1.465.656.484 0 .887-.148 1.207-.445.328-.297.535-.754.621-1.371zm7.23.328l1.266.152c-.203.742-.574 1.321-1.113 1.735-.539.406-1.231.609-2.074.609-1.063 0-1.907-.324-2.532-.973-.617-.656-.925-1.574-.925-2.754 0-1.226.312-2.175.937-2.847.633-.672 1.449-1.008 2.449-1.008.969 0 1.758.332 2.367.996.618.656.926 1.582.926 2.777v.329h-5.414c.047.796.274 1.41.68 1.839.406.422.91.633 1.512.633.453 0 .839-.117 1.16-.351.32-.243.574-.621.761-1.137zm-4.043-1.992h4.055c-.055-.61-.211-1.067-.469-1.371-.39-.477-.898-.715-1.523-.715-.563 0-1.039.191-1.43.574-.383.375-.593.879-.633 1.512zm6.364 2.156l1.219-.187c.063.484.25.859.563 1.125.312.257.75.386 1.312.386.563 0 .98-.113 1.254-.34.273-.234.41-.507.41-.82 0-.273-.121-.492-.363-.656-.164-.11-.582-.246-1.254-.41-.906-.235-1.535-.434-1.887-.598a1.817 1.817 0 0 1-.785-.68 1.862 1.862 0 0 1-.27-.984c0-.32.075-.617.223-.891.149-.281.352-.511.61-.691.187-.141.445-.258.773-.352a3.682 3.682 0 0 1 1.066-.152c.571 0 1.071.082 1.5.246.43.164.746.387.95.668.211.281.355.656.433 1.125l-1.207.164c-.055-.375-.215-.668-.48-.879-.258-.211-.625-.316-1.102-.316-.57 0-.976.094-1.219.281-.234.188-.351.406-.351.656a.74.74 0 0 0 .14.434c.102.133.262.242.481.328.117.047.476.152 1.078.316.875.227 1.484.415 1.828.563.344.148.613.363.809.644.195.282.293.633.293 1.055 0 .414-.121.801-.364 1.16-.234.36-.578.641-1.031.844a3.848 3.848 0 0 1-1.535.293c-.937 0-1.656-.195-2.156-.586-.492-.391-.805-.973-.938-1.746zm6.563 2.344l2.906-10.36h.984l-2.894 10.36h-.996zm9.512-.176v-.914c-.453.719-1.129 1.078-2.027 1.078-.578 0-1.109-.16-1.594-.48a3.168 3.168 0 0 1-1.125-1.336c-.265-.571-.398-1.227-.398-1.969 0-.727.121-1.383.363-1.969.242-.594.602-1.047 1.078-1.359a2.935 2.935 0 0 1 1.629-.469c.438 0 .824.094 1.16.281.344.18.621.418.832.715V58.17h1.231v10.02h-1.149zm-3.879-3.621c0 .93.196 1.625.586 2.086.391.461.852.691 1.383.691.539 0 .996-.219 1.371-.656.375-.445.563-1.117.563-2.016 0-.992-.192-1.718-.575-2.179-.382-.469-.855-.703-1.418-.703-.539 0-.992.222-1.359.668-.367.445-.551 1.148-.551 2.109zm6.505-.012c0-1.344.371-2.336 1.113-2.976.625-.539 1.387-.809 2.285-.809 1 0 1.817.328 2.449.984.633.649.95 1.551.95 2.707 0 .93-.141 1.664-.422 2.204a2.994 2.994 0 0 1-1.231 1.242 3.516 3.516 0 0 1-1.746.445c-1.015 0-1.836-.324-2.461-.973-.625-.656-.937-1.597-.937-2.824zm1.265 0c0 .93.2 1.629.598 2.098.406.461.918.691 1.535.691.61 0 1.117-.23 1.524-.691.406-.469.609-1.18.609-2.133 0-.898-.203-1.578-.609-2.039a1.947 1.947 0 0 0-1.524-.691c-.617 0-1.129.23-1.535.691-.398.453-.598 1.144-.598 2.074zm11.708.973l1.207.164c-.133.828-.473 1.48-1.02 1.957-.539.469-1.207.703-2.003.703-.993 0-1.789-.324-2.391-.973-.602-.648-.902-1.578-.902-2.789 0-.789.129-1.476.386-2.062.258-.586.653-1.024 1.184-1.313a3.493 3.493 0 0 1 1.734-.445c.789 0 1.434.199 1.934.598.5.398.82.965.961 1.699l-1.195.176c-.118-.485-.321-.848-.61-1.09a1.541 1.541 0 0 0-1.043-.375c-.617 0-1.121.222-1.512.668-.39.445-.585 1.148-.585 2.109 0 .977.187 1.688.562 2.133.375.437.863.656 1.465.656.484 0 .887-.148 1.207-.445.328-.297.535-.754.621-1.371zm2.262 2.66V58.17h1.23v5.719l2.918-2.953h1.582l-2.765 2.695 3.046 4.559h-1.511l-2.403-3.715-.867.844v2.871h-1.23zm11.965-2.332l1.265.152c-.203.742-.574 1.321-1.113 1.735-.539.406-1.231.609-2.074.609-1.063 0-1.907-.324-2.532-.973-.617-.656-.925-1.574-.925-2.754 0-1.226.312-2.175.937-2.847.633-.672 1.449-1.008 2.449-1.008.969 0 1.758.332 2.368.996.617.656.925 1.582.925 2.777v.329h-5.414c.047.796.274 1.41.68 1.839.406.422.91.633 1.512.633.453 0 .84-.117 1.16-.351.32-.243.574-.621.762-1.137zm-4.043-1.992h4.054c-.054-.61-.211-1.067-.468-1.371-.391-.477-.899-.715-1.524-.715-.562 0-1.039.191-1.43.574-.382.375-.593.879-.632 1.512zm6.844 4.324v-7.254h1.101v1.102c.282-.516.539-.856.774-1.02.242-.164.508-.246.797-.246.414 0 .836.133 1.265.398l-.422 1.137a1.76 1.76 0 0 0-.902-.269 1.15 1.15 0 0 0-.726.246 1.361 1.361 0 0 0-.457.668 4.676 4.676 0 0 0-.211 1.441v3.797h-1.219zm3.745.176l2.907-10.36h.984l-2.895 10.36h-.996zm4.814 2.601V60.936h1.113v.938c.265-.368.562-.641.89-.821.336-.187.743-.281 1.219-.281.617 0 1.16.16 1.629.48.477.313.836.762 1.078 1.348a4.9 4.9 0 0 1 .364 1.91c0 .742-.133 1.41-.399 2.004-.266.594-.652 1.051-1.16 1.371a3.012 3.012 0 0 1-1.606.469c-.406 0-.773-.086-1.101-.258a2.363 2.363 0 0 1-.797-.656v3.527h-1.23zm1.113-6.363c0 .93.187 1.621.562 2.074.383.446.84.668 1.371.668.547 0 1.016-.23 1.407-.691.39-.469.586-1.188.586-2.156 0-.922-.192-1.614-.575-2.075-.375-.461-.828-.691-1.359-.691-.523 0-.988.246-1.395.738-.398.485-.597 1.196-.597 2.133zm6.211-.047c0-1.344.371-2.336 1.114-2.976.625-.539 1.386-.809 2.285-.809 1 0 1.816.328 2.449.984.633.649.949 1.551.949 2.707 0 .93-.14 1.664-.422 2.204a2.992 2.992 0 0 1-1.23 1.242 3.516 3.516 0 0 1-1.746.445c-1.016 0-1.836-.324-2.461-.973-.625-.656-.938-1.597-.938-2.824zm1.266 0c0 .93.199 1.629.598 2.098.406.461.918.691 1.535.691.609 0 1.117-.23 1.523-.691.406-.469.61-1.18.61-2.133 0-.898-.204-1.578-.61-2.039a1.945 1.945 0 0 0-1.523-.691c-.617 0-1.129.23-1.535.691-.399.453-.598 1.144-.598 2.074zm6.481 1.465l1.219-.187c.062.484.25.859.562 1.125.313.257.75.386 1.313.386.562 0 .98-.113 1.254-.34.273-.234.41-.507.41-.82 0-.273-.121-.492-.364-.656-.164-.11-.582-.246-1.253-.41-.907-.235-1.536-.434-1.887-.598a1.812 1.812 0 0 1-.785-.68 1.862 1.862 0 0 1-.27-.984c0-.32.074-.617.223-.891.148-.281.351-.511.609-.691.188-.141.446-.258.774-.352a3.682 3.682 0 0 1 1.066-.152c.57 0 1.07.082 1.5.246.43.164.746.387.949.668.211.281.356.656.434 1.125l-1.207.164c-.055-.375-.215-.668-.481-.879-.257-.211-.625-.316-1.101-.316-.571 0-.977.094-1.219.281-.234.188-.352.406-.352.656 0 .157.047.301.141.434.102.133.262.242.481.328.117.047.476.152 1.078.316.875.227 1.484.415 1.828.563.344.148.613.363.808.644.196.282.293.633.293 1.055 0 .414-.121.801-.363 1.16-.234.36-.578.641-1.031.844a3.848 3.848 0 0 1-1.535.293c-.938 0-1.657-.195-2.157-.586-.492-.391-.804-.973-.937-1.746zm10.172 1.066l.176 1.09a4.629 4.629 0 0 1-.926.106c-.445 0-.793-.071-1.043-.211a1.209 1.209 0 0 1-.516-.551c-.101-.234-.152-.719-.152-1.453v-4.184h-.902v-.949h.902v-1.793l1.219-.738v2.531h1.242v.949h-1.242v4.254c0 .344.019.567.058.668a.579.579 0 0 0 .211.246c.102.055.246.082.434.082.133 0 .312-.015.539-.047zm.969 1.7l1.196.175c.054.375.195.645.422.809.304.227.722.34 1.253.34.571 0 1.008-.113 1.313-.34.312-.227.523-.543.633-.949.062-.25.09-.778.082-1.582-.531.633-1.199.949-2.004.949-1 0-1.774-.359-2.32-1.078-.547-.719-.821-1.582-.821-2.59 0-.695.125-1.336.375-1.922.258-.586.621-1.035 1.09-1.348.477-.32 1.039-.48 1.688-.48.851 0 1.554.344 2.109 1.031v-.867h1.137v6.27c0 1.132-.118 1.933-.352 2.402-.226.469-.59.84-1.09 1.113-.492.274-1.105.41-1.84.41-.859 0-1.558-.195-2.097-.586-.531-.382-.789-.968-.774-1.757zm1.02-4.36c0 .953.187 1.649.562 2.086.383.438.86.656 1.43.656.563 0 1.035-.214 1.418-.644.383-.438.574-1.121.574-2.051 0-.89-.199-1.558-.597-2.004-.391-.453-.864-.679-1.418-.679-.547 0-1.012.222-1.395.668-.383.437-.574 1.093-.574 1.968zm6.985 3.762v-7.254h1.101v1.102c.282-.516.539-.856.774-1.02.242-.164.508-.246.797-.246.414 0 .836.133 1.265.398l-.422 1.137a1.76 1.76 0 0 0-.902-.269c-.273 0-.516.082-.727.246-.21.164-.363.386-.457.668-.14.437-.21.918-.21 1.441v3.797h-1.219zm9.64-2.332l1.265.152c-.203.742-.574 1.321-1.113 1.735-.539.406-1.23.609-2.074.609-1.063 0-1.906-.324-2.531-.973-.618-.656-.926-1.574-.926-2.754 0-1.226.312-2.175.937-2.847.633-.672 1.45-1.008 2.45-1.008.968 0 1.757.332 2.367.996.617.656.926 1.582.926 2.777v.329h-5.415c.047.796.274 1.41.68 1.839.406.422.91.633 1.512.633.453 0 .84-.117 1.16-.351.32-.243.574-.621.762-1.137zm-4.043-1.992h4.054c-.054-.61-.21-1.067-.468-1.371-.391-.477-.899-.715-1.524-.715-.562 0-1.039.191-1.429.574-.383.375-.594.879-.633 1.512zm6.364 2.156l1.218-.187c.063.484.25.859.563 1.125.312.257.75.386 1.312.386.563 0 .981-.113 1.254-.34.274-.234.41-.507.41-.82 0-.273-.121-.492-.363-.656-.164-.11-.582-.246-1.254-.41-.906-.235-1.535-.434-1.886-.598a1.82 1.82 0 0 1-.786-.68 1.87 1.87 0 0 1-.269-.984c0-.32.074-.617.222-.891.149-.281.352-.511.61-.691.187-.141.445-.258.773-.352a3.69 3.69 0 0 1 1.067-.152c.57 0 1.07.082 1.5.246.429.164.746.387.949.668.211.281.355.656.434 1.125l-1.208.164c-.054-.375-.214-.668-.48-.879-.258-.211-.625-.316-1.102-.316-.57 0-.976.094-1.218.281-.235.188-.352.406-.352.656 0 .157.047.301.141.434.101.133.261.242.48.328.117.047.477.152 1.078.316.875.227 1.485.415 1.828.563.344.148.614.363.809.644.195.282.293.633.293 1.055 0 .414-.121.801-.363 1.16-.235.36-.578.641-1.031.844a3.853 3.853 0 0 1-1.536.293c-.937 0-1.656-.195-2.156-.586-.492-.391-.805-.973-.937-1.746zm12.105 4.945v-3.55c-.187.273-.453.5-.797.679a2.429 2.429 0 0 1-1.101.258c-.86 0-1.602-.344-2.227-1.031-.617-.688-.926-1.629-.926-2.824 0-.735.125-1.391.375-1.969.258-.578.625-1.016 1.102-1.313a2.97 2.97 0 0 1 1.582-.445c.898 0 1.605.379 2.121 1.137v-.973h1.102v10.031h-1.231zm-3.785-6.422c0 .93.195 1.629.586 2.098.39.469.859.703 1.406.703.524 0 .973-.222 1.348-.668.383-.445.574-1.121.574-2.027 0-.969-.199-1.695-.598-2.18-.398-.484-.867-.726-1.406-.726-.531 0-.984.226-1.359.679-.367.453-.551 1.161-.551 2.121zm6.915 3.645V58.17h1.23v10.02h-1.23zm2.218.176l2.906-10.36h.984l-2.894 10.36h-.996zm9.512-.176v-.914c-.453.719-1.129 1.078-2.027 1.078-.578 0-1.11-.16-1.594-.48a3.168 3.168 0 0 1-1.125-1.336c-.266-.571-.399-1.227-.399-1.969 0-.727.122-1.383.364-1.969.242-.594.601-1.047 1.078-1.359a2.935 2.935 0 0 1 1.629-.469c.437 0 .824.094 1.16.281.344.18.621.418.832.715V58.17h1.23v10.02h-1.148zm-3.879-3.621c0 .93.195 1.625.586 2.086.391.461.852.691 1.383.691.539 0 .996-.219 1.371-.656.375-.445.562-1.117.562-2.016 0-.992-.191-1.718-.574-2.179-.383-.469-.855-.703-1.418-.703-.539 0-.992.222-1.359.668-.367.445-.551 1.148-.551 2.109zm11.93 1.289l1.266.152c-.203.742-.574 1.321-1.113 1.735-.539.406-1.231.609-2.075.609-1.062 0-1.906-.324-2.531-.973-.617-.656-.926-1.574-.926-2.754 0-1.226.313-2.175.938-2.847.633-.672 1.449-1.008 2.449-1.008.969 0 1.758.332 2.367.996.617.656.926 1.582.926 2.777v.329h-5.414c.047.796.273 1.41.68 1.839.406.422.91.633 1.511.633.454 0 .84-.117 1.161-.351.32-.243.574-.621.761-1.137zm-4.043-1.992h4.055c-.055-.61-.211-1.067-.469-1.371-.39-.477-.898-.715-1.523-.715-.563 0-1.039.191-1.43.574-.383.375-.594.879-.633 1.512zm7.149 4.324v-6.305h-1.09v-.949h1.09v-.773c0-.485.043-.848.129-1.09.117-.321.324-.578.621-.774.297-.195.715-.293 1.254-.293.344 0 .727.039 1.149.118l-.188 1.078a3.873 3.873 0 0 0-.715-.071c-.375 0-.64.082-.797.246-.156.157-.234.454-.234.891v.668h1.418v.949h-1.418v6.305h-1.219zm8.329-.891c-.461.383-.902.657-1.324.821a3.791 3.791 0 0 1-1.348.234c-.797 0-1.41-.195-1.84-.586-.429-.391-.644-.887-.644-1.488 0-.36.082-.684.246-.973.164-.297.375-.531.633-.703.265-.18.562-.316.89-.41a9.07 9.07 0 0 1 1.09-.188c.993-.117 1.723-.257 2.192-.421.008-.172.011-.278.011-.317 0-.5-.117-.855-.351-1.066-.313-.274-.781-.41-1.406-.41-.578 0-1.004.101-1.278.304-.273.203-.476.559-.609 1.067l-1.207-.164c.109-.508.289-.918.539-1.231.25-.32.613-.566 1.09-.738.476-.172 1.023-.258 1.64-.258.625 0 1.129.074 1.512.223.391.14.676.324.856.55.187.219.316.497.386.832.039.211.059.59.059 1.137v1.641c0 1.14.027 1.863.082 2.168.055.297.156.586.305.867h-1.278a2.41 2.41 0 0 1-.246-.891zm-.105-2.754c-.446.188-1.114.344-2.004.469-.508.071-.867.153-1.078.246a1.138 1.138 0 0 0-.492.399c-.11.172-.165.367-.165.586 0 .328.125.601.375.82.25.219.614.328 1.09.328.469 0 .887-.101 1.254-.305.375-.211.649-.496.821-.855.132-.281.199-.691.199-1.231v-.457zm7.899 3.645v-1.066c-.563.82-1.328 1.23-2.297 1.23-.43 0-.832-.082-1.207-.246-.367-.164-.641-.371-.821-.621a2.324 2.324 0 0 1-.375-.914c-.054-.235-.082-.617-.082-1.149v-4.488h1.231v4.02c0 .64.027 1.074.082 1.3.078.321.242.575.492.762.25.188.559.281.926.281s.711-.093 1.031-.281a1.61 1.61 0 0 0 .692-.773c.132-.328.199-.801.199-1.418v-3.891h1.23v7.254h-1.101zm3 0V58.17h1.231v10.02h-1.231zm5.828-1.102l.175 1.09a4.612 4.612 0 0 1-.925.106c-.446 0-.793-.071-1.043-.211a1.204 1.204 0 0 1-.516-.551c-.102-.234-.152-.719-.152-1.453v-4.184h-.903v-.949h.903v-1.793l1.218-.738v2.531h1.243v.949h-1.243v4.254c0 .344.02.567.059.668a.579.579 0 0 0 .211.246c.102.055.246.082.434.082.132 0 .312-.015.539-.047zM6.903 93.69v-2.402H2.556v-1.125l4.57-6.493h1.008v6.493h1.348v1.125H8.134v2.402H6.903zm0-3.527v-4.512l-3.14 4.512h3.14zm4.524 3.527v-1.406h1.407v1.406h-1.407zM32.049 93.866l2.906-10.36h.985l-2.895 10.36h-.996zm4.321-2.344l1.219-.187c.063.484.25.859.563 1.125.312.257.75.386 1.312.386.563 0 .981-.113 1.254-.34.273-.234.41-.507.41-.82 0-.273-.121-.492-.363-.656-.164-.11-.582-.246-1.254-.41-.906-.235-1.535-.434-1.887-.598a1.817 1.817 0 0 1-.785-.68 1.861 1.861 0 0 1-.269-.984c0-.32.074-.617.222-.891.149-.281.352-.511.61-.691.187-.141.445-.258.773-.352a3.682 3.682 0 0 1 1.066-.152c.571 0 1.071.082 1.5.246.43.164.746.387.95.668.211.281.355.656.433 1.125l-1.207.164c-.055-.375-.215-.668-.48-.879-.258-.211-.625-.316-1.102-.316-.57 0-.976.094-1.219.281-.234.188-.351.406-.351.656a.74.74 0 0 0 .14.434c.102.133.262.242.481.328.117.047.476.152 1.078.316.875.227 1.484.415 1.828.563.344.148.613.363.809.644.195.282.293.633.293 1.055 0 .414-.121.801-.364 1.16-.234.36-.578.641-1.031.844a3.848 3.848 0 0 1-1.535.293c-.937 0-1.656-.195-2.156-.586-.492-.391-.805-.973-.938-1.746zm12.457-.164l1.266.152c-.203.742-.574 1.321-1.113 1.735-.539.406-1.231.609-2.075.609-1.062 0-1.906-.324-2.531-.973-.617-.656-.926-1.574-.926-2.754 0-1.226.313-2.175.938-2.847.633-.672 1.449-1.008 2.449-1.008.969 0 1.758.332 2.367.996.618.656.926 1.582.926 2.777v.329h-5.414c.047.796.273 1.41.68 1.839.406.422.91.633 1.511.633.454 0 .84-.117 1.161-.351.32-.243.574-.621.761-1.137zm-4.043-1.992h4.055c-.055-.61-.211-1.067-.469-1.371-.39-.477-.898-.715-1.523-.715-.563 0-1.039.191-1.43.574-.383.375-.594.879-.633 1.512zm6.845 4.324v-7.254h1.101v1.102c.281-.516.539-.856.774-1.02a1.39 1.39 0 0 1 .797-.246c.414 0 .835.133 1.265.398l-.422 1.137a1.76 1.76 0 0 0-.902-.269c-.274 0-.516.082-.727.246a1.368 1.368 0 0 0-.457.668c-.14.437-.211.918-.211 1.441v3.797h-1.218zm6.686 0l-2.765-7.254h1.301l1.558 4.348c.164.468.321.953.469 1.453.102-.383.254-.84.457-1.371l1.605-4.43h1.266l-2.742 7.254h-1.149zm4.981-8.602V83.67h1.23v1.418h-1.23zm0 8.602v-7.254h1.23v7.254h-1.23zm7.843-2.66l1.207.164c-.133.828-.473 1.48-1.02 1.957-.539.469-1.207.703-2.003.703-.993 0-1.79-.324-2.391-.973-.602-.648-.902-1.578-.902-2.789 0-.789.128-1.476.386-2.062.258-.586.653-1.024 1.184-1.313a3.493 3.493 0 0 1 1.734-.445c.789 0 1.434.199 1.934.598.5.398.82.965.961 1.699l-1.196.176c-.117-.485-.32-.848-.609-1.09a1.541 1.541 0 0 0-1.043-.375c-.617 0-1.121.222-1.512.668-.39.445-.586 1.148-.586 2.109 0 .977.188 1.688.563 2.133.375.437.863.656 1.465.656.484 0 .887-.148 1.207-.445.328-.297.535-.754.621-1.371zm7.23.328l1.266.152c-.203.742-.574 1.321-1.113 1.735-.539.406-1.231.609-2.074.609-1.063 0-1.907-.324-2.532-.973-.617-.656-.925-1.574-.925-2.754 0-1.226.312-2.175.937-2.847.633-.672 1.449-1.008 2.449-1.008.969 0 1.758.332 2.367.996.618.656.926 1.582.926 2.777v.329h-5.414c.047.796.274 1.41.68 1.839.406.422.91.633 1.512.633.453 0 .839-.117 1.16-.351.32-.243.574-.621.761-1.137zm-4.043-1.992h4.055c-.055-.61-.211-1.067-.469-1.371-.39-.477-.898-.715-1.523-.715-.563 0-1.039.191-1.43.574-.383.375-.593.879-.633 1.512zm6.364 2.156l1.219-.187c.063.484.25.859.563 1.125.312.257.75.386 1.312.386.563 0 .98-.113 1.254-.34.273-.234.41-.507.41-.82 0-.273-.121-.492-.363-.656-.164-.11-.582-.246-1.254-.41-.906-.235-1.535-.434-1.887-.598a1.817 1.817 0 0 1-.785-.68 1.862 1.862 0 0 1-.27-.984c0-.32.075-.617.223-.891.149-.281.352-.511.61-.691.187-.141.445-.258.773-.352a3.682 3.682 0 0 1 1.066-.152c.571 0 1.071.082 1.5.246.43.164.746.387.95.668.211.281.355.656.433 1.125l-1.207.164c-.055-.375-.215-.668-.48-.879-.258-.211-.625-.316-1.102-.316-.57 0-.976.094-1.219.281-.234.188-.351.406-.351.656a.74.74 0 0 0 .14.434c.102.133.262.242.481.328.117.047.476.152 1.078.316.875.227 1.484.415 1.828.563.344.148.613.363.809.644.195.282.293.633.293 1.055 0 .414-.121.801-.364 1.16-.234.36-.578.641-1.031.844a3.848 3.848 0 0 1-1.535.293c-.937 0-1.656-.195-2.156-.586-.492-.391-.805-.973-.938-1.746zm6.563 2.344l2.906-10.36h.984l-2.894 10.36h-.996zm9.512-.176v-.914c-.453.719-1.129 1.078-2.027 1.078-.578 0-1.109-.16-1.594-.48a3.168 3.168 0 0 1-1.125-1.336c-.265-.571-.398-1.227-.398-1.969 0-.727.121-1.383.363-1.969.242-.594.602-1.047 1.078-1.359a2.935 2.935 0 0 1 1.629-.469c.438 0 .824.094 1.16.281.344.18.621.418.832.715V83.67h1.231v10.02h-1.149zm-3.879-3.621c0 .93.196 1.625.586 2.086.391.461.852.691 1.383.691.539 0 .996-.219 1.371-.656.375-.445.563-1.117.563-2.016 0-.992-.192-1.718-.575-2.179-.382-.469-.855-.703-1.418-.703-.539 0-.992.222-1.359.668-.367.445-.551 1.148-.551 2.109zm6.505-.012c0-1.344.371-2.336 1.113-2.976.625-.539 1.387-.809 2.285-.809 1 0 1.817.328 2.449.984.633.649.95 1.551.95 2.707 0 .93-.141 1.664-.422 2.204a2.994 2.994 0 0 1-1.231 1.242 3.516 3.516 0 0 1-1.746.445c-1.015 0-1.836-.324-2.461-.973-.625-.656-.937-1.597-.937-2.824zm1.265 0c0 .93.2 1.629.598 2.098.406.461.918.691 1.535.691.61 0 1.117-.23 1.524-.691.406-.469.609-1.18.609-2.133 0-.898-.203-1.578-.609-2.039a1.947 1.947 0 0 0-1.524-.691c-.617 0-1.129.23-1.535.691-.398.453-.598 1.144-.598 2.074zm11.708.973l1.207.164c-.133.828-.473 1.48-1.02 1.957-.539.469-1.207.703-2.003.703-.993 0-1.789-.324-2.391-.973-.602-.648-.902-1.578-.902-2.789 0-.789.129-1.476.386-2.062.258-.586.653-1.024 1.184-1.313a3.493 3.493 0 0 1 1.734-.445c.789 0 1.434.199 1.934.598.5.398.82.965.961 1.699l-1.195.176c-.118-.485-.321-.848-.61-1.09a1.541 1.541 0 0 0-1.043-.375c-.617 0-1.121.222-1.512.668-.39.445-.585 1.148-.585 2.109 0 .977.187 1.688.562 2.133.375.437.863.656 1.465.656.484 0 .887-.148 1.207-.445.328-.297.535-.754.621-1.371zm2.262 2.66V83.67h1.23v5.719l2.918-2.953h1.582l-2.765 2.695 3.046 4.559h-1.511l-2.403-3.715-.867.844v2.871h-1.23zm11.965-2.332l1.265.152c-.203.742-.574 1.321-1.113 1.735-.539.406-1.231.609-2.074.609-1.063 0-1.907-.324-2.532-.973-.617-.656-.925-1.574-.925-2.754 0-1.226.312-2.175.937-2.847.633-.672 1.449-1.008 2.449-1.008.969 0 1.758.332 2.368.996.617.656.925 1.582.925 2.777v.329h-5.414c.047.796.274 1.41.68 1.839.406.422.91.633 1.512.633.453 0 .84-.117 1.16-.351.32-.243.574-.621.762-1.137zm-4.043-1.992h4.054c-.054-.61-.211-1.067-.468-1.371-.391-.477-.899-.715-1.524-.715-.562 0-1.039.191-1.43.574-.382.375-.593.879-.632 1.512zm6.844 4.324v-7.254h1.101v1.102c.282-.516.539-.856.774-1.02.242-.164.508-.246.797-.246.414 0 .836.133 1.265.398l-.422 1.137a1.76 1.76 0 0 0-.902-.269 1.15 1.15 0 0 0-.726.246 1.361 1.361 0 0 0-.457.668 4.676 4.676 0 0 0-.211 1.441v3.797h-1.219zm3.745.176l2.907-10.36h.984l-2.895 10.36h-.996zm9.513-.176v-.914c-.453.719-1.129 1.078-2.028 1.078a2.83 2.83 0 0 1-1.593-.48 3.154 3.154 0 0 1-1.125-1.336c-.266-.571-.399-1.227-.399-1.969 0-.727.121-1.383.364-1.969.242-.594.601-1.047 1.078-1.359a2.935 2.935 0 0 1 1.629-.469c.437 0 .824.094 1.16.281.343.18.621.418.832.715V83.67h1.23v10.02h-1.148zm-3.879-3.621c0 .93.195 1.625.586 2.086.39.461.851.691 1.383.691.539 0 .996-.219 1.371-.656.375-.445.562-1.117.562-2.016 0-.992-.191-1.718-.574-2.179-.383-.469-.855-.703-1.418-.703-.539 0-.992.222-1.359.668-.368.445-.551 1.148-.551 2.109zm11.93 1.289l1.266.152c-.203.742-.574 1.321-1.114 1.735-.539.406-1.23.609-2.074.609-1.062 0-1.906-.324-2.531-.973-.617-.656-.926-1.574-.926-2.754 0-1.226.313-2.175.938-2.847.633-.672 1.449-1.008 2.449-1.008.969 0 1.758.332 2.367.996.617.656.926 1.582.926 2.777v.329h-5.414c.047.796.273 1.41.68 1.839.406.422.91.633 1.511.633.453 0 .84-.117 1.16-.351.321-.243.575-.621.762-1.137zm-4.043-1.992h4.055c-.055-.61-.211-1.067-.469-1.371-.391-.477-.898-.715-1.523-.715-.563 0-1.039.191-1.43.574-.383.375-.594.879-.633 1.512zm7.149 4.324v-6.305h-1.09v-.949h1.09v-.773c0-.485.043-.848.129-1.09.117-.321.324-.578.621-.774.297-.195.715-.293 1.254-.293.344 0 .727.039 1.148.118l-.187 1.078a3.873 3.873 0 0 0-.715-.071c-.375 0-.641.082-.797.246-.156.157-.234.454-.234.891v.668h1.418v.949h-1.418v6.305h-1.219zm8.329-.891c-.461.383-.902.657-1.324.821a3.795 3.795 0 0 1-1.348.234c-.797 0-1.41-.195-1.84-.586-.429-.391-.644-.887-.644-1.488 0-.36.082-.684.246-.973.164-.297.375-.531.633-.703.265-.18.562-.316.89-.41a9.07 9.07 0 0 1 1.09-.188c.992-.117 1.723-.257 2.192-.421.007-.172.011-.278.011-.317 0-.5-.117-.855-.351-1.066-.313-.274-.782-.41-1.407-.41-.578 0-1.003.101-1.277.304-.273.203-.476.559-.609 1.067l-1.207-.164c.109-.508.289-.918.539-1.231.25-.32.613-.566 1.09-.738.476-.172 1.023-.258 1.64-.258.625 0 1.129.074 1.512.223.391.14.676.324.855.55.188.219.317.497.387.832.039.211.059.59.059 1.137v1.641c0 1.14.027 1.863.082 2.168.054.297.156.586.304.867h-1.277a2.41 2.41 0 0 1-.246-.891zm-.105-2.754c-.446.188-1.114.344-2.004.469-.508.071-.868.153-1.079.246-.21.094-.375.227-.492.399a1.071 1.071 0 0 0-.164.586c0 .328.125.601.375.82.25.219.614.328 1.09.328.469 0 .887-.101 1.254-.305.375-.211.648-.496.82-.855.133-.281.2-.691.2-1.231v-.457zm7.898 3.645v-1.066c-.562.82-1.328 1.23-2.296 1.23-.43 0-.832-.082-1.207-.246-.368-.164-.641-.371-.821-.621a2.324 2.324 0 0 1-.375-.914c-.054-.235-.082-.617-.082-1.149v-4.488h1.231v4.02c0 .64.027 1.074.082 1.3.078.321.242.575.492.762.25.188.559.281.926.281s.711-.093 1.031-.281c.328-.195.559-.453.691-.773.133-.328.2-.801.2-1.418v-3.891h1.23v7.254h-1.102zm3.001 0V83.67h1.231v10.02h-1.231zm5.827-1.102l.176 1.09a4.621 4.621 0 0 1-.926.106c-.445 0-.793-.071-1.043-.211a1.201 1.201 0 0 1-.515-.551c-.102-.234-.153-.719-.153-1.453v-4.184h-.902v-.949h.902v-1.793l1.219-.738v2.531h1.242v.949h-1.242v4.254c0 .344.02.567.059.668a.579.579 0 0 0 .211.246c.101.055.246.082.433.082.133 0 .313-.015.539-.047zM2.966 116.565l1.289-.105c.094.625.312 1.097.656 1.418.352.312.774.468 1.266.468.594 0 1.094-.222 1.5-.668.414-.445.621-1.035.621-1.769 0-.703-.199-1.258-.598-1.664-.39-.407-.906-.61-1.547-.61a2.138 2.138 0 0 0-1.816.973l-1.16-.152.972-5.145H9.13v1.172H5.134l-.539 2.695c.601-.422 1.23-.633 1.887-.633.875 0 1.613.305 2.214.915.602.601.903 1.378.903 2.332 0 .906-.262 1.691-.785 2.355-.649.813-1.528 1.219-2.637 1.219-.906 0-1.649-.254-2.227-.762-.578-.516-.906-1.195-.984-2.039zm8.461 2.625v-1.406h1.407v1.406h-1.407zM32.049 119.366l2.906-10.36h.985l-2.895 10.36h-.996zm4.321-2.344l1.219-.187c.063.484.25.859.563 1.125.312.257.75.386 1.312.386.563 0 .981-.113 1.254-.34.273-.234.41-.507.41-.82 0-.273-.121-.492-.363-.656-.164-.11-.582-.246-1.254-.41-.906-.235-1.535-.434-1.887-.598a1.817 1.817 0 0 1-.785-.68 1.861 1.861 0 0 1-.269-.984c0-.32.074-.617.222-.891.149-.281.352-.511.61-.691.187-.141.445-.258.773-.352a3.682 3.682 0 0 1 1.066-.152c.571 0 1.071.082 1.5.246.43.164.746.387.95.668.211.281.355.656.433 1.125l-1.207.164c-.055-.375-.215-.668-.48-.879-.258-.211-.625-.316-1.102-.316-.57 0-.976.094-1.219.281-.234.188-.351.406-.351.656a.74.74 0 0 0 .14.434c.102.133.262.242.481.328.117.047.476.152 1.078.316.875.227 1.484.415 1.828.563.344.148.613.363.809.644.195.282.293.633.293 1.055 0 .414-.121.801-.364 1.16-.234.36-.578.641-1.031.844a3.848 3.848 0 0 1-1.535.293c-.937 0-1.656-.195-2.156-.586-.492-.391-.805-.973-.938-1.746zm12.457-.164l1.266.152c-.203.742-.574 1.321-1.113 1.735-.539.406-1.231.609-2.075.609-1.062 0-1.906-.324-2.531-.973-.617-.656-.926-1.574-.926-2.754 0-1.226.313-2.175.938-2.847.633-.672 1.449-1.008 2.449-1.008.969 0 1.758.332 2.367.996.618.656.926 1.582.926 2.777v.329h-5.414c.047.796.273 1.41.68 1.839.406.422.91.633 1.511.633.454 0 .84-.117 1.161-.351.32-.243.574-.621.761-1.137zm-4.043-1.992h4.055c-.055-.61-.211-1.067-.469-1.371-.39-.477-.898-.715-1.523-.715-.563 0-1.039.191-1.43.574-.383.375-.594.879-.633 1.512zm6.845 4.324v-7.254h1.101v1.102c.281-.516.539-.856.774-1.02a1.39 1.39 0 0 1 .797-.246c.414 0 .835.133 1.265.398l-.422 1.137a1.76 1.76 0 0 0-.902-.269c-.274 0-.516.082-.727.246a1.368 1.368 0 0 0-.457.668c-.14.437-.211.918-.211 1.441v3.797h-1.218zm6.686 0l-2.765-7.254h1.301l1.558 4.348c.164.468.321.953.469 1.453.102-.383.254-.84.457-1.371l1.605-4.43h1.266l-2.742 7.254h-1.149zm4.981-8.602v-1.418h1.23v1.418h-1.23zm0 8.602v-7.254h1.23v7.254h-1.23zm7.843-2.66l1.207.164c-.133.828-.473 1.48-1.02 1.957-.539.469-1.207.703-2.003.703-.993 0-1.79-.324-2.391-.973-.602-.648-.902-1.578-.902-2.789 0-.789.128-1.476.386-2.062.258-.586.653-1.024 1.184-1.313a3.493 3.493 0 0 1 1.734-.445c.789 0 1.434.199 1.934.598.5.398.82.965.961 1.699l-1.196.176c-.117-.485-.32-.848-.609-1.09a1.541 1.541 0 0 0-1.043-.375c-.617 0-1.121.222-1.512.668-.39.445-.586 1.148-.586 2.109 0 .977.188 1.688.563 2.133.375.437.863.656 1.465.656.484 0 .887-.148 1.207-.445.328-.297.535-.754.621-1.371zm7.23.328l1.266.152c-.203.742-.574 1.321-1.113 1.735-.539.406-1.231.609-2.074.609-1.063 0-1.907-.324-2.532-.973-.617-.656-.925-1.574-.925-2.754 0-1.226.312-2.175.937-2.847.633-.672 1.449-1.008 2.449-1.008.969 0 1.758.332 2.367.996.618.656.926 1.582.926 2.777v.329h-5.414c.047.796.274 1.41.68 1.839.406.422.91.633 1.512.633.453 0 .839-.117 1.16-.351.32-.243.574-.621.761-1.137zm-4.043-1.992h4.055c-.055-.61-.211-1.067-.469-1.371-.39-.477-.898-.715-1.523-.715-.563 0-1.039.191-1.43.574-.383.375-.593.879-.633 1.512zm6.364 2.156l1.219-.187c.063.484.25.859.563 1.125.312.257.75.386 1.312.386.563 0 .98-.113 1.254-.34.273-.234.41-.507.41-.82 0-.273-.121-.492-.363-.656-.164-.11-.582-.246-1.254-.41-.906-.235-1.535-.434-1.887-.598a1.817 1.817 0 0 1-.785-.68 1.862 1.862 0 0 1-.27-.984c0-.32.075-.617.223-.891.149-.281.352-.511.61-.691.187-.141.445-.258.773-.352a3.682 3.682 0 0 1 1.066-.152c.571 0 1.071.082 1.5.246.43.164.746.387.95.668.211.281.355.656.433 1.125l-1.207.164c-.055-.375-.215-.668-.48-.879-.258-.211-.625-.316-1.102-.316-.57 0-.976.094-1.219.281-.234.188-.351.406-.351.656a.74.74 0 0 0 .14.434c.102.133.262.242.481.328.117.047.476.152 1.078.316.875.227 1.484.415 1.828.563.344.148.613.363.809.644.195.282.293.633.293 1.055 0 .414-.121.801-.364 1.16-.234.36-.578.641-1.031.844a3.848 3.848 0 0 1-1.535.293c-.937 0-1.656-.195-2.156-.586-.492-.391-.805-.973-.938-1.746zm6.563 2.344l2.906-10.36h.984l-2.894 10.36h-.996zm9.512-.176v-.914c-.453.719-1.129 1.078-2.027 1.078-.578 0-1.109-.16-1.594-.48a3.168 3.168 0 0 1-1.125-1.336c-.265-.571-.398-1.227-.398-1.969 0-.727.121-1.383.363-1.969.242-.594.602-1.047 1.078-1.359a2.935 2.935 0 0 1 1.629-.469c.438 0 .824.094 1.16.281.344.18.621.418.832.715v-3.598h1.231v10.02h-1.149zm-3.879-3.621c0 .93.196 1.625.586 2.086.391.461.852.691 1.383.691.539 0 .996-.219 1.371-.656.375-.445.563-1.117.563-2.016 0-.992-.192-1.718-.575-2.179-.382-.469-.855-.703-1.418-.703-.539 0-.992.222-1.359.668-.367.445-.551 1.148-.551 2.109zm11.931 1.289l1.265.152c-.203.742-.574 1.321-1.113 1.735-.539.406-1.231.609-2.074.609-1.063 0-1.907-.324-2.532-.973-.617-.656-.925-1.574-.925-2.754 0-1.226.312-2.175.937-2.847.633-.672 1.449-1.008 2.449-1.008.969 0 1.758.332 2.368.996.617.656.925 1.582.925 2.777v.329h-5.414c.047.796.274 1.41.68 1.839.406.422.91.633 1.512.633.453 0 .84-.117 1.16-.351.32-.243.574-.621.762-1.137zm-4.043-1.992h4.054c-.054-.61-.211-1.067-.468-1.371-.391-.477-.899-.715-1.524-.715-.562 0-1.039.191-1.43.574-.382.375-.593.879-.632 1.512zm7.149 4.324v-6.305h-1.09v-.949h1.09v-.773c0-.485.043-.848.128-1.09a1.55 1.55 0 0 1 .622-.774c.296-.195.714-.293 1.253-.293.344 0 .727.039 1.149.118l-.188 1.078a3.87 3.87 0 0 0-.714-.071c-.375 0-.641.082-.797.246-.157.157-.235.454-.235.891v.668h1.418v.949h-1.418v6.305h-1.218zm8.328-.891c-.46.383-.902.657-1.324.821a3.79 3.79 0 0 1-1.347.234c-.797 0-1.411-.195-1.84-.586-.43-.391-.645-.887-.645-1.488 0-.36.082-.684.246-.973.164-.297.375-.531.633-.703a3.1 3.1 0 0 1 .891-.41 8.995 8.995 0 0 1 1.09-.188c.992-.117 1.722-.257 2.191-.421.008-.172.012-.278.012-.317 0-.5-.117-.855-.352-1.066-.312-.274-.781-.41-1.406-.41-.578 0-1.004.101-1.277.304-.274.203-.477.559-.61 1.067l-1.207-.164c.11-.508.289-.918.539-1.231.25-.32.613-.566 1.09-.738.477-.172 1.023-.258 1.641-.258.625 0 1.129.074 1.511.223.391.14.676.324.856.55.187.219.316.497.387.832.039.211.058.59.058 1.137v1.641c0 1.14.028 1.863.082 2.168.055.297.156.586.305.867h-1.277a2.43 2.43 0 0 1-.247-.891zm-.105-2.754c-.445.188-1.113.344-2.004.469-.508.071-.867.153-1.078.246a1.138 1.138 0 0 0-.492.399c-.11.172-.164.367-.164.586 0 .328.125.601.375.82.25.219.613.328 1.09.328.468 0 .886-.101 1.253-.305.375-.211.649-.496.821-.855.133-.281.199-.691.199-1.231v-.457zm7.899 3.645v-1.066c-.563.82-1.328 1.23-2.297 1.23-.43 0-.832-.082-1.207-.246-.367-.164-.641-.371-.82-.621a2.295 2.295 0 0 1-.375-.914c-.055-.235-.082-.617-.082-1.149v-4.488h1.23v4.02c0 .64.028 1.074.082 1.3.078.321.242.575.492.762.25.188.559.281.926.281s.711-.093 1.031-.281c.329-.195.559-.453.692-.773.133-.328.199-.801.199-1.418v-3.891h1.231v7.254h-1.102zm3 0v-10.02h1.231v10.02h-1.231zm5.828-1.102l.176 1.09a4.629 4.629 0 0 1-.926.106c-.445 0-.793-.071-1.043-.211a1.209 1.209 0 0 1-.516-.551c-.101-.234-.152-.719-.152-1.453v-4.184h-.902v-.949h.902v-1.793l1.219-.738v2.531h1.242v.949h-1.242v4.254c0 .344.019.567.058.668a.579.579 0 0 0 .211.246c.102.055.246.082.434.082.133 0 .312-.015.539-.047zM9.341 137.131l-1.219.094c-.109-.484-.265-.836-.469-1.055a1.614 1.614 0 0 0-1.23-.527 1.69 1.69 0 0 0-1.031.328c-.383.281-.688.696-.914 1.242-.227.539-.344 1.309-.352 2.309a2.879 2.879 0 0 1 2.438-1.324c.82 0 1.515.301 2.085.902.579.602.868 1.379.868 2.332 0 .633-.137 1.219-.41 1.758a2.923 2.923 0 0 1-1.114 1.242 2.997 2.997 0 0 1-1.605.434c-1.031 0-1.871-.375-2.52-1.125-.64-.758-.961-2.004-.961-3.739 0-1.937.356-3.343 1.067-4.218.625-.766 1.468-1.149 2.531-1.149.781 0 1.422.223 1.922.668.508.438.812 1.047.914 1.828zm-5.016 4.313c0 .422.09.828.27 1.219.179.382.429.675.75.879.32.203.66.304 1.019.304.516 0 .961-.207 1.336-.621.375-.422.563-.992.563-1.711 0-.695-.184-1.242-.551-1.64-.367-.399-.832-.598-1.395-.598-.554 0-1.027.199-1.418.598-.382.398-.574.921-.574 1.57zm7.102 3.246v-1.406h1.407v1.406h-1.407zM32.049 144.866l2.906-10.36h.985l-2.895 10.36h-.996zm9.513-.176v-.914c-.453.719-1.129 1.078-2.028 1.078a2.83 2.83 0 0 1-1.593-.48 3.154 3.154 0 0 1-1.125-1.336c-.266-.571-.399-1.227-.399-1.969 0-.727.121-1.383.363-1.969.243-.594.602-1.047 1.079-1.359a2.934 2.934 0 0 1 1.628-.469c.438 0 .825.094 1.161.281.343.18.621.418.832.715v-3.598h1.23v10.02h-1.148zm-3.879-3.621c0 .93.195 1.625.586 2.086.39.461.851.691 1.383.691.539 0 .996-.219 1.371-.656.375-.445.562-1.117.562-2.016 0-.992-.191-1.718-.574-2.179-.383-.469-.856-.703-1.418-.703-.539 0-.992.222-1.359.668-.368.445-.551 1.148-.551 2.109zm11.93 1.289l1.266.152c-.203.742-.575 1.321-1.114 1.735-.539.406-1.23.609-2.074.609-1.062 0-1.906-.324-2.531-.973-.617-.656-.926-1.574-.926-2.754 0-1.226.313-2.175.938-2.847.632-.672 1.449-1.008 2.449-1.008.969 0 1.758.332 2.367.996.617.656.926 1.582.926 2.777v.329H45.5c.047.796.273 1.41.679 1.839.407.422.911.633 1.512.633.453 0 .84-.117 1.16-.351.321-.243.575-.621.762-1.137zm-4.043-1.992h4.055c-.055-.61-.211-1.067-.469-1.371-.391-.477-.898-.715-1.523-.715-.563 0-1.04.191-1.43.574-.383.375-.594.879-.633 1.512zm7.149 4.324v-6.305h-1.09v-.949h1.09v-.773c0-.485.043-.848.129-1.09.117-.321.324-.578.621-.774.297-.195.715-.293 1.254-.293.344 0 .726.039 1.148.118l-.187 1.078a3.873 3.873 0 0 0-.715-.071c-.375 0-.641.082-.797.246-.156.157-.234.454-.234.891v.668h1.418v.949h-1.418v6.305h-1.219zm8.329-.891c-.461.383-.902.657-1.324.821a3.795 3.795 0 0 1-1.348.234c-.797 0-1.41-.195-1.84-.586-.43-.391-.644-.887-.644-1.488 0-.36.082-.684.246-.973.164-.297.375-.531.633-.703.265-.18.562-.316.89-.41a9.07 9.07 0 0 1 1.09-.188c.992-.117 1.723-.257 2.191-.421.008-.172.012-.278.012-.317 0-.5-.117-.855-.351-1.066-.313-.274-.782-.41-1.407-.41-.578 0-1.004.101-1.277.304-.273.203-.477.559-.609 1.067l-1.207-.164c.109-.508.289-.918.539-1.231.25-.32.613-.566 1.089-.738.477-.172 1.024-.258 1.641-.258.625 0 1.129.074 1.512.223.39.14.676.324.855.55.188.219.317.497.387.832.039.211.059.59.059 1.137v1.641c0 1.14.027 1.863.082 2.168.054.297.156.586.304.867h-1.277a2.41 2.41 0 0 1-.246-.891zm-.106-2.754c-.445.188-1.113.344-2.003.469-.508.071-.868.153-1.079.246a1.138 1.138 0 0 0-.492.399 1.071 1.071 0 0 0-.164.586c0 .328.125.601.375.82.25.219.613.328 1.09.328.469 0 .887-.101 1.254-.305.375-.211.648-.496.82-.855.133-.281.199-.691.199-1.231v-.457zm7.899 3.645v-1.066c-.562.82-1.328 1.23-2.296 1.23-.43 0-.832-.082-1.207-.246-.368-.164-.641-.371-.821-.621a2.324 2.324 0 0 1-.375-.914c-.054-.235-.082-.617-.082-1.149v-4.488h1.231v4.02c0 .64.027 1.074.082 1.3.078.321.242.575.492.762.25.188.558.281.926.281.367 0 .711-.093 1.031-.281.328-.195.558-.453.691-.773.133-.328.2-.801.2-1.418v-3.891h1.23v7.254h-1.102zm3.001 0v-10.02h1.23v10.02h-1.23zm5.827-1.102l.176 1.09a4.621 4.621 0 0 1-.926.106c-.445 0-.793-.071-1.043-.211a1.201 1.201 0 0 1-.515-.551c-.102-.234-.153-.719-.153-1.453v-4.184h-.902v-.949h.902v-1.793l1.219-.738v2.531h1.242v.949h-1.242v4.254c0 .344.02.567.059.668a.579.579 0 0 0 .211.246c.101.055.246.082.433.082.133 0 .313-.015.539-.047z" fill-rule="nonzero"/></svg>